{"glyphs":{"0":{"ha":881,"x_min":61,"x_max":818,"o":"m 440 142 q 674 501 674 142 q 614 774 674 686 q 440 861 554 861 q 265 774 325 861 q 206 501 206 686 q 440 142 206 142 m 61 501 q 108 771 61 657 q 240 945 154 885 q 440 1006 326 1006 q 640 945 554 1006 q 772 771 725 885 q 818 501 818 657 q 772 233 818 347 q 640 58 725 119 q 440 -3 554 -3 q 240 58 326 -3 q 108 233 154 119 q 61 501 61 347 z "},"1":{"ha":496,"x_min":53,"x_max":363,"o":"m 363 6 l 222 6 l 222 844 l 100 801 l 53 936 l 222 997 l 363 997 l 363 6 z "},"2":{"ha":779,"x_min":63,"x_max":717,"o":"m 83 163 q 263 319 144 221 q 422 457 364 403 q 518 570 479 511 q 557 688 557 629 q 507 812 557 767 q 383 857 457 857 q 196 728 253 857 l 63 786 q 206 952 115 903 q 383 1001 296 1001 q 535 962 461 1001 q 655 851 608 922 q 701 688 701 779 q 650 512 701 597 q 525 356 599 426 q 335 189 451 286 q 301 161 313 169 l 717 161 l 717 17 l 83 17 l 83 161 l 85 161 l 83 163 z "},"3":{"ha":808,"x_min":63,"x_max":744,"o":"m 588 518 q 700 418 656 479 q 744 286 744 357 q 701 138 744 204 q 579 35 657 72 q 404 -3 501 -3 q 228 35 306 -3 q 106 140 150 72 q 63 294 63 208 l 206 294 q 228 216 206 253 q 297 156 251 179 q 404 133 342 133 q 513 156 467 133 q 585 216 560 179 q 610 293 610 253 q 559 407 610 360 q 407 454 508 454 l 335 454 l 335 585 l 407 585 q 545 627 494 585 q 596 729 596 669 q 574 798 596 765 q 510 851 551 831 q 413 871 468 871 q 283 828 331 871 q 236 728 236 785 l 93 728 q 135 872 93 808 q 249 970 176 935 q 413 1006 322 1006 q 575 971 503 1006 q 689 874 647 936 q 731 736 731 813 q 691 615 731 671 q 588 518 651 558 z "},"4":{"ha":849,"x_min":63,"x_max":785,"o":"m 653 372 l 785 372 l 785 235 l 653 235 l 653 6 l 518 6 l 518 235 l 63 235 l 63 367 l 518 997 l 653 997 l 653 372 m 518 372 l 518 776 l 228 372 l 518 372 z "},"5":{"ha":813,"x_min":64,"x_max":749,"o":"m 104 456 l 125 990 l 676 990 l 676 846 l 264 846 l 256 631 q 401 663 324 663 q 573 618 493 663 q 701 495 653 574 q 749 322 749 417 q 701 152 749 231 q 572 28 653 74 q 401 -17 492 -17 q 253 17 324 -17 q 132 112 182 51 q 64 247 82 172 l 206 281 q 275 169 222 210 q 401 128 328 128 q 547 182 490 128 q 604 322 604 236 q 548 465 604 411 q 401 518 492 518 q 316 501 353 518 q 250 450 279 485 l 249 451 l 249 450 l 104 456 z "},"6":{"ha":817,"x_min":63,"x_max":753,"o":"m 407 139 q 552 190 496 139 q 608 326 608 240 q 551 463 608 410 q 407 515 494 515 q 263 463 319 515 q 207 326 207 410 q 263 190 207 242 q 407 139 318 139 m 63 326 q 100 475 63 404 l 401 1006 l 565 1006 l 368 657 q 407 660 393 660 q 577 615 497 660 q 705 493 657 569 q 753 326 753 417 q 705 157 753 233 q 577 38 657 81 q 407 -6 497 -6 q 238 38 318 -6 q 110 157 158 81 q 63 326 63 233 m 368 657 z "},"7":{"ha":772,"x_min":86,"x_max":710,"o":"m 153 -1 l 549 839 l 86 839 l 86 983 l 708 983 l 708 839 l 710 839 l 314 -1 l 153 -1 z "},"8":{"ha":813,"x_min":63,"x_max":749,"o":"m 407 125 q 510 148 464 125 q 582 208 556 171 q 608 288 608 246 q 583 367 608 329 q 510 427 557 404 q 407 450 464 450 q 302 427 349 450 q 229 367 256 404 q 203 288 203 329 q 229 208 203 246 q 302 148 256 171 q 407 125 349 125 m 63 286 q 110 422 63 358 q 231 524 157 485 q 131 619 169 564 q 92 736 92 674 q 135 873 92 811 q 252 969 179 935 q 407 1004 325 1004 q 562 969 489 1004 q 678 873 635 935 q 722 736 722 811 q 683 619 722 674 q 583 524 644 564 q 702 422 656 485 q 749 286 749 358 q 701 137 749 204 q 575 31 654 69 q 407 -7 496 -7 q 238 31 317 -7 q 110 137 158 69 q 63 286 63 204 m 236 735 q 258 669 236 700 q 319 618 281 638 q 407 599 358 599 q 494 618 456 599 q 556 669 533 638 q 578 735 578 700 q 556 801 578 769 q 495 851 535 832 q 407 871 456 871 q 319 851 358 871 q 258 801 279 832 q 236 735 236 769 z "},"9":{"ha":817,"x_min":63,"x_max":753,"o":"m 408 868 q 263 817 319 868 q 207 681 207 767 q 264 544 207 597 q 408 490 321 490 q 552 543 496 490 q 608 681 608 596 q 553 817 608 767 q 408 868 497 868 m 63 681 q 110 850 63 774 q 238 969 158 926 q 408 1013 318 1013 q 578 969 499 1013 q 705 850 657 926 q 753 681 753 774 q 722 546 753 611 l 725 546 l 415 1 l 251 1 l 449 349 q 408 346 421 346 q 238 391 318 346 q 110 513 158 436 q 63 681 63 590 z "}," ":{"ha":319,"x_min":0,"x_max":0,"o":""}," ":{"ha":319,"x_min":0,"x_max":0,"o":""},"!":{"ha":475,"x_min":144,"x_max":331,"o":"m 307 268 l 171 268 l 144 1046 l 331 1046 l 307 268 m 157 64 q 178 122 157 99 q 239 144 200 144 q 299 122 278 144 q 321 64 321 99 q 299 4 321 28 q 239 -19 278 -19 q 178 4 200 -19 q 157 64 157 28 z "},"\"":{"ha":582,"x_min":104,"x_max":478,"o":"m 229 783 l 124 783 l 104 1081 l 247 1081 l 229 783 m 478 1079 l 460 781 l 354 781 l 335 1079 l 478 1079 z "},"#":{"ha":1104,"x_min":75,"x_max":1029,"o":"m 846 774 l 1029 774 l 1029 638 l 833 638 l 811 364 l 994 364 l 994 226 l 803 226 l 782 -10 l 640 -10 l 663 226 l 399 226 l 378 -10 l 238 -10 l 258 226 l 75 226 l 75 364 l 267 364 l 290 638 l 111 638 l 111 774 l 301 774 l 321 1013 l 461 1013 l 442 774 l 706 774 l 724 1013 l 867 1013 l 846 774 m 671 364 l 694 638 l 432 638 l 407 364 l 671 364 z "},"$":{"ha":971,"x_min":92,"x_max":881,"o":"m 739 742 q 663 819 713 786 q 574 858 622 844 l 574 556 q 817 429 749 503 q 863 356 844 399 q 881 264 881 313 q 854 153 881 206 q 710 25 808 72 q 574 -17 636 -8 l 574 -111 l 428 -111 l 428 -12 q 251 58 339 4 q 145 157 185 101 q 92 251 106 213 l 232 304 q 265 245 240 278 q 332 186 289 213 q 428 140 379 156 l 428 442 l 417 444 q 285 506 351 463 q 200 576 244 532 q 153 653 171 608 q 136 744 136 697 q 164 861 136 806 q 278 974 206 938 q 428 1018 350 1010 l 428 1121 l 574 1121 l 574 1011 q 744 944 672 992 q 868 817 822 892 l 739 742 m 296 793 q 283 742 283 764 q 311 678 283 708 q 365 632 328 657 q 428 599 399 610 l 428 867 q 296 793 331 853 m 574 136 q 646 161 610 143 q 691 188 674 174 q 721 224 708 203 q 733 269 733 249 q 707 329 733 303 q 660 363 689 347 q 574 399 631 379 l 574 136 z "},"%":{"ha":1474,"x_min":115,"x_max":1358,"o":"m 988 1013 l 1138 1013 l 496 -7 l 349 -7 l 988 1013 m 115 753 q 151 892 115 828 q 250 993 188 956 q 386 1031 313 1031 q 522 993 460 1031 q 619 892 583 956 q 654 753 654 828 q 619 615 654 679 q 522 513 583 551 q 386 475 460 475 q 250 513 313 475 q 151 615 188 551 q 115 753 115 679 m 251 753 q 292 653 251 694 q 386 611 332 611 q 481 652 442 611 q 519 753 519 693 q 481 853 519 813 q 386 894 442 894 q 292 853 332 894 q 251 753 251 811 m 818 261 q 854 400 818 336 q 953 501 890 464 q 1089 539 1015 539 q 1224 501 1163 539 q 1322 400 1286 464 q 1358 261 1358 336 q 1322 124 1358 188 q 1224 22 1286 60 q 1089 -17 1163 -17 q 953 22 1015 -17 q 854 124 890 60 q 818 261 818 188 m 956 261 q 995 161 956 203 q 1089 119 1035 119 q 1184 160 1144 119 q 1224 261 1224 201 q 1184 362 1224 321 q 1089 403 1144 403 q 995 361 1035 403 q 956 261 956 319 z "},"&":{"ha":1060,"x_min":104,"x_max":1017,"o":"m 813 -10 l 726 83 q 438 -31 600 -31 q 223 30 297 -31 q 126 158 149 90 q 104 271 104 226 q 117 351 104 301 q 168 461 129 401 q 278 567 207 521 q 203 660 231 613 q 176 771 176 707 q 207 885 176 826 q 299 984 238 944 q 444 1024 360 1024 q 585 985 525 1024 q 678 888 646 946 q 710 771 710 829 q 663 636 710 694 q 525 525 617 578 l 722 311 q 789 429 751 360 l 806 460 l 936 388 l 917 351 q 826 199 861 249 l 1017 -10 l 813 -10 m 254 271 q 290 171 254 222 q 438 119 326 119 q 625 193 542 119 l 383 456 q 281 363 307 417 q 254 271 254 308 m 326 771 q 341 724 326 744 q 390 669 356 704 l 421 639 q 528 706 497 676 q 560 771 560 735 q 530 843 560 813 q 444 874 500 874 q 354 844 382 874 q 326 771 326 814 z "},"'":{"ha":343,"x_min":100,"x_max":243,"o":"m 225 783 l 119 783 l 100 1081 l 243 1081 l 225 783 z "},"(":{"ha":558,"x_min":144,"x_max":468,"o":"m 144 501 q 188 201 144 347 q 315 -74 232 56 l 468 -74 q 325 200 375 54 q 275 501 275 346 q 325 803 275 657 q 468 1076 375 949 l 315 1076 q 188 801 232 947 q 144 501 144 656 z "},")":{"ha":557,"x_min":90,"x_max":413,"o":"m 413 501 q 369 802 413 657 q 243 1076 325 947 l 90 1076 q 233 804 183 950 q 282 501 282 658 q 233 199 282 344 q 90 -74 183 53 l 243 -74 q 369 201 325 56 q 413 501 413 346 z "},"*":{"ha":763,"x_min":94,"x_max":668,"o":"m 444 601 l 629 660 l 668 539 l 485 481 l 604 317 l 504 238 l 382 404 l 258 238 l 160 318 l 279 481 l 94 539 l 135 660 l 318 601 l 317 799 l 446 799 l 444 601 z "},"+":{"ha":1007,"x_min":92,"x_max":915,"o":"m 574 583 l 915 583 l 915 442 l 574 442 l 574 101 l 433 101 l 433 442 l 92 442 l 92 583 l 433 583 l 433 925 l 574 925 l 574 583 z "},",":{"ha":407,"x_min":50,"x_max":250,"o":"m 157 -189 l 50 -189 l 101 126 l 250 126 l 157 -189 z "},"-":{"ha":786,"x_min":90,"x_max":696,"o":"m 696 583 l 696 440 l 90 440 l 90 583 l 696 583 z "},".":{"ha":385,"x_min":74,"x_max":244,"o":"m 160 139 q 222 115 200 139 q 244 54 244 92 q 222 -8 244 17 q 160 -32 200 -32 q 97 -8 119 -32 q 74 54 74 17 q 97 115 74 90 q 160 139 119 139 z "},"/":{"ha":596,"x_min":64,"x_max":504,"o":"m 208 -78 l 64 -78 l 361 1072 l 504 1072 l 208 -78 z "},":":{"ha":413,"x_min":125,"x_max":288,"o":"m 207 818 q 266 795 244 818 q 288 738 288 772 q 266 678 288 701 q 207 656 244 656 q 147 678 168 656 q 125 738 125 701 q 147 795 125 772 q 207 818 168 818 m 125 271 q 147 328 125 306 q 207 351 168 351 q 266 328 244 351 q 288 271 288 306 q 266 212 288 235 q 207 189 244 189 q 147 212 168 189 q 125 271 125 235 z "},";":{"ha":421,"x_min":90,"x_max":300,"o":"m 197 31 l 90 31 l 142 346 l 290 346 l 197 31 m 138 739 q 159 797 138 775 q 219 819 181 819 q 278 797 257 819 q 300 739 300 774 q 278 681 300 704 q 219 658 257 658 q 159 681 181 658 q 138 739 138 703 z "},"<":{"ha":879,"x_min":150,"x_max":782,"o":"m 681 1033 l 781 929 l 354 503 l 782 75 l 681 -28 l 150 503 l 681 1033 z "},"=":{"ha":947,"x_min":146,"x_max":801,"o":"m 801 763 l 801 621 l 146 621 l 146 763 l 801 763 m 146 396 l 801 396 l 801 253 l 146 253 l 146 396 z "},">":{"ha":879,"x_min":97,"x_max":729,"o":"m 199 -28 l 97 75 l 525 503 l 97 929 l 199 1033 l 729 503 l 199 -28 z "},"?":{"ha":772,"x_min":54,"x_max":701,"o":"m 283 267 q 319 448 283 383 q 428 565 356 513 q 519 650 486 610 q 551 740 551 690 q 499 869 551 825 q 365 914 447 914 q 263 876 307 914 q 199 767 219 838 l 54 808 q 174 992 88 919 q 365 1064 260 1064 q 526 1025 449 1064 q 653 913 604 986 q 701 740 701 839 q 517 446 701 582 q 463 399 479 418 q 440 351 447 381 q 433 267 433 322 l 283 267 m 278 64 q 299 122 278 99 q 360 144 321 144 q 420 122 399 144 q 442 64 442 99 q 420 4 442 28 q 360 -19 399 -19 q 299 4 321 -19 q 278 64 278 28 z "},"@":{"ha":1464,"x_min":96,"x_max":1367,"o":"m 707 268 q 794 294 754 268 q 858 365 835 321 q 882 464 882 410 q 858 564 882 519 q 794 634 835 608 q 707 660 754 660 q 620 634 661 660 q 555 563 579 608 q 531 464 531 518 q 555 365 531 410 q 620 294 579 321 q 707 268 661 268 m 96 488 q 182 806 96 660 q 414 1038 268 951 q 732 1124 560 1124 q 1050 1038 904 1124 q 1281 806 1196 951 q 1367 488 1367 660 q 1341 353 1367 411 q 1275 263 1315 296 q 1199 217 1243 233 q 1124 201 1156 201 q 1026 220 1078 201 q 942 276 975 239 q 704 153 843 153 q 556 195 624 153 q 450 309 489 238 q 411 464 411 381 q 450 619 411 547 q 556 733 489 690 q 704 775 624 775 q 879 710 800 775 l 879 772 l 1003 772 l 1003 431 q 1031 362 1003 394 q 1111 329 1058 329 q 1181 351 1151 329 q 1217 401 1201 368 q 1232 488 1232 435 q 1165 739 1232 624 q 983 921 1097 854 q 732 988 868 988 q 481 920 596 988 q 299 738 365 853 q 232 488 232 624 q 299 237 232 351 q 481 55 365 122 q 732 -12 596 -12 q 986 57 865 -12 l 1056 -58 q 732 -147 908 -147 q 414 -62 560 -147 q 182 169 268 24 q 96 488 96 315 z "},"A":{"ha":1171,"x_min":81,"x_max":1090,"o":"m 1090 -10 l 936 -10 l 822 267 l 349 267 l 235 -10 l 81 -10 l 507 1013 l 664 1013 l 1090 -10 m 764 408 l 589 835 l 408 408 l 764 408 z "},"B":{"ha":908,"x_min":104,"x_max":858,"o":"m 104 -10 l 576 -10 q 717 28 653 -10 q 820 132 782 67 q 858 275 858 197 q 823 421 858 354 q 728 525 788 488 q 806 618 778 565 q 835 735 835 671 q 797 875 835 811 q 695 976 760 939 q 554 1013 631 1013 l 104 1013 l 104 -10 m 250 444 l 563 444 q 666 399 624 444 q 708 288 708 354 q 666 182 708 225 q 563 139 624 139 l 250 139 l 250 444 m 250 869 l 543 869 q 647 828 604 869 q 690 726 690 788 q 650 629 690 668 q 550 588 610 590 l 250 588 l 250 869 z "},"C":{"ha":1006,"x_min":92,"x_max":953,"o":"m 596 -21 q 331 49 446 -21 q 154 239 217 119 q 92 501 92 358 q 153 764 92 644 q 330 953 215 883 q 593 1024 444 1024 q 790 983 697 1024 q 953 871 883 943 l 856 765 q 738 842 808 814 q 593 869 668 869 q 405 821 486 869 q 281 688 324 772 q 238 501 238 604 q 281 313 238 397 q 406 181 325 229 q 596 132 488 132 q 738 160 668 132 q 856 238 807 189 l 953 132 q 791 19 883 60 q 596 -21 699 -21 z "},"D":{"ha":1015,"x_min":106,"x_max":922,"o":"m 411 136 q 594 185 510 136 q 727 319 678 235 q 776 501 776 403 q 727 684 776 600 q 594 817 678 768 q 411 867 510 867 l 251 867 l 251 136 l 411 136 m 106 1013 l 413 1013 q 667 944 550 1013 q 853 758 785 875 q 922 501 922 640 q 853 245 922 363 q 667 59 785 128 q 413 -10 550 -10 l 106 -10 l 106 1013 z "},"E":{"ha":853,"x_min":89,"x_max":776,"o":"m 776 872 l 233 872 l 233 588 l 732 588 l 732 444 l 233 444 l 233 132 l 776 132 l 776 -10 l 89 -10 l 89 1013 l 776 1013 l 776 872 z "},"F":{"ha":825,"x_min":103,"x_max":776,"o":"m 776 872 l 247 872 l 247 574 l 703 574 l 703 431 l 247 431 l 247 -10 l 103 -10 l 103 1013 l 776 1013 l 776 872 z "},"G":{"ha":1206,"x_min":96,"x_max":1099,"o":"m 1096 546 q 1099 506 1099 526 q 1094 424 1099 469 q 944 97 1072 211 q 606 -21 815 -18 q 335 48 450 -21 q 158 235 219 117 q 96 501 96 354 q 158 766 96 647 q 335 953 219 885 q 606 1022 450 1022 q 876 951 765 1022 q 1038 776 986 879 l 910 707 q 794 827 872 778 q 604 876 715 876 q 409 827 492 876 q 283 692 326 778 q 239 501 239 607 q 283 309 239 394 q 409 174 326 224 q 604 125 492 125 q 831 194 742 128 q 942 406 919 261 l 626 406 l 626 546 l 1096 546 z "},"H":{"ha":1019,"x_min":106,"x_max":914,"o":"m 914 -10 l 769 -10 l 769 443 l 251 443 l 251 -10 l 106 -10 l 106 1013 l 251 1013 l 251 586 l 769 586 l 769 1013 l 914 1013 l 914 -10 z "},"I":{"ha":356,"x_min":106,"x_max":250,"o":"m 250 1013 l 250 -10 l 106 -10 l 106 1013 l 250 1013 z "},"J":{"ha":800,"x_min":75,"x_max":699,"o":"m 699 289 q 654 133 699 204 q 535 22 610 63 q 372 -19 460 -19 q 194 31 275 -19 q 75 164 114 81 l 211 224 q 276 153 232 181 q 375 126 319 126 q 465 149 424 126 q 529 208 506 171 q 553 290 553 246 l 553 1013 l 699 1013 l 699 289 z "},"K":{"ha":1021,"x_min":104,"x_max":943,"o":"m 529 564 l 943 -10 l 764 -10 l 431 453 l 250 250 l 250 -10 l 104 -10 l 104 1011 l 250 1011 l 250 460 l 740 1014 l 935 1014 l 529 564 z "},"L":{"ha":831,"x_min":103,"x_max":754,"o":"m 247 132 l 754 132 l 754 -10 l 103 -10 l 103 1013 l 247 1013 l 247 132 z "},"M":{"ha":1233,"x_min":104,"x_max":1124,"o":"m 1124 -10 l 979 -10 l 979 768 l 676 217 l 549 217 l 249 768 l 249 -10 l 104 -10 l 104 1013 l 288 1013 l 615 418 l 939 1013 l 1124 1013 l 1124 -10 z "},"N":{"ha":1097,"x_min":101,"x_max":996,"o":"m 996 -10 l 818 -10 l 247 797 l 247 -10 l 101 -10 l 101 1013 l 275 1013 l 851 207 l 851 1013 l 996 1013 l 996 -10 z "},"O":{"ha":1210,"x_min":96,"x_max":1114,"o":"m 606 124 q 794 174 711 124 q 924 310 878 224 q 969 501 969 397 q 924 692 969 606 q 794 828 878 778 q 606 878 711 878 q 415 828 499 878 q 286 692 332 778 q 240 501 240 606 q 286 310 240 397 q 415 174 332 224 q 606 124 499 124 m 96 501 q 161 764 96 644 q 343 953 226 883 q 606 1024 460 1024 q 868 953 751 1024 q 1049 764 985 883 q 1114 501 1114 644 q 1049 239 1114 358 q 869 49 985 119 q 606 -21 753 -21 q 342 49 458 -21 q 161 239 226 119 q 96 501 96 358 z "},"P":{"ha":933,"x_min":104,"x_max":850,"o":"m 522 494 q 615 520 572 494 q 684 589 658 546 q 710 682 710 632 q 684 775 710 732 q 615 843 658 818 q 522 868 572 868 l 250 868 l 250 494 l 522 494 m 104 1013 l 521 1013 q 687 968 611 1013 q 806 848 763 924 q 850 682 850 772 q 806 516 850 592 q 687 395 763 440 q 521 350 611 350 l 250 350 l 250 -10 l 104 -10 l 104 1013 z "},"Q":{"ha":1218,"x_min":96,"x_max":1128,"o":"m 917 300 q 957 392 944 346 q 971 500 969 439 q 925 692 971 606 q 796 828 879 778 q 606 878 713 878 q 415 828 499 878 q 286 692 332 778 q 240 500 240 606 q 286 310 240 396 q 415 174 332 224 q 606 124 499 124 q 725 141 679 125 q 819 193 771 157 l 688 333 l 793 433 l 917 300 m 96 500 q 161 763 96 643 q 342 952 226 882 q 606 1022 458 1022 q 869 952 753 1022 q 1049 763 985 882 q 1114 500 1114 643 q 1018 192 1113 331 l 1128 76 l 1025 -24 l 919 90 q 779 6 850 33 q 606 -21 708 -21 q 342 49 458 -21 q 161 238 226 119 q 96 500 96 357 z "},"R":{"ha":993,"x_min":106,"x_max":899,"o":"m 522 492 q 617 517 574 492 q 685 587 660 543 q 710 682 710 631 q 685 775 710 732 q 617 843 660 818 q 522 868 574 868 l 247 868 l 247 492 l 522 492 m 106 1013 l 533 1013 q 692 969 619 1013 q 808 851 765 926 q 850 683 850 775 q 784 485 847 568 q 622 368 721 403 l 899 -10 l 722 -10 l 458 349 l 247 349 l 247 -10 l 106 -10 l 106 1013 z "},"S":{"ha":935,"x_min":94,"x_max":865,"o":"m 722 765 q 644 840 694 811 q 469 892 568 892 q 428 889 456 892 q 344 863 379 882 q 288 801 308 844 q 278 753 278 781 q 304 671 278 704 q 356 625 332 640 q 443 585 399 599 l 513 565 q 703 497 638 529 q 800 432 769 465 q 847 357 828 401 q 865 261 865 313 q 846 161 865 210 q 788 81 824 118 q 707 19 753 44 q 563 -25 615 -22 q 500 -29 532 -29 q 256 44 378 -29 q 150 138 192 85 q 94 232 108 192 l 231 282 q 263 223 239 256 q 329 164 288 190 q 416 122 376 135 q 497 110 456 110 q 547 114 521 110 q 639 144 590 119 q 713 214 690 172 q 724 263 724 236 q 696 335 724 304 q 633 376 679 356 q 476 429 586 396 l 406 450 q 276 508 335 471 q 194 579 228 542 q 151 658 168 611 q 135 754 135 704 q 156 856 135 806 q 263 978 190 936 q 410 1028 335 1019 q 467 1031 428 1031 q 595 1015 529 1031 q 719 961 661 999 q 844 840 801 911 l 722 765 z "},"T":{"ha":896,"x_min":76,"x_max":819,"o":"m 819 872 l 521 872 l 521 -10 l 375 -10 l 375 872 l 76 872 l 76 1013 l 819 1013 l 819 872 z "},"U":{"ha":1017,"x_min":107,"x_max":915,"o":"m 915 394 q 859 187 915 282 q 709 36 803 92 q 511 -19 615 -19 q 307 36 400 -19 q 160 186 214 92 q 107 394 107 281 l 107 1013 l 253 1013 l 253 394 q 285 258 253 318 q 377 163 318 197 q 511 129 436 129 q 642 163 582 129 q 736 258 701 197 q 771 394 771 318 l 771 1013 l 915 1013 l 915 394 z "},"V":{"ha":1164,"x_min":81,"x_max":1083,"o":"m 668 -10 l 511 -10 l 81 1013 l 236 1013 l 592 169 l 936 1013 l 1083 1013 l 668 -10 z "},"W":{"ha":1600,"x_min":90,"x_max":1510,"o":"m 1193 -10 l 1049 -10 l 810 769 l 553 -10 l 411 -10 l 90 1013 l 239 1013 l 488 221 l 732 1013 l 885 1013 l 1125 221 l 1363 1013 l 1510 1013 l 1193 -10 z "},"X":{"ha":1122,"x_min":81,"x_max":1043,"o":"m 650 503 l 1043 -10 l 867 -10 l 563 388 l 260 -10 l 81 -10 l 474 503 l 81 1013 l 260 1013 l 563 617 l 865 1013 l 1043 1013 l 650 503 z "},"Y":{"ha":1117,"x_min":81,"x_max":1036,"o":"m 629 389 l 629 -10 l 488 -10 l 488 389 l 81 1013 l 251 1013 l 558 542 l 867 1013 l 1036 1013 l 629 389 z "},"Z":{"ha":961,"x_min":50,"x_max":913,"o":"m 913 875 l 251 131 l 913 131 l 913 -10 l 50 -10 l 50 126 l 707 871 l 50 871 l 50 1013 l 913 1013 l 913 875 z "},"[":{"ha":517,"x_min":143,"x_max":428,"o":"m 428 940 l 276 940 l 276 60 l 428 60 l 428 -79 l 143 -79 l 143 1078 l 428 1078 l 428 940 z "},"\\":{"ha":596,"x_min":92,"x_max":532,"o":"m 235 1072 l 532 -78 l 388 -78 l 92 1072 l 235 1072 z "},"]":{"ha":517,"x_min":90,"x_max":375,"o":"m 375 1078 l 375 -79 l 90 -79 l 90 60 l 242 60 l 242 940 l 90 940 l 90 1078 l 375 1078 z "},"^":{"ha":754,"x_min":68,"x_max":686,"o":"m 671 526 l 686 489 l 550 489 l 378 864 l 204 489 l 68 489 l 306 1008 l 449 1008 l 671 526 z "},"_":{"ha":794,"x_min":75,"x_max":733,"o":"m 733 -19 l 733 -161 l 75 -161 l 75 -19 l 733 -19 z "},"`":{"ha":403,"x_min":114,"x_max":315,"o":"m 264 1082 l 315 783 l 211 783 l 114 1082 l 264 1082 z "},"a":{"ha":876,"x_min":68,"x_max":781,"o":"m 422 119 q 526 148 478 119 q 604 228 575 176 q 633 346 633 281 q 603 463 633 411 q 526 543 574 514 q 422 572 478 572 q 267 510 321 572 q 214 346 214 447 q 267 182 214 244 q 422 119 321 119 m 68 346 q 109 529 68 446 q 228 662 150 613 q 413 711 306 711 q 535 679 475 711 q 636 585 594 647 l 636 714 l 781 714 l 781 -8 l 636 -10 l 636 106 q 534 10 592 42 q 413 -21 476 -21 q 228 28 306 -21 q 109 162 150 78 q 68 346 68 246 z "},"b":{"ha":867,"x_min":96,"x_max":799,"o":"m 449 126 q 599 188 547 126 q 651 349 651 249 q 599 508 651 447 q 449 569 547 569 q 348 540 394 569 q 274 460 301 511 q 246 349 246 410 q 274 236 246 288 q 348 156 301 185 q 449 126 394 126 m 96 1042 l 239 1042 l 239 583 q 342 677 282 647 q 460 707 401 707 q 642 658 565 707 q 758 528 718 610 q 799 349 799 447 q 758 168 799 250 q 641 38 718 86 q 458 -11 564 -11 q 239 114 318 -11 l 239 0 l 96 0 l 96 1042 z "},"c":{"ha":688,"x_min":39,"x_max":668,"o":"m 401 129 q 488 147 447 129 q 561 197 529 165 l 668 96 q 549 14 617 43 q 407 -15 482 -15 q 211 35 294 -15 q 83 173 128 86 q 39 365 39 260 q 83 558 39 471 q 211 695 128 644 q 407 746 294 746 q 549 717 482 746 q 668 635 617 688 l 561 535 q 488 585 528 567 q 401 603 447 603 q 235 536 293 603 q 176 365 176 469 q 235 195 176 261 q 401 129 293 129 z "},"d":{"ha":867,"x_min":68,"x_max":771,"o":"m 417 126 q 517 155 471 126 q 592 235 564 183 q 619 349 619 286 q 592 462 619 411 q 517 541 564 513 q 417 569 471 569 q 266 508 318 569 q 214 349 214 447 q 266 188 214 249 q 417 126 318 126 m 68 349 q 108 528 68 447 q 225 658 149 610 q 406 707 301 707 q 527 676 467 707 q 626 582 588 644 l 626 1042 l 771 1042 l 771 0 l 626 0 l 626 115 q 526 19 588 50 q 406 -11 465 -11 q 225 38 301 -11 q 108 168 149 86 q 68 349 68 250 z "},"e":{"ha":821,"x_min":68,"x_max":749,"o":"m 610 411 q 554 536 603 488 q 418 585 506 585 q 273 541 329 585 q 207 411 217 497 l 610 411 m 68 351 q 109 536 68 453 q 228 669 150 619 q 415 718 307 718 q 626 649 560 718 q 717 521 693 581 q 749 331 749 439 l 747 288 l 207 288 q 272 163 218 207 q 417 118 325 118 q 536 144 490 118 q 597 206 582 169 l 721 147 q 613 33 690 79 q 415 -14 535 -14 q 228 35 307 -14 q 109 168 150 85 q 68 351 68 251 z "},"f":{"ha":611,"x_min":49,"x_max":571,"o":"m 172 -14 l 172 575 l 49 575 l 49 715 l 172 715 l 172 832 q 205 953 172 897 q 293 1041 238 1008 q 414 1074 349 1074 q 498 1058 454 1074 q 571 1021 542 1043 l 479 904 q 414 926 450 926 q 321 832 321 926 l 321 715 l 533 715 l 533 575 l 321 575 l 321 -14 l 172 -14 z "},"g":{"ha":878,"x_min":68,"x_max":782,"o":"m 421 124 q 524 153 476 124 q 600 235 572 183 q 628 350 628 288 q 600 463 628 413 q 524 544 572 514 q 421 574 476 574 q 267 511 321 574 q 214 350 214 449 q 267 186 214 249 q 421 124 321 124 m 68 350 q 109 535 68 453 q 228 666 150 618 q 413 714 306 714 q 536 685 474 714 q 636 589 599 656 l 636 718 l 782 718 l 782 29 q 733 -160 782 -81 q 597 -282 683 -240 q 400 -324 511 -324 q 223 -279 306 -324 q 90 -158 140 -235 l 214 -76 q 297 -156 246 -129 q 400 -183 349 -183 q 568 -133 500 -183 q 636 17 636 -83 l 636 113 q 531 17 593 49 q 413 -15 469 -15 q 227 33 306 -15 q 108 163 149 81 q 68 350 68 246 z "},"h":{"ha":839,"x_min":103,"x_max":744,"o":"m 604 378 q 562 512 604 463 q 439 561 519 561 q 342 534 386 561 q 273 461 299 507 q 247 361 247 415 l 247 -12 l 103 -12 l 103 1042 l 247 1042 l 247 601 q 335 679 279 650 q 442 708 390 708 q 600 666 531 708 q 707 552 669 624 q 744 394 744 481 l 744 -12 l 604 -12 l 604 378 z "},"i":{"ha":344,"x_min":94,"x_max":258,"o":"m 249 718 l 249 -12 l 106 -12 l 106 718 l 249 718 m 94 979 q 117 1038 94 1015 q 178 1061 139 1061 q 237 1038 215 1061 q 258 979 258 1015 q 237 920 258 943 q 178 897 215 897 q 117 920 139 897 q 94 979 94 943 z "},"j":{"ha":332,"x_min":-89,"x_max":251,"o":"m -61 -164 q 24 -174 0 -174 q 75 -154 54 -174 q 96 -90 96 -135 l 96 718 l 244 718 l 244 -90 q 208 -217 244 -164 q 122 -296 172 -269 q 24 -322 71 -322 q -89 -308 -31 -322 l -61 -164 m 88 979 q 110 1038 88 1015 q 171 1061 132 1061 q 230 1038 208 1061 q 251 979 251 1015 q 230 920 251 943 q 171 897 208 897 q 110 920 132 897 q 88 979 88 943 z "},"k":{"ha":782,"x_min":101,"x_max":722,"o":"m 244 378 l 540 713 l 722 713 l 440 393 l 719 -12 l 553 -12 l 346 293 l 244 172 l 244 -12 l 101 -12 l 101 1042 l 244 1042 l 244 378 z "},"l":{"ha":310,"x_min":83,"x_max":226,"o":"m 226 1042 l 226 -12 l 83 -12 l 83 1042 l 226 1042 z "},"m":{"ha":1279,"x_min":104,"x_max":1186,"o":"m 1042 406 q 1020 485 1042 447 q 963 546 999 522 q 885 569 926 569 q 764 526 813 569 q 715 406 715 482 l 715 -10 l 574 -10 l 574 406 q 533 521 574 474 q 419 568 493 568 q 298 518 347 568 q 249 399 249 468 l 249 -10 l 104 -10 l 104 715 l 249 715 l 249 599 q 324 685 275 654 q 432 715 372 715 q 565 678 511 715 q 657 569 618 642 q 760 675 704 635 q 893 715 815 715 q 1039 678 972 715 q 1146 574 1106 642 q 1186 415 1186 506 l 1186 -10 l 1042 -10 l 1042 406 z "},"n":{"ha":828,"x_min":94,"x_max":747,"o":"m 603 393 q 557 520 603 471 q 425 569 511 569 q 330 544 372 569 q 263 476 288 518 q 239 385 239 433 l 239 -10 l 94 -10 l 94 715 l 239 715 l 239 606 q 325 686 271 657 q 438 715 379 715 q 594 680 524 715 q 706 576 664 644 q 747 414 747 507 l 747 -10 l 603 -10 l 603 393 z "},"o":{"ha":838,"x_min":68,"x_max":769,"o":"m 418 124 q 576 188 518 124 q 633 351 633 251 q 576 516 633 451 q 418 581 518 581 q 260 516 318 581 q 201 351 201 451 q 260 188 201 251 q 418 124 318 124 m 68 351 q 111 535 68 451 q 233 669 154 619 q 418 719 313 719 q 605 669 525 719 q 727 535 685 619 q 769 351 769 451 q 727 167 769 251 q 605 34 685 83 q 418 -15 525 -15 q 233 35 313 -15 q 111 168 154 85 q 68 351 68 251 z "},"p":{"ha":888,"x_min":103,"x_max":819,"o":"m 465 118 q 621 184 564 118 q 678 351 678 250 q 621 518 678 453 q 465 583 564 583 q 359 553 408 583 q 281 469 310 522 q 251 351 251 415 q 281 234 251 288 q 359 149 310 181 q 465 118 408 118 m 103 718 l 247 718 l 247 592 q 349 685 281 654 q 474 717 417 717 q 656 667 578 717 q 777 535 735 618 q 819 351 819 451 q 777 167 819 251 q 656 33 735 83 q 474 -17 578 -17 q 350 17 418 -17 q 247 111 282 50 l 247 -325 l 103 -325 l 103 718 z "},"q":{"ha":872,"x_min":68,"x_max":785,"o":"m 422 118 q 528 149 479 118 q 607 234 578 181 q 636 351 636 288 q 607 469 636 415 q 528 553 578 522 q 422 583 479 583 q 267 518 324 583 q 210 351 210 453 q 267 184 210 250 q 422 118 324 118 m 68 351 q 110 535 68 451 q 231 667 153 618 q 414 717 310 717 q 539 685 471 717 q 640 592 607 654 l 640 718 l 785 718 l 785 -325 l 640 -325 l 640 111 q 538 17 606 50 q 414 -17 469 -17 q 231 33 310 -17 q 110 167 153 83 q 68 351 68 251 z "},"r":{"ha":511,"x_min":88,"x_max":464,"o":"m 232 579 q 333 682 264 643 q 464 721 403 721 l 464 581 q 348 547 401 581 q 263 462 294 514 q 232 358 232 410 l 232 -10 l 88 -10 l 88 717 l 232 717 l 232 579 z "},"s":{"ha":699,"x_min":67,"x_max":635,"o":"m 506 500 q 460 549 492 526 q 338 582 408 582 q 236 543 258 582 q 228 514 228 526 q 240 483 228 499 q 272 457 247 472 q 332 429 294 443 l 383 415 q 518 366 474 389 q 586 318 563 343 q 621 262 607 294 q 635 192 635 229 q 614 107 635 147 q 510 14 582 51 q 399 -17 456 -12 q 360 -18 386 -18 q 178 36 267 -18 q 107 103 138 63 q 67 167 76 143 l 185 235 q 211 192 197 211 q 250 158 225 174 q 319 126 289 133 q 392 121 350 118 q 449 138 419 122 q 474 152 465 146 q 489 169 483 158 q 496 196 496 182 q 481 229 496 214 q 440 250 465 240 q 340 282 414 260 l 290 297 q 203 338 240 314 q 140 389 168 356 q 106 448 119 414 q 92 519 92 482 q 110 601 92 561 q 212 695 143 668 q 338 722 281 722 q 533 667 449 722 q 619 578 589 628 l 506 500 z "},"t":{"ha":604,"x_min":49,"x_max":525,"o":"m 525 6 q 458 -6 499 -1 q 386 -8 418 -10 q 283 22 332 -7 q 202 101 233 50 q 171 213 171 151 l 171 583 l 49 583 l 49 722 l 171 722 l 171 968 l 319 968 l 319 722 l 504 722 l 504 583 l 319 583 l 319 213 q 337 158 318 176 q 389 139 356 140 q 486 150 444 139 l 525 6 z "},"u":{"ha":828,"x_min":94,"x_max":747,"o":"m 239 313 q 285 184 239 233 q 417 135 331 135 q 515 160 472 135 q 581 228 558 186 q 603 319 604 271 l 603 718 l 747 718 l 747 -10 l 603 -10 l 603 99 q 519 17 571 44 q 404 -10 467 -10 q 249 26 319 -10 q 136 129 178 61 q 94 290 94 197 l 94 715 l 239 715 l 239 313 z "},"v":{"ha":850,"x_min":54,"x_max":796,"o":"m 488 -10 l 358 -10 l 54 715 l 213 715 l 425 178 l 638 715 l 796 715 l 488 -10 z "},"w":{"ha":1128,"x_min":61,"x_max":1075,"o":"m 858 -10 l 722 -10 l 569 499 l 417 -10 l 279 -10 l 61 715 l 211 715 l 350 219 l 494 715 l 642 715 l 789 219 l 924 715 l 1075 715 l 858 -10 z "},"x":{"ha":819,"x_min":54,"x_max":765,"o":"m 494 353 l 763 -10 l 589 -10 l 410 231 l 235 -10 l 58 -10 l 324 353 l 54 715 l 229 715 l 410 469 l 589 715 l 765 715 l 494 353 z "},"y":{"ha":853,"x_min":60,"x_max":796,"o":"m 206 -325 l 357 44 l 60 717 l 224 717 l 431 225 l 635 717 l 796 717 l 521 54 l 519 54 l 364 -325 l 206 -325 z "},"z":{"ha":728,"x_min":65,"x_max":663,"o":"m 663 571 l 260 133 l 663 133 l 663 -10 l 65 -10 l 65 129 l 469 571 l 65 571 l 65 715 l 663 715 l 663 571 z "},"{":{"ha":531,"x_min":90,"x_max":440,"o":"m 90 567 q 201 605 178 567 q 225 679 225 643 l 225 894 q 273 1028 225 985 q 389 1072 321 1072 l 440 1072 l 440 944 l 389 944 q 365 942 372 944 q 356 929 358 939 q 353 894 353 919 l 353 679 q 339 597 353 649 q 279 503 325 546 q 339 408 325 460 q 353 326 353 357 l 353 110 q 356 75 353 85 q 365 63 358 65 q 389 60 372 60 l 440 60 l 440 -68 l 389 -68 q 273 -24 321 -68 q 225 110 225 19 l 225 326 q 201 400 225 361 q 90 439 178 439 l 90 567 z "},"|":{"ha":450,"x_min":168,"x_max":282,"o":"m 282 1015 l 282 -14 l 168 -14 l 168 1015 l 282 1015 z "},"}":{"ha":531,"x_min":90,"x_max":440,"o":"m 440 439 q 331 400 354 439 q 307 326 307 361 l 307 110 q 259 -24 307 21 q 142 -68 211 -68 l 90 -68 l 90 60 l 142 60 q 166 63 158 60 q 176 75 174 65 q 179 110 179 85 l 179 326 q 192 408 179 357 q 251 503 206 460 q 192 597 206 546 q 179 679 179 649 l 179 894 q 176 929 179 919 q 166 942 174 939 q 142 944 158 944 l 90 944 l 90 1072 l 142 1072 q 259 1028 211 1072 q 307 894 307 983 l 307 679 q 330 605 307 643 q 440 567 353 567 l 440 439 z "},"~":{"ha":1031,"x_min":97,"x_max":926,"o":"m 97 510 q 172 615 125 576 q 268 667 219 653 q 351 679 317 681 q 457 654 425 675 q 492 632 489 633 l 608 558 q 624 548 613 556 q 650 537 636 540 q 683 533 664 533 q 742 552 714 533 q 788 614 771 571 l 926 561 q 859 458 903 499 q 767 401 815 418 q 678 383 719 383 q 600 395 632 383 q 551 417 568 407 q 531 431 535 428 l 411 504 q 378 524 392 518 q 339 529 365 529 q 281 513 310 529 q 236 454 253 496 l 97 510 z "},"¥":{"ha":1106,"x_min":101,"x_max":1004,"o":"m 686 582 l 872 582 l 872 449 l 619 449 l 619 344 l 867 344 l 867 213 l 619 213 l 619 0 l 485 0 l 485 213 l 228 213 l 228 344 l 485 344 l 485 449 l 233 449 l 233 582 l 418 582 l 101 1003 l 260 1003 l 551 628 l 840 1003 l 1004 1003 l 686 582 z "},"©":{"ha":1506,"x_min":124,"x_max":1382,"o":"m 124 488 q 208 803 124 658 q 438 1032 293 947 q 753 1117 582 1117 q 1068 1032 924 1117 q 1297 803 1213 947 q 1382 488 1382 658 q 1297 174 1382 318 q 1068 -56 1213 29 q 753 -140 924 -140 q 438 -56 582 -140 q 208 174 293 29 q 124 488 124 318 m 253 488 q 320 238 253 353 q 503 56 388 124 q 753 -12 618 -12 q 1003 56 888 -12 q 1185 238 1118 124 q 1253 488 1253 353 q 1185 738 1253 622 q 1003 920 1118 853 q 753 988 888 988 q 503 920 618 988 q 320 738 388 853 q 253 488 253 622 m 431 492 q 476 667 431 586 q 599 795 521 747 q 771 843 678 843 q 901 816 839 843 q 1010 740 963 789 l 918 654 q 849 702 889 685 q 767 719 810 719 q 660 689 710 719 q 580 606 610 658 q 550 492 550 554 q 580 377 550 429 q 659 295 610 325 q 767 265 708 265 q 849 282 810 265 q 918 331 889 299 l 1010 243 q 901 167 963 194 q 771 140 839 140 q 599 188 678 140 q 476 317 521 236 q 431 492 431 397 z "},"­":{"ha":836,"x_min":90,"x_max":746,"o":"m 746 583 l 746 440 l 90 440 l 90 583 l 746 583 z "},"®":{"ha":735,"x_min":63,"x_max":672,"o":"m 421 743 l 500 743 l 429 838 q 469 873 454 849 q 485 926 485 897 q 457 994 485 967 q 388 1022 429 1022 l 253 1022 l 253 743 l 317 743 l 317 828 l 358 828 l 421 743 m 63 881 q 103 1033 63 963 q 215 1145 144 1104 q 368 1186 286 1186 q 520 1145 450 1186 q 631 1034 590 1104 q 672 881 672 964 q 631 728 672 797 q 521 617 590 658 q 368 576 451 576 q 215 617 285 576 q 103 728 144 658 q 63 881 63 799 m 138 881 q 169 765 138 818 q 253 682 200 713 q 368 651 306 651 q 483 682 431 651 q 567 765 536 713 q 597 881 597 818 q 567 996 597 943 q 483 1080 536 1049 q 368 1111 431 1111 q 253 1080 306 1111 q 169 996 200 1049 q 138 881 138 943 m 317 963 l 386 963 q 412 952 401 963 q 422 926 422 942 q 412 900 422 911 q 386 889 401 889 l 317 889 l 317 963 z "},"°":{"ha":624,"x_min":114,"x_max":481,"o":"m 297 1144 q 389 1119 347 1144 q 456 1052 431 1094 q 481 960 481 1010 q 456 869 481 911 q 388 803 431 828 q 297 779 346 779 q 205 803 247 779 q 138 869 163 828 q 114 960 114 911 q 138 1052 114 1010 q 205 1119 163 1094 q 297 1144 247 1144 m 214 960 q 239 903 214 926 q 297 879 264 879 q 356 903 332 879 q 379 960 379 926 q 356 1018 379 994 q 297 1042 332 1042 q 239 1017 264 1042 q 214 960 214 993 z "},"±":{"ha":908,"x_min":118,"x_max":790,"o":"m 524 697 l 790 697 l 790 556 l 524 556 l 524 290 l 383 290 l 383 556 l 118 556 l 118 697 l 383 697 l 383 960 l 524 960 l 524 697 m 118 163 l 790 163 l 790 21 l 118 21 l 118 163 z "},"²":{"ha":522,"x_min":63,"x_max":451,"o":"m 78 707 q 174 793 129 756 q 312 926 267 874 q 357 1026 357 978 q 330 1100 357 1075 q 260 1125 303 1125 q 194 1110 221 1125 q 149 1050 168 1094 l 63 1086 q 147 1189 93 1158 q 260 1219 201 1219 q 352 1195 308 1219 q 424 1127 396 1171 q 451 1026 451 1083 q 418 917 451 971 q 338 816 385 863 q 217 707 290 769 l 451 707 l 451 613 l 76 613 l 76 707 l 78 707 z "},"³":{"ha":522,"x_min":53,"x_max":469,"o":"m 382 917 q 446 855 422 893 q 469 772 469 817 q 411 644 469 694 q 261 594 353 594 q 111 646 169 594 q 53 778 53 697 l 144 778 q 174 713 144 739 q 261 688 204 688 q 349 713 318 688 q 379 778 379 739 q 351 844 379 818 q 263 871 324 871 l 218 871 l 218 963 l 263 963 q 343 986 315 963 q 371 1046 371 1010 q 344 1103 371 1081 q 267 1125 317 1125 q 190 1103 217 1125 q 164 1046 164 1081 l 71 1046 q 126 1169 71 1121 q 267 1218 182 1218 q 406 1170 350 1218 q 461 1050 461 1122 q 440 975 461 1010 q 382 917 419 940 z "},"¶":{"ha":1389,"x_min":367,"x_max":986,"o":"m 693 -67 l 794 -67 l 794 935 l 886 935 l 886 -67 l 986 -67 l 986 1050 l 693 1050 q 529 1006 604 1050 q 410 886 454 961 q 367 722 367 811 q 410 559 367 633 q 529 440 454 485 q 693 396 604 396 l 693 -67 z "},"·":{"ha":690,"x_min":243,"x_max":447,"o":"m 344 614 q 420 585 393 614 q 447 513 447 557 q 420 438 447 467 q 344 410 393 410 q 270 438 297 410 q 243 513 243 467 q 270 585 243 557 q 344 614 297 614 z "},"¹":{"ha":328,"x_min":53,"x_max":274,"o":"m 274 597 l 176 597 l 176 1103 l 92 1067 l 53 1156 l 176 1213 l 274 1213 l 274 597 z "},"×":{"ha":1003,"x_min":108,"x_max":894,"o":"m 794 111 l 501 403 l 210 111 l 108 211 l 401 504 l 108 796 l 210 897 l 501 601 l 796 897 l 894 796 l 603 504 l 894 211 l 794 111 z "},"÷":{"ha":1007,"x_min":92,"x_max":915,"o":"m 92 578 l 915 578 l 915 436 l 92 436 l 92 578 m 418 210 q 441 270 418 246 q 504 294 464 294 q 567 270 544 294 q 590 210 590 246 q 567 148 590 172 q 504 124 544 124 q 441 148 464 124 q 418 210 418 172 m 418 808 q 441 869 418 844 q 504 893 464 893 q 567 869 544 893 q 590 808 590 844 q 567 746 590 771 q 504 721 544 721 q 441 746 464 721 q 418 808 418 771 z "},"―":{"ha":1375,"x_min":90,"x_max":1286,"o":"m 1286 583 l 1286 440 l 90 440 l 90 583 l 1286 583 z "},"‘":{"ha":403,"x_min":114,"x_max":315,"o":"m 211 1082 l 315 1082 l 264 785 l 114 785 l 211 1082 z "},"’":{"ha":403,"x_min":88,"x_max":289,"o":"m 193 783 l 88 783 l 139 1082 l 289 1082 l 193 783 z "},"“":{"ha":653,"x_min":118,"x_max":561,"o":"m 456 1081 l 561 1081 l 510 782 l 360 782 l 456 1081 m 215 1082 l 319 1082 l 269 785 l 118 785 l 215 1082 z "},"”":{"ha":653,"x_min":92,"x_max":535,"o":"m 199 783 l 92 783 l 143 1082 l 293 1082 l 199 783 m 383 1079 l 535 1079 l 440 782 l 333 782 l 383 1079 z "},"‥":{"ha":908,"x_min":332,"x_max":576,"o":"m 496 592 q 555 569 533 592 q 576 511 576 546 q 555 453 576 476 q 496 431 533 431 q 454 440 469 431 q 413 431 436 431 q 353 453 374 431 q 332 511 332 475 q 353 569 332 547 q 413 592 374 592 q 454 582 436 592 q 496 592 469 592 z "},"…":{"ha":1143,"x_min":139,"x_max":1004,"o":"m 221 592 q 280 569 258 592 q 301 511 301 546 q 280 452 301 475 q 221 429 258 429 q 160 452 182 429 q 139 511 139 475 q 160 569 139 546 q 221 592 182 592 m 490 511 q 511 569 490 547 q 571 592 532 592 q 630 569 608 592 q 651 511 651 546 q 630 453 651 476 q 571 431 608 431 q 511 453 532 431 q 490 511 490 475 m 842 511 q 863 569 842 547 q 924 592 885 592 q 983 569 961 592 q 1004 511 1004 546 q 983 453 1004 476 q 924 431 961 431 q 863 453 885 431 q 842 511 842 475 z "},"′":{"ha":403,"x_min":88,"x_max":289,"o":"m 193 783 l 88 783 l 139 1082 l 289 1082 l 193 783 z "},"″":{"ha":653,"x_min":92,"x_max":535,"o":"m 199 783 l 92 783 l 143 1082 l 293 1082 l 199 783 m 383 1079 l 535 1079 l 440 782 l 333 782 l 383 1079 z "},"※":{"ha":1265,"x_min":169,"x_max":1100,"o":"m 632 603 l 990 964 l 1089 864 l 729 504 l 1088 146 l 990 47 l 632 407 l 271 46 l 175 143 l 533 504 l 175 864 l 272 963 l 632 603 m 169 510 q 190 565 169 543 q 249 588 211 588 q 306 565 285 588 q 326 510 326 543 q 306 454 326 476 q 249 432 285 432 q 190 454 211 432 q 169 510 169 476 m 556 110 q 576 165 556 143 q 635 188 597 188 q 692 165 671 188 q 713 110 713 143 q 692 53 713 75 q 635 32 671 32 q 576 53 597 32 q 556 110 556 75 m 556 913 q 576 968 556 946 q 635 990 597 990 q 692 968 671 990 q 713 913 713 946 q 692 856 713 878 q 635 833 671 833 q 576 856 597 833 q 556 913 556 878 m 944 510 q 965 565 944 543 q 1024 588 986 588 q 1079 565 1058 588 q 1100 510 1100 543 q 1079 454 1100 476 q 1024 432 1058 432 q 965 454 986 432 q 944 510 944 476 z "},"⁴":{"ha":572,"x_min":53,"x_max":519,"o":"m 443 828 l 519 828 l 519 732 l 443 732 l 443 594 l 347 594 l 347 732 l 53 732 l 53 824 l 351 1214 l 443 1214 l 443 828 m 347 828 l 347 1058 l 169 828 l 347 828 z "},"₁":{"ha":331,"x_min":53,"x_max":278,"o":"m 278 -215 l 181 -215 l 181 290 l 92 253 l 53 342 l 181 399 l 278 399 l 278 -215 z "},"₂":{"ha":522,"x_min":63,"x_max":451,"o":"m 78 -111 q 174 -25 129 -62 q 312 108 267 56 q 357 208 357 160 q 330 282 357 257 q 260 307 303 307 q 194 292 221 307 q 149 232 168 276 l 63 268 q 147 371 93 340 q 260 401 201 401 q 352 377 308 401 q 424 309 396 353 q 451 208 451 265 q 418 99 451 153 q 338 -2 385 44 q 217 -111 290 -49 l 451 -111 l 451 -206 l 76 -206 l 76 -111 l 78 -111 z "},"₃":{"ha":522,"x_min":53,"x_max":469,"o":"m 382 111 q 446 49 422 88 q 469 -33 469 11 q 411 -161 469 -111 q 261 -211 353 -211 q 111 -160 169 -211 q 53 -28 53 -108 l 144 -28 q 174 -94 144 -68 q 261 -119 204 -119 q 349 -94 318 -119 q 379 -29 379 -68 q 351 39 379 13 q 263 65 324 65 l 218 65 l 218 156 l 263 156 q 343 180 315 156 q 371 240 371 204 q 344 297 371 275 q 267 319 317 319 q 190 297 217 319 q 164 239 164 275 l 71 239 q 126 363 71 315 q 267 411 182 411 q 406 364 350 411 q 461 244 461 317 q 440 168 461 203 q 382 111 419 133 z "},"₄":{"ha":572,"x_min":53,"x_max":519,"o":"m 443 15 l 519 15 l 519 -81 l 443 -81 l 443 -218 l 347 -218 l 347 -81 l 53 -81 l 53 11 l 351 400 l 443 400 l 443 15 m 347 15 l 347 243 l 169 15 l 347 15 z "},"₩":{"ha":1511,"x_min":106,"x_max":1406,"o":"m 1254 599 l 1406 599 l 1406 464 l 1221 464 l 1107 0 l 956 0 l 844 464 l 668 464 l 557 0 l 406 0 l 290 464 l 106 464 l 106 599 l 257 599 l 157 1003 l 286 1003 l 385 599 l 578 599 l 675 1001 l 838 1001 l 935 599 l 1128 599 l 1226 1003 l 1354 1003 l 1254 599 m 481 201 l 544 464 l 417 464 l 481 201 m 813 599 l 756 833 l 700 599 l 813 599 m 1032 201 l 1096 464 l 968 464 l 1032 201 z "},"€":{"ha":1119,"x_min":79,"x_max":1040,"o":"m 690 -18 q 416 68 539 -18 q 236 293 293 154 l 79 293 l 79 429 l 200 429 q 196 494 196 461 q 200 561 196 528 l 79 561 l 79 697 l 236 697 q 416 922 293 836 q 690 1007 539 1007 q 882 967 792 1007 q 1040 857 972 928 l 947 753 q 829 830 900 801 q 685 858 758 858 q 519 815 596 858 q 396 697 443 771 l 576 697 l 576 561 l 342 561 q 336 494 336 532 q 342 429 336 457 l 576 429 l 576 293 l 393 293 q 519 174 442 218 q 685 129 596 129 q 828 158 757 129 q 947 236 900 186 l 1040 132 q 882 22 972 61 q 690 -18 792 -18 z "},"℃":{"ha":1499,"x_min":124,"x_max":1363,"o":"m 308 1144 q 399 1120 357 1144 q 466 1053 442 1096 q 490 961 490 1011 q 466 869 490 911 q 399 803 442 828 q 308 779 357 779 q 216 803 258 779 q 149 869 174 828 q 124 961 124 911 q 149 1053 124 1011 q 216 1120 174 1096 q 308 1144 258 1144 m 225 961 q 250 903 225 928 q 308 879 275 879 q 365 903 342 879 q 389 961 389 926 q 365 1019 389 996 q 308 1043 342 1043 q 250 1019 275 1043 q 225 961 225 994 m 531 501 q 595 761 531 642 q 772 951 660 881 q 1017 1022 883 1022 q 1205 982 1115 1022 q 1363 869 1294 942 l 1260 763 q 1147 838 1215 810 q 1011 865 1079 865 q 847 817 924 865 q 725 685 771 769 q 679 501 679 601 q 725 318 679 401 q 847 186 771 235 q 1011 138 924 138 q 1148 165 1081 138 q 1260 242 1215 193 l 1363 135 q 1205 22 1294 63 q 1017 -19 1115 -19 q 772 51 883 -19 q 595 242 660 122 q 531 501 531 361 z "},"℉":{"ha":1488,"x_min":125,"x_max":1336,"o":"m 307 1142 q 399 1117 357 1142 q 465 1051 440 1093 q 489 958 489 1008 q 436 829 489 882 q 307 776 383 776 q 215 801 257 776 q 149 867 174 825 q 125 958 125 908 q 149 1051 125 1008 q 215 1117 174 1093 q 307 1142 257 1142 m 226 958 q 249 900 226 924 q 307 876 272 876 q 366 900 342 876 q 390 958 390 924 q 366 1017 390 993 q 307 1042 342 1042 q 249 1017 272 1042 q 226 958 226 993 m 653 1008 l 1336 1008 l 1336 871 l 808 871 l 808 572 l 1274 572 l 1274 428 l 808 428 l 808 -11 l 653 -11 l 653 1008 z "},"™":{"ha":1342,"x_min":96,"x_max":1247,"o":"m 557 1099 l 378 1099 l 378 579 l 275 579 l 275 1099 l 96 1099 l 96 1200 l 557 1200 l 557 1099 m 631 1190 l 735 1190 l 940 843 l 1144 1190 l 1247 1190 l 1247 579 l 1144 579 l 1144 999 l 982 708 l 899 708 l 735 999 l 735 579 l 631 579 l 631 1190 z "},"←":{"ha":1389,"x_min":310,"x_max":942,"o":"m 310 506 l 839 1035 l 942 933 l 514 506 l 942 78 l 839 -25 l 310 506 z "},"↑":{"ha":1389,"x_min":164,"x_max":1225,"o":"m 164 283 l 693 814 l 1225 283 l 1121 182 l 693 610 l 265 182 l 164 283 z "},"→":{"ha":1389,"x_min":447,"x_max":1079,"o":"m 447 78 l 875 506 l 447 933 l 550 1035 l 1079 506 l 550 -25 l 447 78 z "},"↓":{"ha":1389,"x_min":164,"x_max":1225,"o":"m 164 672 l 265 775 l 693 347 l 1121 775 l 1225 672 l 693 143 l 164 672 z "},"↔":{"ha":1389,"x_min":61,"x_max":1326,"o":"m 61 511 l 383 835 l 475 744 l 311 579 l 1072 575 l 910 739 l 1001 833 l 1326 511 l 1001 189 l 913 279 l 1075 442 l 314 447 l 479 282 l 383 188 l 61 511 z "},"↕":{"ha":1389,"x_min":371,"x_max":1018,"o":"m 372 279 l 463 368 l 625 206 l 631 788 l 465 624 l 371 719 l 694 1042 l 1018 719 l 928 628 l 763 792 l 758 208 l 922 372 l 1017 279 l 694 -46 l 372 279 z "},"↖":{"ha":1389,"x_min":190,"x_max":1200,"o":"m 907 1003 l 907 858 l 433 858 l 1200 94 l 1101 -7 l 335 760 l 335 286 l 190 286 l 190 1003 l 907 1003 z "},"↗":{"ha":1389,"x_min":193,"x_max":1203,"o":"m 1203 286 l 1058 286 l 1058 760 l 293 -7 l 193 94 l 960 858 l 486 858 l 486 1003 l 1203 1003 l 1203 286 z "},"↘":{"ha":1389,"x_min":193,"x_max":1203,"o":"m 486 0 l 486 144 l 960 144 l 193 908 l 293 1010 l 1058 243 l 1058 717 l 1203 717 l 1203 0 l 486 0 z "},"↙":{"ha":1389,"x_min":190,"x_max":1200,"o":"m 190 717 l 335 717 l 335 243 l 1101 1010 l 1200 908 l 433 144 l 907 144 l 907 0 l 190 0 l 190 717 z "},"∙":{"ha":713,"x_min":254,"x_max":458,"o":"m 356 614 q 431 585 403 614 q 458 513 458 557 q 431 438 458 467 q 356 410 404 410 q 281 438 308 410 q 254 513 254 467 q 281 585 254 557 q 356 614 308 614 z "},"≈":{"ha":1014,"x_min":99,"x_max":918,"o":"m 99 640 q 171 744 125 706 q 265 798 217 783 q 347 810 313 813 q 485 761 426 804 l 600 688 q 615 678 604 685 q 638 667 625 671 q 668 664 651 664 q 725 683 697 664 q 768 746 753 703 l 910 693 q 839 587 885 628 q 744 529 793 546 q 656 514 694 513 q 577 531 604 518 q 518 563 550 543 l 404 636 q 389 647 400 639 q 363 657 378 654 q 328 660 349 660 q 278 643 303 660 q 238 585 254 626 l 99 640 m 107 321 q 212 449 142 410 q 344 489 282 489 q 431 471 385 489 q 493 442 478 453 l 607 369 q 623 359 611 367 q 648 348 635 351 q 679 344 661 344 q 735 363 708 344 q 776 425 761 382 l 918 372 q 851 269 894 310 q 761 212 808 229 q 674 194 714 194 q 596 207 628 194 q 549 229 564 219 q 529 242 533 239 l 413 317 q 379 335 390 331 q 339 339 368 339 q 246 265 275 339 l 107 321 z "},"⊕":{"ha":1506,"x_min":124,"x_max":1382,"o":"m 124 488 q 208 803 124 658 q 438 1032 293 947 q 753 1117 582 1117 q 1068 1032 924 1117 q 1297 803 1213 947 q 1382 488 1382 658 q 1297 174 1382 318 q 1068 -56 1213 29 q 753 -140 924 -140 q 438 -56 582 -140 q 208 174 293 29 q 124 488 124 318 m 253 488 q 320 238 253 353 q 503 56 388 124 q 753 -12 618 -12 q 1003 56 888 -12 q 1185 238 1118 124 q 1253 488 1253 353 q 1185 738 1253 622 q 1003 920 1118 853 q 753 988 888 988 q 503 920 618 988 q 320 738 388 853 q 253 488 253 622 m 444 542 l 692 542 l 692 789 l 818 789 l 818 542 l 1065 542 l 1065 415 l 818 415 l 818 168 l 692 168 l 692 415 l 444 415 l 444 542 z "},"⊖":{"ha":1506,"x_min":124,"x_max":1382,"o":"m 124 488 q 208 803 124 658 q 438 1032 293 947 q 753 1117 582 1117 q 1068 1032 924 1117 q 1297 803 1213 947 q 1382 488 1382 658 q 1297 174 1382 318 q 1068 -56 1213 29 q 753 -140 924 -140 q 438 -56 582 -140 q 208 174 293 29 q 124 488 124 318 m 253 488 q 320 238 253 353 q 503 56 388 124 q 753 -12 618 -12 q 1003 56 888 -12 q 1185 238 1118 124 q 1253 488 1253 353 q 1185 738 1253 622 q 1003 920 1118 853 q 753 988 888 988 q 503 920 618 988 q 320 738 388 853 q 253 488 253 622 m 433 542 l 1054 542 l 1054 415 l 433 415 l 433 542 z "},"⊗":{"ha":1506,"x_min":124,"x_max":1382,"o":"m 124 488 q 208 803 124 658 q 438 1032 293 947 q 753 1117 582 1117 q 1068 1032 924 1117 q 1297 803 1213 947 q 1382 488 1382 658 q 1297 174 1382 318 q 1068 -56 1213 29 q 753 -140 924 -140 q 438 -56 582 -140 q 208 174 293 29 q 124 488 124 318 m 253 488 q 320 238 253 353 q 503 56 388 124 q 753 -12 618 -12 q 1003 56 888 -12 q 1185 238 1118 124 q 1253 488 1253 353 q 1185 738 1253 622 q 1003 920 1118 853 q 753 988 888 988 q 503 920 618 988 q 320 738 388 853 q 253 488 253 622 m 539 174 l 754 389 l 968 174 l 1057 265 l 843 478 l 1058 692 l 968 783 l 754 568 l 539 783 l 451 692 l 664 478 l 451 265 l 539 174 z "},"①":{"ha":1478,"x_min":83,"x_max":1315,"o":"m 83 488 q 166 797 83 656 q 390 1021 249 938 q 699 1104 532 1104 q 1007 1021 865 1104 q 1232 796 1149 938 q 1315 488 1315 654 q 1232 179 1315 321 q 1007 -45 1149 38 q 699 -128 865 -128 q 390 -45 532 -128 q 166 179 249 38 q 83 488 83 321 m 208 488 q 275 243 208 356 q 454 64 342 131 q 699 -3 567 -3 q 944 64 831 -3 q 1123 243 1057 131 q 1189 488 1189 356 q 1123 733 1189 619 q 944 912 1057 846 q 699 978 831 978 q 454 912 567 978 q 275 733 342 846 q 208 488 208 619 m 667 835 l 772 835 l 772 154 l 667 154 l 667 718 l 568 678 l 529 772 l 667 835 z "},"②":{"ha":1478,"x_min":83,"x_max":1315,"o":"m 83 488 q 166 797 83 656 q 390 1021 249 938 q 699 1104 532 1104 q 1007 1021 865 1104 q 1232 796 1149 938 q 1315 488 1315 654 q 1232 179 1315 321 q 1007 -45 1149 38 q 699 -128 865 -128 q 390 -45 532 -128 q 166 179 249 38 q 83 488 83 321 m 208 488 q 275 243 208 356 q 454 64 342 131 q 699 -3 567 -3 q 944 64 831 -3 q 1123 243 1057 131 q 1189 488 1189 356 q 1123 733 1189 619 q 944 912 1057 846 q 699 978 831 978 q 454 912 567 978 q 275 733 342 846 q 208 488 208 619 m 478 711 q 574 827 511 793 q 699 861 636 861 q 804 834 753 861 q 888 757 856 807 q 919 643 919 707 q 880 513 919 576 q 788 399 840 450 q 642 269 735 349 l 929 269 l 929 169 l 492 169 l 492 269 q 607 372 529 306 q 767 525 714 465 q 819 643 819 585 q 785 730 819 699 q 699 761 751 761 q 569 672 608 761 l 478 711 z "},"③":{"ha":1478,"x_min":83,"x_max":1315,"o":"m 83 488 q 166 797 83 656 q 390 1021 249 938 q 699 1104 532 1104 q 1007 1021 865 1104 q 1232 796 1149 938 q 1315 488 1315 654 q 1232 179 1315 321 q 1007 -45 1149 38 q 699 -128 865 -128 q 390 -45 532 -128 q 166 179 249 38 q 83 488 83 321 m 208 488 q 275 243 208 356 q 454 64 342 131 q 699 -3 567 -3 q 944 64 831 -3 q 1123 243 1057 131 q 1189 488 1189 356 q 1123 733 1189 619 q 944 912 1057 846 q 699 978 831 978 q 454 912 567 978 q 275 733 342 846 q 208 488 208 619 m 571 347 q 606 273 571 303 q 703 243 640 243 q 802 273 767 243 q 838 347 838 303 q 806 424 838 394 q 704 453 775 453 l 657 453 l 657 551 l 706 551 q 796 578 765 551 q 826 647 826 606 q 796 711 826 685 q 708 738 765 738 q 622 712 653 738 q 592 646 592 686 l 493 646 q 554 783 493 729 q 708 836 615 836 q 818 812 768 836 q 897 745 868 788 q 925 650 925 703 q 901 566 925 604 q 835 501 878 528 q 908 434 881 476 q 935 342 935 392 q 905 241 935 286 q 822 170 875 196 q 703 144 768 144 q 538 201 603 144 q 472 347 472 258 l 571 347 z "},"④":{"ha":1478,"x_min":83,"x_max":1315,"o":"m 83 488 q 166 797 83 656 q 390 1021 249 938 q 699 1104 532 1104 q 1007 1021 865 1104 q 1232 796 1149 938 q 1315 488 1315 654 q 1232 179 1315 321 q 1007 -45 1149 38 q 699 -128 865 -128 q 390 -45 532 -128 q 166 179 249 38 q 83 488 83 321 m 208 488 q 275 243 208 356 q 454 64 342 131 q 699 -3 567 -3 q 944 64 831 -3 q 1123 243 1057 131 q 1189 488 1189 356 q 1123 733 1189 619 q 944 912 1057 846 q 699 978 831 978 q 454 912 567 978 q 275 733 342 846 q 208 488 208 619 m 415 403 l 742 835 l 836 835 l 836 406 l 924 406 l 924 307 l 836 307 l 836 154 l 742 154 l 742 307 l 415 307 l 415 403 m 742 406 l 742 690 l 532 406 l 742 406 z "},"⑤":{"ha":1478,"x_min":83,"x_max":1315,"o":"m 83 488 q 166 797 83 656 q 390 1021 249 938 q 699 1104 532 1104 q 1007 1021 865 1104 q 1232 796 1149 938 q 1315 488 1315 654 q 1232 179 1315 321 q 1007 -45 1149 38 q 699 -128 865 -128 q 390 -45 532 -128 q 166 179 249 38 q 83 488 83 321 m 208 488 q 275 243 208 356 q 454 64 342 131 q 699 -3 567 -3 q 944 64 831 -3 q 1123 243 1057 131 q 1189 488 1189 356 q 1123 733 1189 619 q 944 912 1057 846 q 699 978 831 978 q 454 912 567 978 q 275 733 342 846 q 208 488 208 619 m 565 333 q 612 259 576 286 q 697 232 647 232 q 796 267 758 232 q 833 363 833 303 q 796 458 833 422 q 697 494 758 494 q 597 449 635 494 l 497 457 l 524 822 l 882 822 l 882 722 l 618 722 l 607 576 q 697 594 653 594 q 815 563 761 594 q 901 478 869 532 q 933 363 933 425 q 901 247 933 300 q 815 163 869 194 q 697 132 761 132 q 550 183 615 132 q 468 311 485 233 l 565 333 z "},"⑥":{"ha":1478,"x_min":83,"x_max":1315,"o":"m 83 488 q 166 797 83 656 q 390 1021 249 938 q 699 1104 532 1104 q 1007 1021 865 1104 q 1232 796 1149 938 q 1315 488 1315 654 q 1232 179 1315 321 q 1007 -45 1149 38 q 699 -128 865 -128 q 390 -45 532 -128 q 166 179 249 38 q 83 488 83 321 m 208 488 q 275 243 208 356 q 454 64 342 131 q 699 -3 567 -3 q 944 64 831 -3 q 1123 243 1057 131 q 1189 488 1189 356 q 1123 733 1189 619 q 944 912 1057 846 q 699 978 831 978 q 454 912 567 978 q 275 733 342 846 q 208 488 208 619 m 456 374 q 479 474 456 426 l 478 474 l 681 833 l 797 833 l 667 601 q 690 603 675 603 q 808 572 754 603 q 894 489 863 542 q 926 374 926 436 q 894 260 926 313 q 808 176 863 207 q 690 146 754 146 q 574 176 628 146 q 488 260 519 207 q 456 374 456 313 m 556 374 q 593 281 556 317 q 690 246 631 246 q 789 281 751 246 q 826 374 826 317 q 789 467 826 432 q 690 503 751 503 q 592 467 629 503 q 556 374 556 432 z "},"⑦":{"ha":1478,"x_min":83,"x_max":1315,"o":"m 83 488 q 166 797 83 656 q 390 1021 249 938 q 699 1104 532 1104 q 1007 1021 865 1104 q 1232 796 1149 938 q 1315 488 1315 654 q 1232 179 1315 321 q 1007 -45 1149 38 q 699 -128 865 -128 q 390 -45 532 -128 q 166 179 249 38 q 83 488 83 321 m 208 488 q 275 243 208 356 q 454 64 342 131 q 699 -3 567 -3 q 944 64 831 -3 q 1123 243 1057 131 q 1189 488 1189 356 q 1123 733 1189 619 q 944 912 1057 846 q 699 978 831 978 q 454 912 567 978 q 275 733 342 846 q 208 488 208 619 m 521 810 l 942 810 l 942 710 l 940 710 l 669 136 l 558 136 l 829 710 l 521 710 l 521 810 z "},"⑧":{"ha":1478,"x_min":83,"x_max":1315,"o":"m 83 488 q 166 797 83 656 q 390 1021 249 938 q 699 1104 532 1104 q 1007 1021 865 1104 q 1232 796 1149 938 q 1315 488 1315 654 q 1232 179 1315 321 q 1007 -45 1149 38 q 699 -128 865 -128 q 390 -45 532 -128 q 166 179 249 38 q 83 488 83 321 m 208 488 q 275 243 208 356 q 454 64 342 131 q 699 -3 567 -3 q 944 64 831 -3 q 1123 243 1057 131 q 1189 488 1189 356 q 1123 733 1189 619 q 944 912 1057 846 q 699 978 831 978 q 454 912 567 978 q 275 733 342 846 q 208 488 208 619 m 469 349 q 500 442 469 399 q 578 513 531 486 q 513 576 538 539 q 489 657 489 614 q 519 753 489 710 q 598 819 549 796 q 703 843 647 843 q 808 819 760 843 q 887 753 857 796 q 917 657 917 710 q 893 576 917 614 q 829 513 869 539 q 906 442 876 486 q 935 349 935 399 q 903 247 935 293 q 817 175 871 201 q 703 149 764 149 q 588 175 642 149 q 502 247 535 201 q 469 349 469 293 m 571 350 q 607 276 571 307 q 703 244 643 244 q 797 276 761 244 q 833 350 833 307 q 797 425 833 394 q 703 456 761 456 q 608 425 644 456 q 571 350 571 394 m 592 657 q 622 594 592 619 q 703 569 651 569 q 783 594 754 569 q 813 657 813 619 q 783 720 813 694 q 703 746 754 746 q 622 720 651 746 q 592 657 592 694 z "},"⑨":{"ha":1478,"x_min":83,"x_max":1315,"o":"m 83 488 q 166 797 83 656 q 390 1021 249 938 q 699 1104 532 1104 q 1007 1021 865 1104 q 1232 796 1149 938 q 1315 488 1315 654 q 1232 179 1315 321 q 1007 -45 1149 38 q 699 -128 865 -128 q 390 -45 532 -128 q 166 179 249 38 q 83 488 83 321 m 208 488 q 275 243 208 356 q 454 64 342 131 q 699 -3 567 -3 q 944 64 831 -3 q 1123 243 1057 131 q 1189 488 1189 356 q 1123 733 1189 619 q 944 912 1057 846 q 699 978 831 978 q 454 912 567 978 q 275 733 342 846 q 208 488 208 619 m 461 607 q 493 722 461 669 q 579 806 525 775 q 697 836 633 836 q 814 805 760 836 q 900 722 868 774 q 932 607 932 669 q 908 507 932 554 l 910 507 l 708 149 l 592 149 l 722 381 q 697 379 714 379 q 579 410 633 379 q 493 493 525 440 q 461 607 461 546 m 561 607 q 599 515 561 550 q 697 479 636 479 q 794 515 757 479 q 832 607 832 550 q 795 701 832 665 q 697 736 758 736 q 599 701 636 736 q 561 607 561 665 z "},"⑩":{"ha":1478,"x_min":83,"x_max":1315,"o":"m 83 488 q 166 797 83 656 q 390 1021 249 938 q 699 1104 532 1104 q 1007 1021 865 1104 q 1232 796 1149 938 q 1315 488 1315 654 q 1232 179 1315 321 q 1007 -45 1149 38 q 699 -128 865 -128 q 390 -45 532 -128 q 166 179 249 38 q 83 488 83 321 m 208 488 q 275 243 208 356 q 454 64 342 131 q 699 -3 567 -3 q 944 64 831 -3 q 1123 243 1057 131 q 1189 488 1189 356 q 1123 733 1189 619 q 944 912 1057 846 q 699 978 831 978 q 454 912 567 978 q 275 733 342 846 q 208 488 208 619 m 471 781 l 560 781 l 560 192 l 471 192 l 471 688 l 396 654 l 363 732 l 471 781 m 614 485 q 674 702 614 622 q 839 782 735 782 q 1001 702 940 782 q 1061 485 1061 622 q 1001 267 1061 347 q 839 186 940 186 q 675 267 736 186 q 614 485 614 347 m 703 485 q 738 326 703 376 q 839 275 772 275 q 972 485 972 275 q 839 693 972 693 q 738 643 772 693 q 703 485 703 593 z "},"⑪":{"ha":1478,"x_min":83,"x_max":1315,"o":"m 83 488 q 166 797 83 656 q 390 1021 249 938 q 699 1104 532 1104 q 1007 1021 865 1104 q 1232 796 1149 938 q 1315 488 1315 654 q 1232 179 1315 321 q 1007 -45 1149 38 q 699 -128 865 -128 q 390 -45 532 -128 q 166 179 249 38 q 83 488 83 321 m 208 488 q 275 243 208 356 q 454 64 342 131 q 699 -3 567 -3 q 944 64 831 -3 q 1123 243 1057 131 q 1189 488 1189 356 q 1123 733 1189 619 q 944 912 1057 846 q 699 978 831 978 q 454 912 567 978 q 275 733 342 846 q 208 488 208 619 m 525 785 l 614 785 l 614 196 l 525 196 l 525 692 l 451 658 l 418 736 l 525 785 m 829 785 l 919 785 l 919 196 l 829 196 l 829 692 l 757 658 l 722 736 l 829 785 z "},"⑫":{"ha":1478,"x_min":83,"x_max":1315,"o":"m 699 -128 q 390 -45 532 -128 q 166 179 249 38 q 83 488 83 321 q 166 797 83 656 q 390 1021 249 938 q 699 1104 532 1104 q 1007 1021 865 1104 q 1232 796 1149 938 q 1315 488 1315 654 q 1232 179 1315 321 q 1007 -45 1149 38 q 699 -128 865 -128 m 208 488 q 275 243 208 356 q 454 64 342 131 q 699 -3 567 -3 q 944 64 831 -3 q 1123 243 1057 131 q 1189 488 1189 356 q 1123 733 1189 619 q 944 912 1057 846 q 699 978 831 978 q 454 912 567 978 q 275 733 342 846 q 208 488 208 619 m 467 786 l 553 786 l 553 197 l 467 197 l 467 693 l 390 660 l 357 738 l 467 786 m 621 663 q 703 760 650 732 q 808 789 757 789 q 898 766 854 789 q 969 701 942 743 q 996 604 996 658 q 962 494 996 549 q 885 399 928 440 q 760 286 843 358 l 1004 286 l 1004 203 l 632 203 l 632 286 l 633 286 q 685 333 661 313 q 729 372 710 354 q 867 503 822 451 q 913 604 913 554 q 883 679 913 653 q 808 706 853 706 q 744 690 772 706 q 699 629 717 674 l 621 663 z "},"⑬":{"ha":1478,"x_min":83,"x_max":1315,"o":"m 83 488 q 166 797 83 656 q 390 1021 249 938 q 699 1104 532 1104 q 1007 1021 865 1104 q 1232 796 1149 938 q 1315 488 1315 654 q 1232 179 1315 321 q 1007 -45 1149 38 q 699 -128 865 -128 q 390 -45 532 -128 q 166 179 249 38 q 83 488 83 321 m 208 488 q 275 243 208 356 q 454 64 342 131 q 699 -3 567 -3 q 944 64 831 -3 q 1123 243 1057 131 q 1189 488 1189 356 q 1123 733 1189 619 q 944 912 1057 846 q 699 978 831 978 q 454 912 567 978 q 275 733 342 846 q 208 488 208 619 m 468 782 l 558 782 l 558 193 l 468 193 l 468 690 l 394 657 l 361 733 l 468 782 m 710 367 q 740 300 710 326 q 824 274 769 274 q 910 300 879 274 q 940 365 940 326 q 913 432 940 406 q 825 458 886 458 l 785 458 l 785 542 l 826 542 q 906 565 879 542 q 932 626 932 589 q 905 681 932 658 q 829 704 878 704 q 753 681 781 704 q 726 625 726 658 l 643 625 q 697 742 643 696 q 829 789 750 789 q 960 743 907 789 q 1014 629 1014 697 q 994 556 1014 589 q 938 500 974 522 q 1001 442 978 478 q 1024 361 1024 406 q 967 240 1024 288 q 824 192 910 192 q 682 240 738 192 q 626 367 626 289 l 710 367 z "},"⑭":{"ha":1478,"x_min":83,"x_max":1315,"o":"m 83 488 q 166 797 83 656 q 390 1021 249 938 q 699 1104 532 1104 q 1007 1021 865 1104 q 1232 796 1149 938 q 1315 488 1315 654 q 1232 179 1315 321 q 1007 -45 1149 38 q 699 -128 865 -128 q 390 -45 532 -128 q 166 179 249 38 q 83 488 83 321 m 208 488 q 275 243 208 356 q 454 64 342 131 q 699 -3 567 -3 q 944 64 831 -3 q 1123 243 1057 131 q 1189 488 1189 356 q 1123 733 1189 619 q 944 912 1057 846 q 699 978 831 978 q 454 912 567 978 q 275 733 342 846 q 208 488 208 619 m 474 782 l 564 782 l 564 193 l 474 193 l 474 690 l 400 657 l 367 733 l 474 782 m 614 410 l 896 785 l 979 785 l 979 413 l 1054 413 l 1054 328 l 979 328 l 979 196 l 896 196 l 896 328 l 614 328 l 614 410 m 896 413 l 896 660 l 714 413 l 896 413 z "},"⑮":{"ha":1478,"x_min":83,"x_max":1315,"o":"m 83 488 q 166 797 83 656 q 390 1021 249 938 q 699 1104 532 1104 q 1007 1021 865 1104 q 1232 796 1149 938 q 1315 488 1315 654 q 1232 179 1315 321 q 1007 -45 1149 38 q 699 -128 865 -128 q 390 -45 532 -128 q 166 179 249 38 q 83 488 83 321 m 208 488 q 275 243 208 356 q 454 64 342 131 q 699 -3 567 -3 q 944 64 831 -3 q 1123 243 1057 131 q 1189 488 1189 356 q 1123 733 1189 619 q 944 912 1057 846 q 699 978 831 978 q 454 912 567 978 q 275 733 342 846 q 208 488 208 619 m 472 781 l 563 781 l 563 192 l 472 192 l 472 689 l 397 656 l 364 733 l 472 781 m 718 357 q 755 297 728 318 q 825 276 782 276 q 906 305 876 276 q 935 382 935 333 q 905 460 935 431 q 825 489 875 489 q 778 480 797 489 q 743 451 760 471 l 739 454 l 649 463 l 674 776 l 981 776 l 981 682 l 760 682 l 751 569 q 825 583 789 583 q 926 556 879 583 q 1001 483 974 529 q 1029 382 1029 436 q 1001 281 1029 326 q 927 208 974 235 q 825 182 881 182 q 697 226 753 182 q 626 338 642 269 l 718 357 z "},"Ⓝ":{"ha":1297,"x_min":150,"x_max":1147,"o":"m 785 721 l 785 425 l 513 721 l 418 721 l 418 279 l 511 279 l 511 581 l 785 279 l 881 279 l 881 721 l 785 721 m 150 500 q 217 751 150 636 q 398 933 283 865 q 649 1000 513 1000 q 899 933 785 1000 q 1081 751 1014 865 q 1147 500 1147 636 q 1081 249 1147 364 q 899 68 1014 135 q 649 1 785 1 q 398 68 513 1 q 217 249 283 135 q 150 500 150 364 z "},"ⓘ":{"ha":1506,"x_min":124,"x_max":1382,"o":"m 124 488 q 208 803 124 658 q 438 1032 293 947 q 753 1117 582 1117 q 1068 1032 924 1117 q 1297 803 1213 947 q 1382 488 1382 658 q 1297 174 1382 318 q 1068 -56 1213 29 q 753 -140 924 -140 q 438 -56 582 -140 q 208 174 293 29 q 124 488 124 318 m 253 488 q 320 238 253 353 q 503 56 388 124 q 753 -12 618 -12 q 1003 56 888 -12 q 1185 238 1118 124 q 1253 488 1253 353 q 1185 738 1253 622 q 1003 920 1118 853 q 753 988 888 988 q 503 920 618 988 q 320 738 388 853 q 253 488 253 622 m 617 638 l 825 638 l 825 110 l 706 110 l 706 524 l 617 524 l 617 638 m 683 794 q 705 853 683 831 q 765 876 726 876 q 826 853 804 876 q 847 794 847 831 q 826 735 847 758 q 765 713 804 713 q 705 735 726 713 q 683 794 683 758 z "},"■":{"ha":1389,"x_min":186,"x_max":1203,"o":"m 1203 1013 l 1203 -4 l 186 -4 l 186 1013 l 1203 1013 z "},"□":{"ha":1389,"x_min":186,"x_max":1203,"o":"m 1203 1013 l 1203 -4 l 186 -4 l 186 1013 l 1203 1013 m 1061 138 l 1061 871 l 328 871 l 328 138 l 1061 138 z "},"▣":{"ha":1389,"x_min":186,"x_max":1203,"o":"m 492 301 l 493 706 l 896 706 l 896 303 l 492 301 m 186 1013 l 1203 1013 l 1203 -4 l 186 -4 l 186 1013 m 1061 138 l 1061 871 l 328 871 l 328 138 l 1061 138 z "},"▲":{"ha":1389,"x_min":136,"x_max":1254,"o":"m 1254 44 l 136 44 l 696 958 l 1254 44 z "},"△":{"ha":1389,"x_min":136,"x_max":1254,"o":"m 136 44 l 694 958 l 1254 44 l 136 44 m 1047 164 l 694 742 l 342 164 l 1047 164 z "},"▶":{"ha":1389,"x_min":265,"x_max":1179,"o":"m 265 -54 l 265 1063 l 1179 504 l 265 -54 z "},"▷":{"ha":1389,"x_min":265,"x_max":1179,"o":"m 265 1072 l 1179 515 l 265 -44 l 265 1072 m 961 515 l 383 867 l 383 161 l 961 515 z "},"▼":{"ha":1389,"x_min":136,"x_max":1254,"o":"m 136 958 l 1254 958 l 696 44 l 136 958 z "},"▽":{"ha":1389,"x_min":136,"x_max":1254,"o":"m 694 44 l 136 958 l 1254 958 l 694 44 m 694 263 l 1047 840 l 342 840 l 694 263 z "},"◀":{"ha":1389,"x_min":210,"x_max":1124,"o":"m 1124 1063 l 1124 -54 l 210 504 l 1124 1063 z "},"◁":{"ha":1389,"x_min":210,"x_max":1124,"o":"m 210 515 l 1124 1072 l 1124 -44 l 210 515 m 1006 161 l 1006 867 l 428 515 l 1006 161 z "},"◆":{"ha":1389,"x_min":86,"x_max":1304,"o":"m 1304 504 l 694 -106 l 86 504 l 694 1114 l 1304 504 z "},"◇":{"ha":1389,"x_min":86,"x_max":1304,"o":"m 1304 504 l 694 -106 l 86 504 l 694 1114 l 1304 504 m 694 64 l 1136 504 l 694 946 l 254 504 l 694 64 z "},"◈":{"ha":1389,"x_min":86,"x_max":1304,"o":"m 451 504 l 694 746 l 936 504 l 694 263 l 451 504 m 694 1114 l 1304 504 l 694 -106 l 86 504 l 694 1114 m 694 64 l 1135 504 l 694 946 l 253 504 l 694 64 z "},"○":{"ha":1389,"x_min":185,"x_max":1204,"o":"m 694 114 q 888 166 800 114 q 1028 306 976 218 q 1081 500 1081 394 q 1028 694 1081 606 q 888 834 976 782 q 694 886 800 886 q 501 834 589 886 q 360 694 413 782 q 308 500 308 606 q 360 306 308 394 q 501 166 413 218 q 694 114 589 114 m 185 500 q 253 756 185 639 q 439 941 322 872 q 694 1010 556 1010 q 950 941 833 1010 q 1135 756 1067 872 q 1204 500 1204 639 q 1135 244 1204 361 q 950 59 1067 128 q 694 -10 833 -10 q 439 59 556 -10 q 253 244 322 128 q 185 500 185 361 z "},"◎":{"ha":1389,"x_min":185,"x_max":1204,"o":"m 694 114 q 888 166 800 114 q 1028 306 976 218 q 1081 500 1081 394 q 1028 694 1081 606 q 888 834 976 782 q 694 886 800 886 q 500 834 589 886 q 360 694 411 782 q 308 500 308 606 q 360 306 308 394 q 500 166 411 218 q 694 114 589 114 m 185 500 q 253 756 185 639 q 439 941 322 872 q 694 1010 556 1010 q 950 941 833 1010 q 1135 756 1067 872 q 1204 500 1204 639 q 1135 244 1204 361 q 950 59 1067 128 q 694 -10 833 -10 q 439 59 556 -10 q 253 244 322 128 q 185 500 185 361 m 439 500 q 473 628 439 569 q 566 722 507 688 q 694 756 625 756 q 823 722 764 756 q 916 628 882 688 q 950 500 950 569 q 916 372 950 431 q 823 278 882 313 q 694 244 764 244 q 566 278 625 244 q 473 372 507 313 q 439 500 439 431 m 528 500 q 576 382 528 431 q 694 333 625 333 q 813 383 764 333 q 861 500 861 432 q 812 619 861 569 q 694 668 763 668 q 576 619 625 668 q 528 500 528 569 z "},"●":{"ha":1389,"x_min":185,"x_max":1204,"o":"m 694 -10 q 439 59 556 -10 q 253 244 322 128 q 185 500 185 361 q 253 756 185 639 q 439 941 322 872 q 694 1010 556 1010 q 950 941 833 1010 q 1135 756 1067 872 q 1204 500 1204 639 q 1135 244 1204 361 q 950 59 1067 128 q 694 -10 833 -10 z "},"◐":{"ha":1389,"x_min":185,"x_max":1204,"o":"m 694 114 q 888 166 800 114 q 1028 306 976 218 q 1081 500 1081 394 q 1028 694 1081 606 q 888 834 976 782 q 694 886 800 886 l 694 114 m 185 500 q 253 756 185 639 q 439 941 322 872 q 694 1010 556 1010 q 950 941 833 1010 q 1135 756 1067 872 q 1204 500 1204 639 q 1135 244 1204 361 q 950 59 1067 128 q 694 -10 833 -10 q 439 59 556 -10 q 253 244 322 128 q 185 500 185 361 z "},"◑":{"ha":1389,"x_min":185,"x_max":1204,"o":"m 694 886 q 501 834 589 886 q 360 694 413 782 q 308 500 308 606 q 360 306 308 394 q 501 166 413 218 q 694 114 589 114 l 694 886 m 185 500 q 253 756 185 639 q 439 941 322 872 q 694 1010 556 1010 q 950 941 833 1010 q 1135 756 1067 872 q 1204 500 1204 639 q 1135 244 1204 361 q 950 59 1067 128 q 694 -10 833 -10 q 439 59 556 -10 q 253 244 322 128 q 185 500 185 361 z "},"★":{"ha":1389,"x_min":107,"x_max":1283,"o":"m 850 674 l 1283 639 l 947 374 l 1058 -65 l 696 176 l 332 -65 l 443 374 l 107 639 l 540 674 l 696 1078 l 850 674 z "},"☆":{"ha":1389,"x_min":100,"x_max":1290,"o":"m 606 583 l 354 564 l 550 410 l 483 146 l 696 289 l 907 147 l 840 410 l 1036 564 l 785 583 l 696 817 l 606 583 m 538 675 l 696 1086 l 853 675 l 1290 640 l 950 372 l 1063 -74 l 696 172 l 328 -74 l 440 372 l 100 640 l 538 675 z "},"☎":{"ha":1389,"x_min":219,"x_max":1211,"o":"m 482 299 q 828 -24 686 54 q 965 -72 915 -72 q 1002 -65 988 -72 q 1028 -47 1017 -57 q 1043 -35 1039 -37 l 1150 56 q 1211 144 1211 107 q 1203 172 1211 160 q 1186 194 1196 185 q 1172 208 1176 204 l 1068 314 q 974 368 1015 368 q 917 339 943 368 l 856 276 q 707 438 765 367 l 685 463 q 611 559 636 524 q 539 669 586 594 l 611 714 q 642 742 631 726 q 653 779 653 757 q 619 869 653 818 l 539 992 q 525 1012 536 996 q 501 1037 514 1028 q 472 1046 488 1046 q 383 1003 438 1046 l 272 918 q 253 901 269 915 q 228 867 236 888 q 219 819 219 847 q 239 703 219 775 q 335 503 264 608 q 482 299 406 397 z "},"☏":{"ha":1389,"x_min":192,"x_max":1240,"o":"m 460 281 q 314 482 390 368 q 211 694 238 596 q 192 819 192 768 q 206 890 192 867 q 235 924 219 913 q 254 940 250 936 l 365 1025 q 474 1075 429 1075 q 522 1058 503 1075 q 550 1027 540 1042 q 563 1008 560 1013 l 643 885 q 681 781 681 829 q 626 689 681 722 l 579 660 q 643 566 619 599 q 708 482 667 533 q 751 429 715 472 q 856 318 788 386 l 894 358 q 974 396 929 396 q 1089 335 1029 396 l 1193 229 q 1210 212 1196 226 q 1232 180 1224 197 q 1240 144 1240 163 q 1168 33 1240 92 l 1061 -58 q 1042 -74 1057 -61 q 1009 -94 1028 -86 q 968 -101 990 -101 q 813 -49 908 -101 q 460 281 665 32 m 304 719 q 398 529 328 633 q 535 342 468 425 q 691 168 608 253 q 858 36 774 83 q 894 17 868 31 q 934 -2 921 3 q 956 -7 947 -7 q 976 -1 965 -7 q 999 17 986 6 l 1106 107 q 1129 127 1121 118 q 1138 142 1138 136 q 1124 163 1138 149 l 1019 267 q 993 292 1004 283 q 978 301 982 301 q 964 292 972 301 l 857 181 q 700 342 742 294 q 651 399 658 390 l 633 421 q 558 521 592 472 q 444 690 524 569 l 575 771 q 583 776 576 772 q 589 785 589 781 q 578 808 589 792 q 563 832 567 825 l 482 954 q 472 968 476 963 q 463 974 467 974 q 449 967 458 974 q 425 949 439 960 l 314 864 q 289 840 296 849 q 282 818 282 831 q 292 767 282 803 q 304 719 301 732 z "},"☜":{"ha":1389,"x_min":68,"x_max":1322,"o":"m 508 38 q 424 71 457 38 q 390 150 390 104 q 404 204 390 179 q 367 244 381 219 q 353 297 353 269 q 368 351 353 325 q 333 392 346 367 q 319 444 319 417 q 325 478 319 463 l 196 478 q 104 508 140 478 q 68 588 68 538 q 105 669 68 639 q 196 700 142 700 l 610 700 l 553 756 q 517 844 517 792 q 526 892 517 869 q 553 933 535 915 q 642 971 590 971 q 731 933 696 971 l 869 794 q 961 733 910 754 q 1069 713 1013 713 l 1213 713 q 1290 680 1257 713 q 1322 604 1322 647 l 1322 274 q 1301 204 1322 236 q 1247 156 1281 172 l 1151 113 q 788 38 972 38 l 508 38 m 150 588 q 152 567 150 572 q 165 561 154 563 q 196 560 176 560 l 546 560 l 546 478 l 438 478 q 408 470 417 478 q 400 444 400 463 q 408 419 400 426 q 438 411 417 411 l 593 411 l 593 329 l 478 329 q 433 297 433 329 q 442 273 433 281 q 471 265 451 265 l 660 265 l 660 185 l 508 185 q 479 177 488 185 q 471 150 471 169 q 479 126 471 133 q 508 118 488 118 l 526 118 l 526 119 l 788 119 q 1119 188 958 119 l 1213 229 q 1235 246 1231 238 q 1240 274 1240 254 l 1240 604 q 1235 626 1240 622 q 1213 631 1231 631 l 1069 631 q 930 658 997 631 q 813 738 863 686 l 672 876 q 642 896 653 896 q 627 890 635 896 q 610 876 619 885 q 592 844 592 856 q 610 814 592 835 l 810 618 l 196 618 q 157 614 164 618 q 150 588 150 610 z "},"☝":{"ha":1389,"x_min":229,"x_max":1163,"o":"m 640 653 l 640 1003 q 639 1035 640 1026 q 632 1047 638 1044 q 611 1049 626 1049 q 590 1047 596 1049 q 583 1035 585 1044 q 582 1003 582 1026 l 582 389 l 386 589 q 356 607 369 607 q 324 589 342 607 q 304 556 304 567 q 322 525 304 546 l 461 386 q 541 269 513 336 q 569 129 569 203 l 569 -14 q 573 -37 569 -33 q 596 -42 576 -42 l 926 -42 q 953 -36 944 -42 q 969 -14 961 -31 l 1011 79 q 1081 411 1081 246 l 1081 672 l 1082 672 l 1082 690 q 1074 719 1082 711 q 1050 728 1067 728 q 1023 719 1031 728 q 1015 690 1015 711 l 1015 539 l 935 539 l 935 728 q 927 756 935 747 q 903 765 919 765 q 878 755 886 765 q 871 721 871 744 l 871 606 l 789 606 l 789 761 q 781 790 789 782 q 756 799 774 799 q 729 791 736 799 q 722 761 722 783 l 722 653 l 640 653 m 265 468 q 229 557 229 507 q 265 646 229 607 q 356 682 301 682 q 444 646 410 682 l 500 589 l 500 1003 q 530 1094 500 1057 q 611 1131 560 1131 q 692 1094 663 1131 q 722 1003 722 1057 l 722 874 q 756 879 738 879 q 808 866 783 879 q 849 831 832 853 q 903 846 872 846 q 956 832 931 846 q 996 794 981 818 q 1050 808 1021 808 q 1129 775 1096 808 q 1163 690 1163 742 l 1163 411 q 1086 47 1163 229 l 1043 -49 q 996 -103 1028 -82 q 926 -124 964 -124 l 596 -124 q 519 -91 551 -124 q 488 -14 488 -58 l 488 129 q 466 238 488 186 q 404 329 444 289 l 265 468 z "},"☞":{"ha":1389,"x_min":68,"x_max":1322,"o":"m 844 560 l 1194 560 q 1225 561 1214 560 q 1238 567 1236 563 q 1240 588 1240 572 q 1233 614 1240 610 q 1194 618 1226 618 l 581 618 l 781 814 q 799 844 799 832 q 781 876 799 858 q 749 896 761 896 q 718 876 738 896 l 578 738 q 460 658 528 686 q 321 631 393 631 l 178 631 q 155 626 160 631 q 150 604 150 622 l 150 274 q 155 246 150 254 q 178 229 160 238 l 271 188 q 603 119 432 119 l 864 119 l 864 118 l 882 118 q 911 126 903 118 q 919 150 919 133 q 911 177 919 169 q 882 185 903 185 l 731 185 l 731 265 l 919 265 q 948 273 939 265 q 957 297 957 281 q 913 329 957 329 l 797 329 l 797 411 l 953 411 q 982 419 974 411 q 990 444 990 426 q 982 470 990 463 q 953 478 974 478 l 844 478 l 844 560 m 68 604 q 101 680 68 647 q 178 713 133 713 l 321 713 q 429 733 378 713 q 521 794 481 754 l 660 933 q 749 971 697 971 q 838 933 800 971 q 874 844 874 899 q 838 756 874 790 l 781 700 l 1194 700 q 1285 669 1249 700 q 1322 588 1322 639 q 1286 508 1322 538 q 1194 478 1250 478 l 1065 478 q 1071 444 1071 463 q 1058 392 1071 417 q 1022 351 1044 367 q 1038 297 1038 325 q 1024 244 1038 269 q 986 204 1010 219 q 1000 150 1000 179 q 967 71 1000 104 q 882 38 933 38 l 603 38 q 239 113 418 38 l 143 156 q 89 204 110 172 q 68 274 68 236 l 68 604 z "},"☟":{"ha":1389,"x_min":229,"x_max":1163,"o":"m 1163 317 q 1129 232 1163 265 q 1050 199 1096 199 q 996 213 1021 199 q 956 175 981 189 q 903 161 931 161 q 849 176 872 161 q 808 141 832 154 q 756 128 783 128 q 722 133 738 128 l 722 4 q 692 -87 722 -50 q 611 -124 663 -124 q 530 -87 560 -124 q 500 4 500 -50 l 500 418 l 444 361 q 403 334 426 343 q 356 325 381 325 q 265 361 304 325 q 229 450 229 400 q 265 539 229 503 l 404 678 q 466 769 444 718 q 488 878 488 821 l 488 1021 q 519 1098 488 1065 q 596 1131 551 1131 l 926 1131 q 996 1110 964 1131 q 1043 1056 1028 1089 l 1086 960 q 1163 596 1163 778 l 1163 317 m 322 482 q 304 451 304 461 q 324 418 304 440 q 356 400 344 400 q 386 418 368 400 l 582 618 l 582 4 q 583 -28 582 -19 q 590 -40 585 -37 q 611 -42 596 -42 q 632 -40 626 -42 q 639 -28 638 -37 q 640 4 640 -19 l 640 354 l 722 354 l 722 246 q 729 216 722 224 q 756 208 736 208 q 781 217 774 208 q 789 246 789 225 l 789 401 l 871 401 l 871 286 q 878 252 871 263 q 903 242 886 242 q 927 251 919 242 q 935 279 935 260 l 935 468 l 1015 468 l 1015 317 q 1023 288 1015 296 q 1050 279 1031 279 q 1074 288 1067 279 q 1082 317 1082 296 l 1082 379 l 1081 379 l 1081 596 q 1011 928 1081 761 l 969 1021 q 953 1043 961 1038 q 926 1049 944 1049 l 596 1049 q 573 1044 576 1049 q 569 1021 569 1040 l 569 878 q 541 738 569 804 q 461 621 513 671 l 322 482 z "},"♠":{"ha":1389,"x_min":200,"x_max":1190,"o":"m 1068 750 q 1181 554 1154 654 q 1190 468 1190 514 q 1182 376 1190 421 q 1088 214 1160 279 q 915 149 1017 149 q 743 229 814 149 l 760 -51 l 633 -51 l 651 232 q 475 149 578 149 q 303 214 374 149 q 208 376 232 279 q 200 465 200 421 q 210 554 200 511 q 322 750 243 661 q 449 883 381 821 q 608 1019 517 946 l 640 1046 l 696 1092 q 765 1030 722 1067 q 833 971 808 993 q 1068 750 1011 819 z "},"♡":{"ha":1389,"x_min":122,"x_max":1267,"o":"m 1053 418 q 1122 512 1097 468 q 1160 601 1147 556 q 1171 676 1171 643 q 1161 757 1171 706 q 1089 888 1142 842 q 949 935 1036 935 q 863 915 896 935 q 797 850 829 896 q 703 663 778 817 q 590 850 624 792 q 526 915 560 896 q 440 935 492 935 q 226 756 269 935 q 218 679 218 717 q 228 601 218 640 q 266 510 242 553 q 335 418 290 467 q 484 271 406 339 q 692 100 563 203 l 693 99 l 792 182 q 958 325 900 274 q 1053 418 1017 376 m 132 776 q 240 958 157 885 q 440 1032 324 1032 q 572 997 513 1032 q 671 903 631 961 l 694 864 q 717 903 703 881 q 816 997 757 961 q 949 1032 875 1032 q 1091 997 1026 1032 q 1198 904 1156 963 q 1256 776 1240 846 q 1267 676 1267 725 q 1253 576 1267 626 q 1126 354 1222 463 q 1026 255 1088 310 q 860 113 964 200 q 694 -28 776 44 l 631 25 q 419 199 501 128 q 263 354 336 269 q 135 576 169 458 q 122 679 122 631 q 132 776 122 721 z "},"♣":{"ha":1389,"x_min":204,"x_max":1186,"o":"m 694 1024 q 813 992 758 1024 q 898 906 867 960 q 929 788 929 851 q 910 692 929 738 q 856 617 890 647 q 858 606 858 608 q 953 624 900 624 q 1070 592 1017 624 q 1155 507 1124 561 q 1186 390 1186 453 q 1155 274 1186 326 q 1070 190 1124 221 q 953 158 1017 158 q 833 189 889 158 q 746 269 776 219 l 736 269 l 757 -65 l 631 -65 l 651 269 l 643 269 q 557 188 613 218 q 438 158 501 158 q 320 190 374 158 q 235 274 267 221 q 204 390 204 326 q 235 507 204 453 q 320 592 267 561 q 438 624 374 624 q 531 606 490 624 l 535 617 q 479 692 499 647 q 460 788 460 736 q 492 906 460 851 q 577 992 524 960 q 694 1024 631 1024 z "},"♥":{"ha":1389,"x_min":125,"x_max":1264,"o":"m 1124 356 q 1022 254 1086 310 q 854 111 958 199 q 694 -25 704 -17 l 631 26 l 607 44 q 409 211 483 146 q 264 356 335 276 q 136 575 171 460 q 125 678 125 624 q 133 775 125 729 q 242 956 160 883 q 440 1029 325 1029 q 572 994 514 1029 q 671 901 631 960 l 694 863 q 717 901 703 879 q 815 994 757 960 q 947 1029 874 1029 q 1147 956 1064 1029 q 1254 775 1229 883 q 1264 676 1264 719 q 1251 575 1264 628 q 1124 356 1221 464 z "},"♩":{"ha":750,"x_min":144,"x_max":606,"o":"m 368 78 q 449 106 417 78 q 481 172 481 135 q 448 240 481 214 q 365 260 415 267 q 294 224 321 256 q 269 158 267 193 q 302 101 275 125 q 368 78 329 78 m 146 144 q 144 169 144 153 q 176 278 144 229 q 263 354 208 326 q 379 382 317 382 q 483 354 431 382 l 483 1043 l 606 1043 l 606 186 q 574 70 606 124 q 490 -14 543 17 q 369 -44 436 -44 q 218 8 283 -44 q 146 144 153 61 z "},"♪":{"ha":1004,"x_min":144,"x_max":965,"o":"m 622 1006 q 656 918 639 954 q 790 753 714 789 q 888 684 850 726 q 944 594 925 642 q 963 526 960 560 q 965 506 965 507 l 965 496 l 917 496 l 847 496 l 844 513 q 832 560 842 536 q 729 658 804 624 q 658 708 683 681 q 611 778 633 735 l 611 192 l 611 157 q 572 56 606 101 q 488 -17 539 10 q 376 -44 436 -44 q 263 -17 315 -44 q 177 58 210 10 q 144 167 144 106 q 178 276 144 226 q 266 356 211 326 q 383 385 321 385 q 488 358 443 385 l 488 1044 l 610 1044 l 615 1031 l 622 1006 m 271 167 q 301 105 271 132 q 374 78 331 78 q 450 103 419 78 q 485 165 481 129 l 485 183 q 451 240 479 217 q 385 264 424 264 q 303 234 335 264 q 271 167 271 204 m 611 157 l 611 156 l 611 157 z "},"♬":{"ha":1294,"x_min":96,"x_max":1146,"o":"m 1022 557 q 921 585 981 585 q 802 556 857 585 q 715 478 747 528 q 682 369 682 429 q 713 260 682 308 q 797 184 744 211 q 910 157 850 157 q 1025 186 971 157 q 1112 265 1079 215 q 1146 374 1144 314 l 1146 1149 l 1050 1149 l 439 965 l 435 354 q 333 382 386 382 q 216 353 271 382 q 128 275 161 325 q 96 167 96 225 q 126 58 96 106 q 208 -17 157 10 q 319 -44 260 -44 q 438 -16 383 -44 q 526 62 493 13 q 560 171 560 111 l 560 871 l 1022 1011 l 1022 557 m 222 167 q 253 232 222 203 q 332 261 283 261 q 404 235 375 261 q 433 174 433 208 q 403 106 433 136 q 324 76 372 76 q 251 103 281 76 q 222 167 222 131 m 807 367 q 838 434 807 404 q 918 464 868 464 q 987 440 958 464 q 1018 383 1015 417 q 992 312 1022 344 q 910 279 961 279 q 837 306 867 279 q 807 367 807 332 z "},"⚠":{"ha":1506,"x_min":124,"x_max":1382,"o":"m 124 488 q 208 803 124 658 q 438 1032 293 947 q 753 1117 582 1117 q 1068 1032 924 1117 q 1297 803 1213 947 q 1382 488 1382 658 q 1297 174 1382 318 q 1068 -56 1213 29 q 753 -140 924 -140 q 438 -56 582 -140 q 208 174 293 29 q 124 488 124 318 m 253 488 q 320 238 253 353 q 503 56 388 124 q 753 -12 618 -12 q 1003 56 888 -12 q 1185 238 1118 124 q 1253 488 1253 353 q 1185 738 1253 622 q 1003 920 1118 853 q 753 988 888 988 q 503 920 618 988 q 320 738 388 853 q 253 488 253 622 m 832 868 l 814 336 l 692 336 l 675 868 l 832 868 m 678 174 q 699 229 678 207 q 756 251 719 251 q 813 229 792 251 q 833 174 833 207 q 813 117 833 139 q 756 94 792 94 q 699 117 719 94 q 678 174 678 139 z "},"✓":{"ha":1256,"x_min":58,"x_max":1143,"o":"m 457 13 l 58 501 l 168 589 l 454 246 l 1029 1001 l 1143 914 l 457 13 z "},"〈":{"ha":744,"x_min":147,"x_max":650,"o":"m 299 499 l 643 -76 l 494 -76 l 147 499 l 500 1072 l 650 1072 l 299 499 z "},"〉":{"ha":744,"x_min":94,"x_max":597,"o":"m 244 1072 l 597 499 l 250 -76 l 101 -76 l 446 499 l 94 1072 l 244 1072 z "},"《":{"ha":896,"x_min":150,"x_max":799,"o":"m 282 494 l 539 -81 l 407 -81 l 150 494 l 411 1069 l 542 1069 l 282 494 m 667 1069 l 799 1069 l 539 494 l 794 -81 l 663 -81 l 407 494 l 667 1069 z "},"》":{"ha":896,"x_min":97,"x_max":746,"o":"m 486 1069 l 746 494 l 490 -81 l 357 -81 l 614 494 l 354 1069 l 486 1069 m 229 1069 l 489 494 l 233 -81 l 101 -81 l 358 494 l 97 1069 l 229 1069 z "},"「":{"ha":557,"x_min":144,"x_max":465,"o":"m 465 947 l 267 947 l 267 649 l 144 649 l 144 1071 l 465 1071 l 465 947 z "},"」":{"ha":557,"x_min":92,"x_max":413,"o":"m 92 42 l 290 42 l 290 342 l 413 342 l 413 -82 l 92 -82 l 92 42 z "},"『":{"ha":558,"x_min":144,"x_max":467,"o":"m 467 921 l 292 921 l 292 632 l 144 632 l 144 1065 l 467 1065 l 467 921 m 236 682 l 236 975 l 417 975 l 417 1011 l 200 1011 l 200 682 l 236 682 z "},"』":{"ha":558,"x_min":92,"x_max":414,"o":"m 92 58 l 265 58 l 265 346 l 414 346 l 414 -87 l 92 -87 l 92 58 m 358 -32 l 358 296 l 322 296 l 322 3 l 142 3 l 142 -32 l 358 -32 z "},"【":{"ha":469,"x_min":142,"x_max":381,"o":"m 381 1072 q 263 497 263 804 q 381 -78 263 190 l 142 -78 l 142 1072 l 381 1072 z "},"】":{"ha":469,"x_min":89,"x_max":328,"o":"m 328 1072 l 328 -78 l 89 -78 q 207 497 207 194 q 89 1072 207 800 l 328 1072 z "},"〔":{"ha":553,"x_min":143,"x_max":463,"o":"m 271 876 l 271 103 l 463 26 l 414 -96 l 143 11 l 143 967 l 414 1074 l 463 951 l 271 876 z "},"〕":{"ha":553,"x_min":90,"x_max":410,"o":"m 139 1074 l 410 967 l 410 11 l 139 -96 l 90 26 l 281 103 l 281 876 l 90 951 l 139 1074 z "},"ㄱ":{"ha":1214,"x_min":219,"x_max":994,"o":"m 994 836 l 994 181 l 847 181 l 847 715 l 219 715 l 219 836 l 994 836 z "},"ㄲ":{"ha":1214,"x_min":149,"x_max":1083,"o":"m 592 836 l 592 181 l 444 181 l 444 715 l 149 715 l 149 836 l 592 836 m 656 838 l 1083 838 l 1083 182 l 935 182 l 935 717 l 656 717 l 656 838 z "},"ㄳ":{"ha":1214,"x_min":147,"x_max":1132,"o":"m 554 833 l 554 281 q 716 416 664 325 q 768 621 768 507 l 768 846 l 911 846 l 911 621 q 965 413 911 506 q 1132 278 1019 321 l 1053 169 q 839 385 903 231 q 626 169 775 231 l 554 268 l 554 181 l 407 181 l 407 713 l 147 713 l 147 833 l 554 833 z "},"ㄴ":{"ha":1214,"x_min":222,"x_max":1013,"o":"m 374 836 l 374 317 l 1013 317 l 1013 196 l 222 196 l 222 836 l 374 836 z "},"ㄵ":{"ha":1214,"x_min":169,"x_max":1093,"o":"m 321 840 l 321 288 q 544 317 450 290 l 549 283 q 689 433 644 336 q 733 651 733 531 l 733 714 l 560 714 l 560 835 l 1049 835 l 1049 714 l 875 714 l 875 651 q 927 419 875 522 q 1093 268 979 317 l 1010 158 q 803 389 865 225 q 603 160 744 226 l 557 219 l 560 197 q 415 172 486 178 q 235 165 343 165 l 169 165 l 169 840 l 321 840 z "},"ㄶ":{"ha":1214,"x_min":169,"x_max":1056,"o":"m 317 819 l 317 296 q 546 326 453 300 l 561 206 q 415 181 488 186 q 235 175 342 175 l 169 175 l 169 819 l 317 819 m 544 743 l 735 743 l 735 856 l 879 856 l 879 743 l 1056 743 l 1056 622 l 544 622 l 544 743 m 585 365 q 613 478 585 428 q 691 556 642 528 q 801 585 740 585 q 913 556 863 585 q 991 478 963 528 q 1019 365 1019 428 q 991 251 1019 301 q 913 174 963 201 q 801 146 863 146 q 691 174 740 146 q 613 251 642 201 q 585 365 585 301 m 711 365 q 737 288 711 317 q 801 260 763 260 q 868 288 843 260 q 893 365 893 317 q 868 440 893 413 q 801 468 843 468 q 737 440 763 468 q 711 365 711 413 z "},"ㄷ":{"ha":1214,"x_min":226,"x_max":1000,"o":"m 989 840 l 989 721 l 376 721 l 376 301 l 1000 301 l 1000 182 l 226 182 l 226 840 l 989 840 z "},"ㄸ":{"ha":1214,"x_min":179,"x_max":1042,"o":"m 578 840 l 578 721 l 326 721 l 326 318 q 460 327 401 321 q 581 347 519 333 l 596 222 q 437 200 514 206 q 247 194 360 194 l 179 194 l 179 840 l 578 840 m 642 840 l 1038 840 l 1038 721 l 790 721 l 790 314 l 1042 314 l 1042 193 l 642 193 l 642 840 z "},"ㄹ":{"ha":1214,"x_min":213,"x_max":1013,"o":"m 993 854 l 993 461 l 357 461 l 357 300 l 1013 300 l 1013 176 l 214 176 l 214 579 l 850 579 l 850 736 l 213 736 l 213 854 l 993 854 z "},"ㄺ":{"ha":1214,"x_min":164,"x_max":1049,"o":"m 583 846 l 583 457 l 314 457 l 314 299 q 643 331 504 303 l 657 211 q 467 185 560 192 q 244 179 375 179 l 167 179 l 167 576 l 433 576 l 433 726 l 164 726 l 164 846 l 583 846 m 625 846 l 1049 846 l 1049 183 l 900 183 l 900 726 l 625 726 l 625 846 z "},"ㄻ":{"ha":1214,"x_min":160,"x_max":1072,"o":"m 575 846 l 575 457 l 311 457 l 311 300 q 596 326 469 303 l 608 208 q 435 185 518 190 q 235 179 353 179 l 163 179 l 163 576 l 426 576 l 426 725 l 160 725 l 160 846 l 575 846 m 636 847 l 1072 847 l 1072 182 l 636 182 l 636 847 m 939 301 l 939 726 l 769 726 l 769 301 l 939 301 z "},"ㄼ":{"ha":1214,"x_min":160,"x_max":1072,"o":"m 575 846 l 575 457 l 311 457 l 311 299 q 596 328 468 301 l 611 210 q 440 185 522 190 q 235 179 357 179 l 163 179 l 163 576 l 426 576 l 426 725 l 160 725 l 160 846 l 575 846 m 632 847 l 772 847 l 772 639 l 932 639 l 932 847 l 1072 847 l 1072 179 l 632 179 l 632 847 m 932 300 l 932 517 l 772 517 l 772 300 l 932 300 z "},"ㄽ":{"ha":1214,"x_min":157,"x_max":1132,"o":"m 571 846 l 571 457 l 306 457 l 306 300 q 456 308 389 301 q 593 333 524 315 l 597 297 q 733 433 689 346 q 776 628 776 521 l 776 851 l 921 851 l 921 628 q 972 419 921 511 q 1132 282 1022 326 l 1051 175 q 849 386 908 236 q 644 175 789 238 l 606 228 l 607 213 q 437 185 521 192 q 231 179 353 179 l 158 179 l 158 576 l 424 576 l 424 725 l 157 725 l 157 846 l 571 846 z "},"ㄾ":{"ha":1214,"x_min":160,"x_max":1072,"o":"m 575 846 l 575 457 l 311 457 l 311 301 q 599 333 468 304 l 613 215 q 443 188 525 194 q 236 182 361 182 l 164 182 l 164 576 l 428 576 l 428 725 l 160 725 l 160 846 l 575 846 m 644 846 l 1063 846 l 1063 725 l 792 725 l 792 576 l 1047 576 l 1047 456 l 792 456 l 792 300 l 1072 300 l 1072 181 l 644 181 l 644 846 z "},"ㄿ":{"ha":1214,"x_min":161,"x_max":1094,"o":"m 563 846 l 563 457 l 313 457 l 313 300 q 461 310 397 303 q 589 333 525 317 l 604 211 q 436 185 519 192 q 235 179 353 179 l 163 179 l 163 576 l 414 576 l 414 725 l 161 725 l 161 846 l 563 846 m 615 300 l 679 300 l 679 725 l 617 725 l 617 844 l 1089 844 l 1089 725 l 1025 725 l 1025 300 l 1094 300 l 1094 179 l 615 179 l 615 300 m 896 300 l 896 725 l 811 725 l 811 300 l 896 300 z "},"ㅀ":{"ha":1214,"x_min":168,"x_max":1096,"o":"m 549 846 l 549 465 l 319 465 l 319 300 q 461 309 399 303 q 588 329 524 315 l 601 210 q 435 185 517 192 q 242 179 354 179 l 169 179 l 169 579 l 400 579 l 400 732 l 168 732 l 168 846 l 549 846 m 600 761 l 781 761 l 781 881 l 928 881 l 928 761 l 1096 761 l 1096 640 l 600 640 l 600 761 m 631 385 q 659 497 631 447 q 738 574 688 546 q 849 601 788 601 q 959 574 910 601 q 1037 497 1008 546 q 1065 385 1065 447 q 1037 272 1065 322 q 959 194 1008 222 q 849 167 910 167 q 738 194 788 167 q 659 272 688 222 q 631 385 631 322 m 757 385 q 782 310 757 338 q 849 283 807 283 q 915 310 889 283 q 940 385 940 338 q 915 458 940 431 q 849 485 889 485 q 782 458 807 485 q 757 385 757 431 z "},"ㅁ":{"ha":1214,"x_min":222,"x_max":1000,"o":"m 1000 836 l 1000 188 l 222 188 l 222 836 l 1000 836 m 851 307 l 851 715 l 371 715 l 371 307 l 851 307 z "},"ㅂ":{"ha":1214,"x_min":224,"x_max":997,"o":"m 372 854 l 372 647 l 849 647 l 849 854 l 997 854 l 997 179 l 224 179 l 224 854 l 372 854 m 849 310 l 849 515 l 372 515 l 372 310 l 849 310 z "},"ㅃ":{"ha":1214,"x_min":182,"x_max":1053,"o":"m 321 844 l 321 638 l 457 638 l 457 844 l 596 844 l 596 179 l 182 179 l 182 844 l 321 844 m 457 303 l 457 517 l 321 517 l 321 303 l 457 303 m 640 844 l 778 844 l 778 639 l 915 639 l 915 844 l 1053 844 l 1053 181 l 640 181 l 640 844 m 915 303 l 915 517 l 778 517 l 778 303 l 915 303 z "},"ㅄ":{"ha":1214,"x_min":181,"x_max":1149,"o":"m 929 846 l 929 621 q 983 414 929 507 q 1149 278 1038 321 l 1072 169 q 858 385 922 231 q 644 169 792 229 l 594 238 l 594 179 l 181 179 l 181 844 l 319 844 l 319 638 l 456 638 l 456 844 l 594 844 l 594 290 q 740 425 693 338 q 786 621 786 513 l 786 846 l 929 846 m 456 303 l 456 517 l 319 517 l 319 303 l 456 303 z "},"ㅅ":{"ha":1214,"x_min":167,"x_max":1054,"o":"m 686 861 l 686 672 q 783 424 686 528 q 1054 282 879 319 l 982 160 q 757 263 851 193 q 611 433 663 332 q 465 263 560 332 q 239 160 371 193 l 167 282 q 440 424 343 319 q 536 672 536 528 l 536 861 l 686 861 z "},"ㅆ":{"ha":1214,"x_min":94,"x_max":1146,"o":"m 471 826 l 471 706 q 508 513 471 608 q 621 350 544 417 q 734 510 697 415 q 771 706 771 606 l 771 826 l 922 826 l 922 708 q 976 474 922 579 q 1146 317 1029 368 l 1064 208 q 843 464 907 279 q 619 190 776 265 q 482 303 538 231 q 397 467 426 375 q 179 207 335 283 l 94 315 q 266 477 211 369 q 321 708 321 585 l 321 826 l 471 826 z "},"ㅇ":{"ha":1214,"x_min":218,"x_max":997,"o":"m 607 858 q 804 814 715 858 q 945 691 893 769 q 997 514 997 613 q 945 336 997 415 q 804 213 893 257 q 607 168 715 168 q 411 213 500 168 q 270 336 322 257 q 218 514 218 415 q 270 691 218 613 q 411 814 322 769 q 607 858 500 858 m 361 514 q 394 400 361 450 q 483 322 426 350 q 607 294 539 294 q 733 322 676 294 q 821 400 789 350 q 853 514 853 450 q 821 627 853 578 q 733 703 789 676 q 607 731 676 731 q 483 703 539 731 q 394 626 426 676 q 361 514 361 576 z "},"ㅈ":{"ha":1214,"x_min":188,"x_max":1039,"o":"m 1004 853 l 1004 733 l 688 733 l 688 679 q 779 430 688 536 q 1039 282 871 324 l 968 167 q 750 275 840 201 q 614 453 660 349 q 476 275 567 349 q 258 167 386 201 l 188 282 q 447 429 356 324 q 539 679 539 535 l 539 733 l 226 733 l 226 853 l 1004 853 z "},"ㅉ":{"ha":1214,"x_min":81,"x_max":1157,"o":"m 593 858 l 593 739 l 458 739 l 458 724 q 495 476 458 576 q 621 324 532 376 q 746 476 708 376 q 783 724 783 576 l 783 739 l 646 739 l 646 858 l 1096 858 l 1096 739 l 931 739 l 931 724 q 984 467 931 581 q 1157 297 1038 353 l 1068 178 q 864 404 929 246 q 621 161 799 228 l 619 161 q 467 258 526 197 q 376 407 408 319 q 168 178 308 246 l 81 297 q 256 466 201 351 q 310 724 310 581 l 310 739 l 143 739 l 143 858 l 593 858 z "},"ㅊ":{"ha":1214,"x_min":176,"x_max":1039,"o":"m 535 744 l 535 926 l 683 926 l 683 744 l 1000 744 l 1000 621 l 697 621 l 697 600 q 785 383 697 474 q 1039 261 872 293 l 971 144 q 744 242 838 175 q 608 410 651 310 q 472 242 564 310 q 246 144 379 175 l 176 261 q 431 383 343 293 q 518 600 518 474 l 518 621 l 218 621 l 218 744 l 535 744 z "},"ㅋ":{"ha":1214,"x_min":207,"x_max":1006,"o":"m 1006 856 l 1006 169 l 854 169 l 854 440 l 225 397 l 207 529 l 854 557 l 854 735 l 239 735 l 239 856 l 1006 856 z "},"ㅌ":{"ha":1214,"x_min":221,"x_max":1008,"o":"m 996 843 l 996 724 l 372 724 l 372 578 l 988 578 l 988 457 l 372 457 l 372 300 l 1008 300 l 1008 179 l 221 179 l 221 843 l 996 843 z "},"ㅍ":{"ha":1214,"x_min":193,"x_max":1031,"o":"m 1013 843 l 1013 722 l 875 722 l 875 292 l 1031 292 l 1031 171 l 193 171 l 193 292 l 350 292 l 350 722 l 211 722 l 211 843 l 1013 843 m 726 292 l 726 722 l 499 722 l 499 292 l 726 292 z "},"ㅎ":{"ha":1214,"x_min":203,"x_max":1019,"o":"m 539 781 l 539 938 l 689 938 l 689 781 l 1019 781 l 1019 657 l 203 657 l 203 781 l 539 781 m 297 349 q 338 471 297 417 q 451 555 379 525 q 614 585 524 585 q 774 555 703 585 q 887 471 846 525 q 928 349 928 417 q 887 228 928 281 q 774 145 846 175 q 614 115 703 115 q 451 145 524 115 q 338 228 379 175 q 297 349 297 281 m 451 349 q 497 269 451 299 q 614 240 543 240 q 729 269 685 240 q 774 349 774 299 q 728 428 774 399 q 614 458 683 458 q 497 428 543 458 q 451 349 451 399 z "},"ㅏ":{"ha":1214,"x_min":492,"x_max":907,"o":"m 642 1108 l 642 629 l 907 629 l 907 504 l 642 504 l 642 -111 l 492 -111 l 492 1108 l 642 1108 z "},"ㅐ":{"ha":1214,"x_min":385,"x_max":850,"o":"m 850 1113 l 850 -107 l 707 -107 l 707 515 l 526 515 l 526 -61 l 385 -61 l 385 1092 l 526 1092 l 526 639 l 707 639 l 707 1113 l 850 1113 z "},"ㅑ":{"ha":1214,"x_min":458,"x_max":869,"o":"m 608 1110 l 608 781 l 869 781 l 869 657 l 608 657 l 608 438 l 869 438 l 869 314 l 608 314 l 608 -108 l 458 -108 l 458 1110 l 608 1110 z "},"ㅒ":{"ha":1214,"x_min":385,"x_max":844,"o":"m 844 1108 l 844 -111 l 700 -111 l 700 333 l 526 333 l 526 -65 l 385 -65 l 385 1092 l 526 1092 l 526 803 l 700 803 l 700 1108 l 844 1108 m 700 456 l 700 678 l 526 678 l 526 456 l 700 456 z "},"ㅓ":{"ha":1214,"x_min":383,"x_max":806,"o":"m 806 1110 l 806 -108 l 654 -108 l 654 515 l 383 515 l 383 640 l 654 640 l 654 1110 l 806 1110 z "},"ㅔ":{"ha":1214,"x_min":296,"x_max":893,"o":"m 893 1110 l 893 -110 l 750 -110 l 750 1110 l 893 1110 m 296 639 l 494 639 l 494 1089 l 635 1089 l 635 -68 l 494 -68 l 494 515 l 296 515 l 296 639 z "},"ㅕ":{"ha":1214,"x_min":383,"x_max":808,"o":"m 808 1108 l 808 -111 l 658 -111 l 658 333 l 383 333 l 383 457 l 658 457 l 658 672 l 383 672 l 383 799 l 658 799 l 658 1108 l 808 1108 z "},"ㅖ":{"ha":1214,"x_min":286,"x_max":888,"o":"m 496 794 l 496 1088 l 636 1088 l 636 -69 l 496 -69 l 496 339 l 286 339 l 286 463 l 496 463 l 496 671 l 289 671 l 289 794 l 496 794 m 744 1108 l 888 1108 l 888 -111 l 744 -111 l 744 1108 z "},"ㅗ":{"ha":1214,"x_min":49,"x_max":1164,"o":"m 531 372 l 531 863 l 679 863 l 679 372 l 1164 372 l 1164 251 l 49 251 l 49 372 l 531 372 z "},"ㅘ":{"ha":1214,"x_min":49,"x_max":1178,"o":"m 504 729 l 504 315 q 799 339 651 321 l 813 231 q 65 182 521 182 l 49 306 q 358 310 192 306 l 358 729 l 504 729 m 858 1107 l 1008 1107 l 1008 625 l 1178 625 l 1178 500 l 1008 500 l 1008 -111 l 858 -111 l 858 1107 z "},"ㅙ":{"ha":1214,"x_min":60,"x_max":1122,"o":"m 450 732 l 450 347 q 675 365 586 354 l 686 256 q 75 215 464 215 l 60 338 q 311 342 172 338 l 311 732 l 450 732 m 729 1093 l 869 1093 l 869 621 l 979 621 l 979 1110 l 1122 1110 l 1122 -108 l 979 -108 l 979 497 l 869 497 l 869 -64 l 729 -64 l 729 1093 z "},"ㅚ":{"ha":1214,"x_min":106,"x_max":1083,"o":"m 571 721 l 571 342 q 865 367 756 351 l 876 257 q 521 219 707 228 q 124 210 335 210 l 106 333 q 422 336 308 333 l 422 721 l 571 721 m 932 1113 l 1083 1113 l 1083 -107 l 932 -107 l 932 1113 z "},"ㅛ":{"ha":1214,"x_min":54,"x_max":1169,"o":"m 321 339 l 321 856 l 468 856 l 468 339 l 756 339 l 756 856 l 903 856 l 903 339 l 1169 339 l 1169 217 l 54 217 l 54 339 l 321 339 z "},"ㅜ":{"ha":1214,"x_min":54,"x_max":1168,"o":"m 1168 714 l 1168 592 l 685 592 l 685 78 l 536 78 l 536 592 l 54 592 l 54 714 l 1168 714 z "},"ㅝ":{"ha":1214,"x_min":74,"x_max":1118,"o":"m 1118 1111 l 1118 -108 l 968 -108 l 968 233 l 699 233 l 699 350 l 968 350 l 968 1111 l 1118 1111 m 74 582 q 519 592 335 585 q 878 619 703 599 l 886 510 q 538 475 725 486 l 538 -15 l 386 -15 l 386 467 q 92 461 247 461 l 74 582 z "},"ㅞ":{"ha":1214,"x_min":64,"x_max":1139,"o":"m 1139 1113 l 1139 -107 l 994 -107 l 994 1113 l 1139 1113 m 64 574 q 392 581 219 574 q 694 604 565 588 l 706 501 q 461 474 614 486 l 461 -19 l 317 -19 l 317 464 q 79 457 171 457 l 64 574 m 556 354 l 756 354 l 756 1086 l 896 1086 l 896 -69 l 756 -69 l 756 236 l 556 236 l 556 354 z "},"ㅟ":{"ha":1214,"x_min":97,"x_max":1110,"o":"m 1110 1107 l 1110 -111 l 960 -111 l 960 1107 l 1110 1107 m 97 563 q 897 596 599 563 l 907 488 q 581 454 769 467 l 581 -17 l 431 -17 l 431 446 q 117 440 282 440 l 97 563 z "},"ㅠ":{"ha":1214,"x_min":49,"x_max":1164,"o":"m 1164 717 l 1164 596 l 885 596 l 885 78 l 733 78 l 733 596 l 471 596 l 471 78 l 322 78 l 322 596 l 49 596 l 49 717 l 1164 717 z "},"ㅡ":{"ha":1214,"x_min":49,"x_max":1164,"o":"m 1164 589 l 1164 465 l 49 465 l 49 589 l 1164 589 z "},"ㅢ":{"ha":1214,"x_min":82,"x_max":1094,"o":"m 1094 1103 l 1094 -117 l 944 -117 l 944 1103 l 1094 1103 m 82 386 q 506 392 313 386 q 872 419 700 399 l 881 310 q 512 274 703 283 q 100 265 321 265 l 82 386 z "},"ㅣ":{"ha":1214,"x_min":538,"x_max":688,"o":"m 688 1111 l 688 -108 l 538 -108 l 538 1111 l 688 1111 z "},"㈜":{"ha":1842,"x_min":114,"x_max":1728,"o":"m 285 -87 q 158 188 201 42 q 114 488 114 333 q 158 788 114 642 q 285 1063 201 933 l 438 1063 q 294 789 344 935 q 244 488 244 643 q 294 186 244 332 q 438 -87 344 40 l 285 -87 m 417 432 l 1419 432 l 1419 315 l 978 315 l 978 -110 l 850 -110 l 850 315 l 417 315 l 417 432 m 469 632 q 658 693 574 647 q 791 803 742 739 q 844 939 840 868 l 507 939 l 507 1053 l 1325 1053 l 1325 939 l 992 939 q 1044 803 996 868 q 1177 693 1093 739 q 1367 632 1261 647 l 1318 518 q 1074 612 1179 542 q 918 783 968 682 q 763 612 868 682 q 519 518 657 542 l 469 632 m 1406 -87 q 1548 185 1499 39 q 1597 488 1597 331 q 1548 790 1597 644 q 1406 1063 1499 936 l 1558 1063 q 1684 788 1640 933 q 1728 488 1728 643 q 1684 187 1728 332 q 1558 -87 1640 42 l 1406 -87 z "},"㉼":{"ha":1506,"x_min":124,"x_max":1382,"o":"m 124 474 q 208 789 124 644 q 438 1018 293 933 q 753 1103 582 1103 q 1068 1018 924 1103 q 1297 789 1213 933 q 1382 474 1382 644 q 1297 160 1382 304 q 1068 -69 1213 15 q 753 -154 924 -154 q 438 -69 582 -154 q 208 160 293 15 q 124 474 124 304 m 253 474 q 320 224 253 339 q 503 42 388 110 q 753 -26 618 -26 q 1003 42 888 -26 q 1185 224 1118 110 q 1253 474 1253 339 q 1185 724 1253 608 q 1003 906 1118 839 q 753 974 888 974 q 503 906 618 974 q 320 724 388 839 q 253 474 253 608 m 525 672 q 615 809 549 756 q 756 863 681 863 q 869 833 811 863 q 966 749 928 804 q 1004 622 1004 694 q 869 406 1004 504 q 835 374 844 386 q 821 345 825 363 q 817 292 817 328 l 683 292 q 710 424 683 375 q 789 511 736 472 q 850 567 829 542 q 871 622 871 592 q 837 701 871 674 q 756 729 803 729 q 694 706 721 729 q 653 636 667 682 l 525 672 m 674 157 q 694 210 674 189 q 749 231 714 231 q 803 210 783 231 q 822 157 822 189 q 803 103 822 125 q 749 82 783 82 q 694 103 714 82 q 674 157 674 125 z "},"가":{"ha":1214,"x_min":44,"x_max":1190,"o":"m 1007 1125 l 1007 640 l 1190 640 l 1190 515 l 1007 515 l 1007 -111 l 857 -111 l 857 1125 l 1007 1125 m 44 225 q 388 501 267 340 q 532 872 510 661 l 106 872 l 106 994 l 682 994 q 126 111 682 388 l 44 225 z "},"각":{"ha":1214,"x_min":38,"x_max":1185,"o":"m 1014 1125 l 1014 826 l 1185 826 l 1185 701 l 1014 701 l 1014 403 l 864 403 l 864 1125 l 1014 1125 m 38 525 q 372 686 250 581 q 513 929 493 792 l 96 929 l 96 1050 l 672 1050 q 522 646 672 811 q 99 408 372 481 l 38 525 m 199 350 l 1014 350 l 1014 -114 l 864 -114 l 864 229 l 199 229 l 199 350 z "},"간":{"ha":1214,"x_min":43,"x_max":1185,"o":"m 1014 1122 l 1014 767 l 1185 767 l 1185 643 l 1014 643 l 1014 232 l 863 232 l 863 1122 l 1014 1122 m 43 479 q 376 652 253 540 q 518 908 499 764 l 94 908 l 94 1031 l 681 1031 q 531 614 681 786 q 106 360 381 442 l 43 479 m 226 322 l 378 322 l 378 33 l 1061 33 l 1061 -89 l 226 -89 l 226 322 z "},"갇":{"ha":1214,"x_min":40,"x_max":1185,"o":"m 1014 1124 l 1014 838 l 1185 838 l 1185 715 l 1014 715 l 1014 429 l 864 429 l 864 1124 l 1014 1124 m 40 524 q 374 685 253 579 q 513 929 494 790 l 96 929 l 96 1049 l 674 1049 q 524 644 674 810 q 99 404 374 479 l 40 524 m 224 368 l 1021 368 l 1021 247 l 372 247 l 372 24 l 1044 24 l 1044 -97 l 224 -97 l 224 368 z "},"갈":{"ha":1214,"x_min":46,"x_max":1185,"o":"m 1014 1124 l 1014 865 l 1185 865 l 1185 743 l 1014 743 l 1014 503 l 864 503 l 864 1124 l 1014 1124 m 46 593 q 378 731 260 636 q 513 950 497 825 l 103 950 l 103 1071 l 679 1071 q 529 681 679 833 q 100 469 379 529 l 46 593 m 211 450 l 1014 450 l 1014 124 l 361 124 l 361 19 l 1051 19 l 1051 -100 l 214 -100 l 214 236 l 865 236 l 865 332 l 211 332 l 211 450 z "},"갉":{"ha":1214,"x_min":46,"x_max":1185,"o":"m 1014 1124 l 1014 857 l 1185 857 l 1185 735 l 1014 735 l 1014 471 l 864 471 l 864 1124 l 1014 1124 m 46 579 q 381 722 264 626 q 513 946 499 817 l 104 946 l 104 1067 l 681 1067 q 532 674 681 826 q 100 457 383 521 l 46 579 m 164 415 l 572 415 l 572 110 l 311 110 l 311 13 q 515 19 444 14 q 651 39 585 24 l 665 -72 q 506 -95 588 -90 q 244 -100 424 -100 l 165 -100 l 165 215 l 428 215 l 428 304 l 164 304 l 164 415 m 622 415 l 1014 415 l 1014 -106 l 865 -106 l 865 297 l 622 297 l 622 415 z "},"갊":{"ha":1214,"x_min":46,"x_max":1185,"o":"m 543 418 l 543 117 l 292 117 l 292 19 q 444 25 386 21 q 565 40 503 29 l 576 -74 q 424 -92 499 -87 q 215 -96 349 -96 l 146 -96 l 146 222 l 399 222 l 399 306 l 143 306 l 143 418 l 543 418 m 46 589 q 380 726 263 632 q 513 946 497 819 l 103 946 l 103 1067 l 681 1067 q 531 676 681 828 q 99 467 381 525 l 46 589 m 611 418 l 1014 418 l 1014 -99 l 611 -99 l 611 418 m 882 13 l 882 308 l 740 308 l 740 13 l 882 13 m 864 1124 l 1014 1124 l 1014 858 l 1185 858 l 1185 735 l 1014 735 l 1014 475 l 864 475 l 864 1124 z "},"갋":{"ha":1214,"x_min":46,"x_max":1185,"o":"m 1014 1124 l 1014 861 l 1185 861 l 1185 739 l 1014 739 l 1014 469 l 864 469 l 864 1124 l 1014 1124 m 46 596 q 381 733 263 639 q 513 953 499 828 l 103 953 l 103 1074 l 681 1074 q 531 683 681 835 q 99 472 381 532 l 46 596 m 146 410 l 542 410 l 542 113 l 293 113 l 293 13 q 443 18 383 14 q 565 35 503 22 l 575 -75 q 428 -93 500 -89 q 215 -97 356 -97 l 147 -97 l 147 211 l 397 211 l 397 297 l 146 297 l 146 410 m 606 422 l 740 422 l 740 282 l 878 282 l 878 422 l 1014 422 l 1014 -97 l 606 -97 l 606 422 m 878 19 l 878 169 l 740 169 l 740 19 l 878 19 z "},"감":{"ha":1214,"x_min":40,"x_max":1185,"o":"m 1014 1124 l 1014 840 l 1185 840 l 1185 718 l 1014 718 l 1014 429 l 864 429 l 864 1124 l 1014 1124 m 40 526 q 373 687 251 582 q 513 929 494 792 l 96 929 l 96 1049 l 674 1049 q 524 645 674 810 q 99 407 374 481 l 40 526 m 222 376 l 1014 376 l 1014 -97 l 222 -97 l 222 376 m 865 22 l 865 257 l 371 257 l 371 22 l 865 22 z "},"갑":{"ha":1214,"x_min":44,"x_max":1185,"o":"m 1014 1124 l 1014 846 l 1185 846 l 1185 724 l 1014 724 l 1014 456 l 863 456 l 863 1124 l 1014 1124 m 44 561 q 376 706 258 608 q 510 933 493 803 l 106 933 l 106 1054 l 676 1054 q 528 661 676 817 q 100 439 379 506 l 44 561 m 218 403 l 368 403 l 368 269 l 864 269 l 864 403 l 1014 403 l 1014 -97 l 218 -97 l 218 403 m 864 24 l 864 151 l 368 151 l 368 24 l 864 24 z "},"값":{"ha":1214,"x_min":44,"x_max":1185,"o":"m 1014 1125 l 1014 854 l 1185 854 l 1185 732 l 1014 732 l 1014 453 l 864 453 l 864 1125 l 1014 1125 m 44 561 q 376 707 258 610 q 510 935 493 804 l 101 935 l 101 1056 l 675 1056 q 528 661 675 817 q 100 439 381 506 l 44 561 m 174 389 l 313 389 l 313 260 l 471 260 l 471 389 l 610 389 l 610 10 q 757 138 707 57 q 807 307 807 218 l 807 403 l 949 403 l 949 308 q 1000 131 949 214 q 1153 6 1051 49 l 1075 -108 q 876 92 938 -50 q 679 -108 814 -50 l 610 -8 l 610 -94 l 174 -94 l 174 389 m 471 21 l 471 149 l 313 149 l 313 21 l 471 21 z "},"갓":{"ha":1214,"x_min":42,"x_max":1185,"o":"m 682 1032 q 531 614 682 786 q 104 361 381 442 l 42 482 q 377 653 254 542 q 518 910 500 765 l 106 910 l 106 1032 l 682 1032 m 158 13 q 368 82 278 32 q 507 202 458 132 q 556 351 556 272 l 556 394 l 703 394 l 703 351 q 751 203 703 274 q 890 83 800 133 q 1099 14 981 33 l 1040 -106 q 792 -13 899 -79 q 629 150 686 53 q 467 -15 574 53 q 218 -108 361 -82 l 158 13 m 883 1125 l 1032 1125 l 1032 796 l 1185 796 l 1185 672 l 1032 672 l 1032 307 l 883 307 l 883 1125 z "},"갔":{"ha":1214,"x_min":40,"x_max":1185,"o":"m 1014 1125 l 1014 836 l 1185 836 l 1185 713 l 1014 713 l 1014 435 l 864 435 l 864 1125 l 1014 1125 m 40 525 q 373 686 251 581 q 513 929 494 792 l 100 929 l 100 1050 l 676 1050 q 526 644 676 810 q 99 404 376 478 l 40 525 m 88 8 q 263 135 201 50 q 324 317 324 221 l 324 386 l 469 386 l 469 317 q 507 158 469 233 q 621 33 544 83 q 736 164 697 86 q 775 317 775 242 l 775 386 l 924 386 l 924 317 q 983 131 924 214 q 1158 8 1042 47 l 1083 -100 q 939 -12 999 -69 q 847 121 879 44 q 760 -19 817 42 q 622 -112 704 -79 q 396 118 458 -49 q 304 -12 363 43 q 163 -100 246 -68 l 88 8 z "},"강":{"ha":1214,"x_min":43,"x_max":1185,"o":"m 1014 1125 l 1014 822 l 1185 822 l 1185 697 l 1014 697 l 1014 399 l 864 399 l 864 1125 l 1014 1125 m 43 500 q 372 667 250 558 q 514 917 494 776 l 99 917 l 99 1039 l 676 1039 q 527 627 676 797 q 104 379 378 457 l 43 500 m 208 136 q 259 267 208 211 q 403 353 310 322 q 618 383 496 383 q 833 353 740 383 q 977 267 926 322 q 1028 136 1028 211 q 977 5 1028 61 q 833 -82 926 -51 q 618 -112 740 -112 q 403 -82 496 -112 q 259 5 310 -51 q 208 136 208 61 m 356 136 q 426 41 356 75 q 618 7 496 7 q 810 41 740 7 q 881 136 881 75 q 811 232 881 199 q 618 265 742 265 q 426 231 496 265 q 356 136 356 197 z "},"갖":{"ha":1214,"x_min":44,"x_max":1185,"o":"m 1014 1125 l 1014 829 l 1185 829 l 1185 704 l 1014 704 l 1014 431 l 864 431 l 864 1125 l 1014 1125 m 44 543 q 376 695 258 594 q 511 929 494 796 l 100 929 l 100 1050 l 676 1050 q 528 651 676 811 q 99 421 379 492 l 44 543 m 163 6 q 356 58 272 21 q 487 148 439 96 q 542 257 535 200 l 211 257 l 211 375 l 1031 375 l 1031 257 l 703 257 q 759 149 711 201 q 890 58 807 96 q 1082 4 974 19 l 1026 -111 q 781 -31 886 -90 q 622 114 676 29 q 465 -29 569 29 q 218 -110 360 -87 l 163 6 z "},"갗":{"ha":1214,"x_min":46,"x_max":1185,"o":"m 678 1049 q 529 657 678 811 q 100 440 381 503 l 46 563 q 381 704 263 608 q 514 928 499 800 l 103 928 l 103 1049 l 678 1049 m 157 3 q 353 51 268 17 q 485 135 438 86 q 542 240 533 185 l 200 240 l 200 358 l 543 358 l 543 492 l 694 492 l 694 358 l 1035 358 l 1035 240 l 697 240 q 753 135 706 185 q 885 51 801 86 q 1081 3 969 17 l 1026 -110 q 780 -35 886 -90 q 619 99 674 19 q 460 -36 565 18 q 213 -110 354 -90 l 157 3 m 864 1125 l 1014 1125 l 1014 851 l 1185 851 l 1185 729 l 1014 729 l 1014 447 l 864 447 l 864 1125 z "},"같":{"ha":1214,"x_min":47,"x_max":1185,"o":"m 1013 1124 l 1013 857 l 1185 857 l 1185 732 l 1013 732 l 1013 472 l 864 472 l 864 1124 l 1013 1124 m 47 569 q 384 702 267 610 q 514 918 501 794 l 103 918 l 103 1040 l 682 1040 q 535 654 682 803 q 107 449 388 506 l 47 569 m 217 419 l 1019 419 l 1019 308 l 368 308 l 368 218 l 1006 218 l 1006 110 l 368 110 l 368 14 l 1044 14 l 1044 -97 l 217 -97 l 217 419 z "},"갚":{"ha":1214,"x_min":43,"x_max":1185,"o":"m 1014 1124 l 1014 849 l 1185 849 l 1185 725 l 1014 725 l 1014 447 l 864 447 l 864 1124 l 1014 1124 m 43 554 q 375 701 253 601 q 513 928 497 800 l 107 928 l 107 1047 l 681 1047 q 528 653 681 811 q 100 431 375 496 l 43 554 m 204 25 l 372 25 l 372 272 l 214 272 l 214 392 l 1040 392 l 1040 272 l 883 272 l 883 25 l 1054 25 l 1054 -94 l 204 -94 l 204 25 m 736 25 l 736 272 l 521 272 l 521 25 l 736 25 z "},"갛":{"ha":1214,"x_min":46,"x_max":1185,"o":"m 1014 1125 l 1014 865 l 1185 865 l 1185 742 l 1014 742 l 1014 479 l 864 479 l 864 1125 l 1014 1125 m 46 574 q 382 713 268 619 q 511 939 496 807 l 96 939 l 96 1058 l 676 1058 q 99 453 676 579 l 46 574 m 189 404 l 547 404 l 547 532 l 696 532 l 696 404 l 1053 404 l 1053 289 l 189 289 l 189 404 m 272 67 q 365 197 272 150 q 621 243 457 243 q 876 197 785 243 q 968 67 968 150 q 876 -65 968 -18 q 621 -112 785 -112 q 365 -65 457 -112 q 272 67 272 -18 m 414 67 q 621 -6 414 -6 q 826 67 826 -6 q 773 119 826 101 q 621 138 719 138 q 467 119 521 138 q 414 67 414 101 z "},"개":{"ha":1214,"x_min":40,"x_max":1101,"o":"m 1101 1125 l 1101 -112 l 958 -112 l 958 524 l 825 524 l 825 -56 l 683 -56 l 683 1092 l 825 1092 l 825 644 l 958 644 l 958 1125 l 1101 1125 m 40 251 q 322 508 229 363 q 432 847 415 654 l 96 847 l 96 968 l 579 968 q 476 493 579 697 q 126 146 374 289 l 40 251 z "},"객":{"ha":1214,"x_min":44,"x_max":1096,"o":"m 1096 1124 l 1096 399 l 953 399 l 953 706 l 824 706 l 824 404 l 683 404 l 683 1101 l 824 1101 l 824 828 l 953 828 l 953 1124 l 1096 1124 m 44 497 q 429 914 393 635 l 99 914 l 99 1035 l 583 1035 q 115 389 583 576 l 44 497 m 250 344 l 1096 344 l 1096 -114 l 947 -114 l 947 224 l 250 224 l 250 344 z "},"갠":{"ha":1214,"x_min":44,"x_max":1132,"o":"m 1096 1124 l 1096 201 l 953 201 l 953 639 l 824 639 l 824 239 l 682 239 l 682 1100 l 824 1100 l 824 761 l 953 761 l 953 1124 l 1096 1124 m 44 454 q 314 633 221 526 q 425 883 407 740 l 100 883 l 100 1003 l 581 1003 q 467 608 581 772 q 118 344 353 444 l 44 454 m 268 310 l 419 310 l 419 38 l 1132 38 l 1132 -82 l 268 -82 l 268 310 z "},"갣":{"ha":1214,"x_min":50,"x_max":1117,"o":"m 1104 344 l 1104 225 l 422 225 l 422 24 l 1117 24 l 1117 -97 l 272 -97 l 272 344 l 1104 344 m 50 496 q 319 669 226 565 q 429 914 413 774 l 100 914 l 100 1035 l 585 1035 q 472 644 585 804 q 124 386 358 483 l 50 496 m 682 1101 l 824 1101 l 824 826 l 953 826 l 953 1124 l 1096 1124 l 1096 406 l 953 406 l 953 706 l 824 706 l 824 415 l 682 415 l 682 1101 z "},"갤":{"ha":1214,"x_min":49,"x_max":1139,"o":"m 1096 1124 l 1096 500 l 951 500 l 951 742 l 824 742 l 824 508 l 682 508 l 682 1100 l 824 1100 l 824 861 l 951 861 l 951 1124 l 1096 1124 m 49 565 q 422 931 388 676 l 104 931 l 104 1050 l 581 1050 q 466 685 581 832 q 119 456 351 538 l 49 565 m 265 446 l 1096 446 l 1096 125 l 417 125 l 417 22 l 1139 22 l 1139 -97 l 269 -97 l 269 238 l 949 238 l 949 329 l 265 329 l 265 446 z "},"갬":{"ha":1214,"x_min":51,"x_max":1096,"o":"m 1096 1124 l 1096 417 l 953 417 l 953 713 l 824 713 l 824 425 l 682 425 l 682 1100 l 824 1100 l 824 832 l 953 832 l 953 1124 l 1096 1124 m 51 496 q 320 669 228 565 q 429 914 413 774 l 101 914 l 101 1035 l 585 1035 q 472 644 585 804 q 124 386 360 483 l 51 496 m 271 358 l 1096 358 l 1096 -93 l 271 -93 l 271 358 m 949 26 l 949 240 l 418 240 l 418 26 l 949 26 z "},"갭":{"ha":1214,"x_min":50,"x_max":1096,"o":"m 1096 1124 l 1096 457 l 953 457 l 953 719 l 824 719 l 824 464 l 683 464 l 683 1100 l 824 1100 l 824 840 l 953 840 l 953 1124 l 1096 1124 m 50 519 q 316 688 224 588 q 426 925 408 789 l 104 925 l 104 1044 l 582 1044 q 469 660 582 818 q 122 410 356 503 l 50 519 m 271 401 l 421 401 l 421 275 l 949 275 l 949 401 l 1096 401 l 1096 -93 l 271 -93 l 271 401 m 949 26 l 949 157 l 421 157 l 421 26 l 949 26 z "},"갯":{"ha":1214,"x_min":47,"x_max":1158,"o":"m 586 1015 q 474 615 586 782 q 124 346 361 447 l 47 456 q 320 639 226 529 q 431 896 414 749 l 103 896 l 103 1015 l 586 1015 m 200 11 q 412 76 319 28 q 554 191 504 124 q 604 332 604 258 l 604 375 l 754 375 l 754 332 q 804 191 754 258 q 947 76 854 124 q 1158 11 1039 28 l 1101 -108 q 846 -19 956 -85 q 679 142 736 47 q 511 -19 621 46 q 257 -108 401 -85 l 200 11 m 682 1101 l 824 1101 l 824 814 l 951 814 l 951 1124 l 1096 1124 l 1096 317 l 951 317 l 951 690 l 824 690 l 824 432 l 682 432 l 682 1101 z "},"갰":{"ha":1214,"x_min":46,"x_max":1182,"o":"m 1094 1124 l 1094 425 l 951 425 l 951 704 l 822 704 l 822 429 l 682 429 l 682 1101 l 822 1101 l 822 825 l 951 825 l 951 1124 l 1094 1124 m 46 503 q 425 913 389 638 l 100 913 l 100 1035 l 582 1035 q 119 392 582 579 l 46 503 m 108 6 q 285 131 224 46 q 347 311 347 215 l 347 376 l 493 376 l 493 311 q 531 155 493 229 q 643 31 568 81 q 759 160 719 85 q 799 311 799 236 l 799 376 l 946 376 l 946 311 q 1006 126 946 210 q 1182 6 1067 43 l 1110 -104 q 962 -17 1022 -74 q 869 118 901 40 q 783 -22 839 40 q 647 -117 726 -83 q 419 113 485 -54 q 325 -17 385 39 q 182 -104 265 -74 l 108 6 z "},"갱":{"ha":1214,"x_min":44,"x_max":1107,"o":"m 1096 1124 l 1096 375 l 953 375 l 953 694 l 824 694 l 824 417 l 683 417 l 683 1101 l 824 1101 l 824 818 l 953 818 l 953 1124 l 1096 1124 m 44 481 q 429 907 393 621 l 106 907 l 106 1029 l 585 1029 q 118 369 585 564 l 44 481 m 258 129 q 310 255 258 201 q 458 337 363 308 q 683 365 554 365 q 908 337 813 365 q 1056 255 1004 308 q 1107 129 1107 201 q 1056 2 1107 56 q 908 -80 1004 -51 q 683 -108 813 -108 q 458 -80 554 -108 q 310 3 363 -51 q 258 129 258 57 m 410 129 q 481 40 410 71 q 683 8 553 8 q 884 40 811 8 q 957 129 957 71 q 885 219 957 188 q 683 250 813 250 q 481 219 553 250 q 410 129 410 188 z "},"갸":{"ha":1214,"x_min":44,"x_max":1189,"o":"m 1007 1125 l 1007 807 l 1189 807 l 1189 682 l 1007 682 l 1007 439 l 1189 439 l 1189 314 l 1007 314 l 1007 -111 l 857 -111 l 857 1125 l 1007 1125 m 44 225 q 388 501 267 340 q 532 872 510 661 l 106 872 l 106 994 l 682 994 q 126 111 682 388 l 44 225 z "},"갹":{"ha":1214,"x_min":38,"x_max":1185,"o":"m 1014 1125 l 1014 951 l 1185 951 l 1185 828 l 1014 828 l 1014 685 l 1185 685 l 1185 565 l 1014 565 l 1014 403 l 864 403 l 864 1125 l 1014 1125 m 38 525 q 372 686 250 581 q 513 929 493 792 l 96 929 l 96 1050 l 672 1050 q 522 646 672 811 q 99 408 372 481 l 38 525 m 199 350 l 1014 350 l 1014 -114 l 864 -114 l 864 229 l 199 229 l 199 350 z "},"갼":{"ha":1214,"x_min":43,"x_max":1185,"o":"m 1014 1122 l 1014 906 l 1185 906 l 1185 783 l 1014 783 l 1014 604 l 1185 604 l 1185 482 l 1014 482 l 1014 232 l 863 232 l 863 1122 l 1014 1122 m 43 479 q 376 652 253 540 q 518 908 499 764 l 94 908 l 94 1031 l 681 1031 q 531 614 681 786 q 106 360 381 442 l 43 479 m 226 322 l 378 322 l 378 33 l 1061 33 l 1061 -89 l 226 -89 l 226 322 z "},"걀":{"ha":1214,"x_min":46,"x_max":1183,"o":"m 1014 1124 l 1014 986 l 1183 986 l 1183 868 l 1014 868 l 1014 746 l 1183 746 l 1183 625 l 1014 625 l 1014 503 l 864 503 l 864 1124 l 1014 1124 m 46 593 q 378 731 260 636 q 513 950 497 825 l 103 950 l 103 1071 l 679 1071 q 529 681 679 833 q 100 469 379 529 l 46 593 m 211 450 l 1014 450 l 1014 124 l 361 124 l 361 19 l 1051 19 l 1051 -100 l 214 -100 l 214 236 l 865 236 l 865 332 l 211 332 l 211 450 z "},"걋":{"ha":1214,"x_min":42,"x_max":1183,"o":"m 1014 1125 l 1014 926 l 1183 926 l 1183 803 l 1014 803 l 1014 633 l 1183 633 l 1183 511 l 1014 511 l 1014 307 l 864 307 l 864 1125 l 1014 1125 m 42 482 q 377 653 254 542 q 518 910 500 765 l 106 910 l 106 1032 l 682 1032 q 532 615 682 786 q 104 361 382 443 l 42 482 m 158 11 q 368 81 278 31 q 507 201 458 131 q 556 350 556 271 l 556 393 l 703 393 l 703 350 q 751 202 703 272 q 890 82 800 132 q 1099 13 981 32 l 1039 -106 q 792 -13 899 -79 q 631 149 686 53 q 467 -15 574 51 q 218 -108 360 -82 l 158 11 z "},"걍":{"ha":1214,"x_min":43,"x_max":1182,"o":"m 1014 1125 l 1014 944 l 1182 944 l 1182 822 l 1014 822 l 1014 681 l 1182 681 l 1182 557 l 1014 557 l 1014 399 l 864 399 l 864 1125 l 1014 1125 m 43 500 q 372 667 250 558 q 514 917 494 776 l 99 917 l 99 1039 l 676 1039 q 527 627 676 797 q 104 379 378 457 l 43 500 m 208 136 q 259 267 208 211 q 403 353 310 322 q 618 383 496 383 q 833 353 740 383 q 977 267 926 322 q 1028 136 1028 211 q 977 5 1028 61 q 833 -82 926 -51 q 618 -112 740 -112 q 403 -82 496 -112 q 259 5 310 -51 q 208 136 208 61 m 357 136 q 426 41 357 75 q 618 7 496 7 q 810 41 740 7 q 881 136 881 75 q 811 232 881 199 q 618 265 742 265 q 426 232 496 265 q 357 136 357 199 z "},"걔":{"ha":1214,"x_min":40,"x_max":1101,"o":"m 1101 1125 l 1101 -112 l 958 -112 l 958 347 l 825 347 l 825 -56 l 683 -56 l 683 1092 l 825 1092 l 825 815 l 958 815 l 958 1125 l 1101 1125 m 40 251 q 322 508 229 363 q 432 847 415 654 l 96 847 l 96 968 l 579 968 q 476 493 579 697 q 126 146 374 289 l 40 251 m 958 468 l 958 693 l 825 693 l 825 468 l 958 468 z "},"걘":{"ha":1214,"x_min":44,"x_max":1132,"o":"m 1096 1124 l 1096 201 l 953 201 l 953 481 l 824 481 l 824 239 l 682 239 l 682 1100 l 824 1100 l 824 897 l 953 897 l 953 1124 l 1096 1124 m 44 454 q 314 633 221 526 q 425 883 407 740 l 100 883 l 100 1003 l 581 1003 q 467 608 581 772 q 118 344 353 444 l 44 454 m 268 310 l 419 310 l 419 38 l 1132 38 l 1132 -82 l 268 -82 l 268 310 m 953 600 l 953 776 l 824 776 l 824 600 l 953 600 z "},"걜":{"ha":1214,"x_min":49,"x_max":1139,"o":"m 1096 1124 l 1096 500 l 951 500 l 951 625 l 824 625 l 824 508 l 682 508 l 682 1100 l 824 1100 l 824 971 l 951 971 l 951 1124 l 1096 1124 m 49 563 q 422 931 388 678 l 104 931 l 104 1051 l 581 1051 q 466 685 581 832 q 119 456 351 538 l 49 563 m 265 444 l 1096 444 l 1096 121 l 417 121 l 417 17 l 1139 17 l 1139 -101 l 269 -101 l 269 232 l 949 232 l 949 328 l 265 328 l 265 444 m 951 742 l 951 856 l 824 856 l 824 742 l 951 742 z "},"걥":{"ha":1214,"x_min":50,"x_max":1096,"o":"m 1096 1124 l 1096 457 l 953 457 l 953 597 l 824 597 l 824 464 l 683 464 l 683 1100 l 824 1100 l 824 965 l 953 965 l 953 1124 l 1096 1124 m 50 519 q 316 688 224 588 q 426 925 408 789 l 104 925 l 104 1044 l 582 1044 q 469 660 582 818 q 122 410 356 503 l 50 519 m 271 401 l 421 401 l 421 275 l 949 275 l 949 401 l 1096 401 l 1096 -93 l 271 -93 l 271 401 m 949 26 l 949 157 l 421 157 l 421 26 l 949 26 m 953 717 l 953 844 l 824 844 l 824 717 l 953 717 z "},"거":{"ha":1214,"x_min":40,"x_max":1074,"o":"m 1074 1124 l 1074 -114 l 925 -114 l 925 518 l 664 518 l 664 642 l 925 642 l 925 1124 l 1074 1124 m 40 226 q 388 501 274 342 q 519 874 501 660 l 96 874 l 96 994 l 671 994 q 545 478 671 699 q 119 110 419 258 l 40 226 z "},"걱":{"ha":1214,"x_min":60,"x_max":1075,"o":"m 686 1049 q 539 647 686 813 q 119 406 392 482 l 60 524 q 385 686 267 582 q 524 929 504 790 l 126 929 l 126 1049 l 686 1049 m 240 351 l 1075 351 l 1075 -108 l 925 -108 l 925 231 l 240 231 l 240 351 m 694 813 l 925 813 l 925 1124 l 1075 1124 l 1075 403 l 925 403 l 925 690 l 694 690 l 694 813 z "},"건":{"ha":1214,"x_min":64,"x_max":1106,"o":"m 1075 1124 l 1075 217 l 924 217 l 924 632 l 688 632 l 688 756 l 924 756 l 924 1124 l 1075 1124 m 64 465 q 390 646 265 531 q 535 908 514 761 l 128 908 l 128 1031 l 696 1031 q 546 609 696 786 q 126 346 396 432 l 64 465 m 278 306 l 428 306 l 428 33 l 1106 33 l 1106 -89 l 278 -89 l 278 306 z "},"걷":{"ha":1214,"x_min":57,"x_max":1100,"o":"m 682 1049 q 535 645 682 811 q 115 403 388 479 l 57 521 q 383 685 264 579 q 522 929 503 790 l 122 929 l 122 1049 l 682 1049 m 268 368 l 1078 368 l 1078 247 l 419 247 l 419 24 l 1100 24 l 1100 -97 l 268 -97 l 268 368 m 688 814 l 924 814 l 924 1124 l 1075 1124 l 1075 429 l 924 429 l 924 692 l 688 692 l 688 814 z "},"걸":{"ha":1214,"x_min":64,"x_max":1106,"o":"m 1074 1124 l 1074 500 l 924 500 l 924 728 l 686 728 l 686 846 l 924 846 l 924 1124 l 1074 1124 m 64 588 q 383 730 271 636 q 513 951 496 824 l 133 951 l 133 1071 l 674 1071 q 531 687 674 838 q 115 469 388 536 l 64 588 m 267 449 l 1074 449 l 1074 124 l 419 124 l 419 19 l 1106 19 l 1106 -100 l 269 -100 l 269 236 l 925 236 l 925 331 l 267 331 l 267 449 z "},"걺":{"ha":1214,"x_min":64,"x_max":1075,"o":"m 1075 1124 l 1075 482 l 925 482 l 925 718 l 690 718 l 690 839 l 925 839 l 925 1124 l 1075 1124 m 64 582 q 390 724 274 629 q 522 947 506 818 l 128 947 l 128 1068 l 683 1068 q 538 681 683 832 q 118 465 393 529 l 64 582 m 194 429 l 603 429 l 603 121 l 342 121 l 342 18 q 496 24 435 19 q 622 40 557 28 l 635 -74 q 483 -93 557 -89 q 265 -97 408 -97 l 196 -97 l 196 226 l 456 226 l 456 317 l 194 317 l 194 429 m 669 429 l 1075 429 l 1075 -97 l 669 -97 l 669 429 m 944 14 l 944 318 l 800 318 l 800 14 l 944 14 z "},"검":{"ha":1214,"x_min":57,"x_max":1075,"o":"m 683 1049 q 536 647 683 813 q 117 406 389 482 l 57 524 q 383 687 264 582 q 522 929 503 792 l 122 929 l 122 1049 l 683 1049 m 268 375 l 1075 375 l 1075 -97 l 268 -97 l 268 375 m 926 22 l 926 257 l 417 257 l 417 22 l 926 22 m 689 821 l 925 821 l 925 1124 l 1075 1124 l 1075 428 l 925 428 l 925 697 l 689 697 l 689 821 z "},"겁":{"ha":1214,"x_min":61,"x_max":1074,"o":"m 1074 1124 l 1074 457 l 925 457 l 925 707 l 688 707 l 688 829 l 925 829 l 925 1124 l 1074 1124 m 61 544 q 391 696 275 597 q 524 931 507 794 l 126 931 l 126 1051 l 686 1051 q 541 655 686 813 q 118 425 396 497 l 61 544 m 265 399 l 414 399 l 414 267 l 926 267 l 926 399 l 1074 399 l 1074 -99 l 265 -99 l 265 399 m 926 22 l 926 151 l 414 151 l 414 22 l 926 22 z "},"것":{"ha":1214,"x_min":65,"x_max":1136,"o":"m 1074 1124 l 1074 296 l 924 296 l 924 665 l 689 665 l 689 788 l 924 788 l 924 1124 l 1074 1124 m 65 478 q 389 651 275 542 q 522 908 503 760 l 128 908 l 128 1029 l 682 1029 q 128 360 682 536 l 65 478 m 193 10 q 403 79 313 29 q 542 199 493 129 q 590 347 590 269 l 590 394 l 740 394 l 740 347 q 789 200 740 269 q 927 81 838 131 q 1136 11 1017 31 l 1075 -107 q 827 -15 933 -81 q 665 147 721 51 q 501 -17 608 50 q 250 -110 393 -83 l 193 10 z "},"겄":{"ha":1214,"x_min":56,"x_max":1178,"o":"m 682 1049 q 535 647 682 813 q 115 406 388 482 l 56 524 q 381 686 263 582 q 519 929 500 790 l 125 929 l 125 1049 l 682 1049 m 104 10 q 279 136 218 51 q 340 317 340 221 l 340 388 l 488 388 l 488 317 q 525 160 488 235 q 638 35 563 85 q 755 165 715 88 q 794 317 794 242 l 794 388 l 942 388 l 942 317 q 1002 131 942 214 q 1178 10 1063 47 l 1104 -100 q 958 -12 1018 -69 q 865 121 897 44 q 777 -17 833 43 q 640 -111 721 -78 q 501 -22 557 -81 q 414 117 444 38 q 322 -13 381 43 q 179 -100 263 -69 l 104 10 m 689 821 l 922 821 l 922 1124 l 1074 1124 l 1074 428 l 922 428 l 922 699 l 689 699 l 689 821 z "},"겅":{"ha":1214,"x_min":58,"x_max":1082,"o":"m 1075 1124 l 1075 404 l 925 404 l 925 669 l 694 669 l 694 793 l 925 793 l 925 1124 l 1075 1124 m 58 503 q 389 667 271 560 q 524 915 507 774 l 128 915 l 128 1036 l 686 1036 q 542 627 686 792 q 119 383 397 463 l 58 503 m 254 142 q 306 273 254 217 q 451 359 357 329 q 669 389 544 389 q 886 359 793 389 q 1031 273 979 329 q 1082 142 1082 217 q 1031 10 1082 67 q 886 -76 979 -46 q 669 -106 793 -106 q 451 -76 544 -106 q 306 10 357 -46 q 254 142 254 67 m 403 142 q 474 46 403 79 q 669 13 544 13 q 863 46 793 13 q 933 142 933 79 q 863 238 933 204 q 669 271 793 271 q 474 238 544 271 q 403 142 403 204 z "},"겆":{"ha":1214,"x_min":61,"x_max":1132,"o":"m 701 1049 q 549 649 701 810 q 115 421 397 489 l 61 540 q 400 693 278 592 q 539 929 522 794 l 126 929 l 126 1049 l 701 1049 m 211 6 q 406 56 322 19 q 538 143 490 92 q 590 250 585 194 l 263 250 l 263 371 l 1085 371 l 1085 250 l 751 250 q 805 144 757 194 q 937 56 853 93 q 1132 6 1021 19 l 1078 -108 q 831 -32 936 -89 q 671 107 725 25 q 513 -31 618 25 q 265 -108 408 -87 l 211 6 m 688 811 l 924 811 l 924 1124 l 1074 1124 l 1074 428 l 924 428 l 924 689 l 688 689 l 688 811 z "},"겉":{"ha":1214,"x_min":63,"x_max":1100,"o":"m 1079 418 l 1079 308 l 422 308 l 422 218 l 1058 218 l 1058 110 l 422 110 l 422 15 l 1100 15 l 1100 -96 l 272 -96 l 272 418 l 1079 418 m 63 556 q 391 706 275 607 q 524 939 507 804 l 124 939 l 124 1060 l 686 1060 q 541 664 686 821 q 118 438 396 507 l 63 556 m 690 829 l 924 829 l 924 1124 l 1075 1124 l 1075 469 l 924 469 l 924 706 l 690 706 l 690 829 z "},"겊":{"ha":1214,"x_min":61,"x_max":1099,"o":"m 686 1049 q 538 652 686 814 q 119 417 389 490 l 61 536 q 385 691 265 589 q 524 928 504 793 l 125 928 l 125 1049 l 686 1049 m 231 26 l 406 26 l 406 268 l 243 268 l 243 386 l 1085 386 l 1085 268 l 921 268 l 921 26 l 1099 26 l 1099 -93 l 231 -93 l 231 26 m 774 26 l 774 268 l 553 268 l 553 26 l 774 26 m 686 815 l 924 815 l 924 1124 l 1075 1124 l 1075 444 l 924 444 l 924 692 l 686 692 l 686 815 z "},"겋":{"ha":1214,"x_min":58,"x_max":1093,"o":"m 671 1058 q 531 667 671 818 q 111 450 392 517 l 58 567 q 383 710 272 615 q 510 939 494 806 l 128 939 l 128 1058 l 671 1058 m 226 397 l 586 397 l 586 531 l 738 531 l 738 397 l 1093 397 l 1093 283 l 226 283 l 226 397 m 313 64 q 406 192 313 146 q 661 238 499 238 q 916 192 824 238 q 1008 64 1008 146 q 916 -65 1008 -19 q 661 -111 824 -111 q 406 -65 499 -111 q 313 64 313 -19 m 469 64 q 661 -7 469 -7 q 851 64 851 -7 q 801 115 851 97 q 661 133 751 133 q 520 115 571 133 q 469 64 469 97 m 686 849 l 924 849 l 924 1125 l 1075 1125 l 1075 471 l 924 471 l 924 728 l 686 728 l 686 849 z "},"게":{"ha":1214,"x_min":40,"x_max":1106,"o":"m 1106 1125 l 1106 -112 l 963 -112 l 963 1125 l 1106 1125 m 40 254 q 323 514 228 367 q 433 853 418 661 l 101 853 l 101 974 l 582 974 q 533 636 582 782 l 706 636 l 706 1096 l 844 1096 l 844 -53 l 706 -53 l 706 517 l 485 517 q 125 149 374 293 l 40 254 z "},"겐":{"ha":1214,"x_min":46,"x_max":1142,"o":"m 1096 1124 l 1096 201 l 953 201 l 953 1124 l 1096 1124 m 46 457 q 431 888 394 599 l 111 888 l 111 1008 l 586 1008 q 540 739 586 860 l 704 739 l 704 1100 l 844 1100 l 844 235 l 704 235 l 704 618 l 476 618 q 121 346 360 447 l 46 457 m 282 315 l 433 315 l 433 33 l 1142 33 l 1142 -89 l 282 -89 l 282 315 z "},"겔":{"ha":1214,"x_min":54,"x_max":1139,"o":"m 1096 1124 l 1096 500 l 951 500 l 951 1124 l 1096 1124 m 54 563 q 319 712 228 619 q 429 931 411 804 l 114 931 l 114 1051 l 588 1051 q 554 833 588 932 l 704 833 l 704 1099 l 844 1099 l 844 504 l 704 504 l 704 714 l 494 714 q 126 454 382 543 l 54 563 m 265 444 l 1096 444 l 1096 124 l 418 124 l 418 22 l 1139 22 l 1139 -97 l 269 -97 l 269 235 l 946 235 l 946 328 l 265 328 l 265 444 z "},"겜":{"ha":1214,"x_min":56,"x_max":1096,"o":"m 588 1035 q 550 794 588 903 l 706 794 l 706 1099 l 844 1099 l 844 424 l 706 424 l 706 674 l 494 674 q 131 386 382 492 l 56 496 q 433 913 396 632 l 114 913 l 114 1035 l 588 1035 m 272 357 l 1096 357 l 1096 -93 l 272 -93 l 272 357 m 949 26 l 949 239 l 419 239 l 419 26 l 949 26 m 953 1124 l 1096 1124 l 1096 413 l 953 413 l 953 1124 z "},"겝":{"ha":1214,"x_min":53,"x_max":1096,"o":"m 583 1039 q 549 807 583 910 l 706 807 l 706 1099 l 844 1099 l 844 454 l 706 454 l 706 686 l 490 686 q 124 417 381 514 l 53 526 q 322 688 231 590 q 428 919 413 785 l 117 919 l 117 1039 l 583 1039 m 271 396 l 421 396 l 421 268 l 949 268 l 949 396 l 1096 396 l 1096 -93 l 271 -93 l 271 396 m 949 26 l 949 153 l 421 153 l 421 26 l 949 26 m 953 1124 l 1096 1124 l 1096 443 l 953 443 l 953 1124 z "},"겟":{"ha":1214,"x_min":49,"x_max":1154,"o":"m 1096 1124 l 1096 313 l 951 313 l 951 1124 l 1096 1124 m 49 456 q 317 640 224 531 q 429 896 411 749 l 107 896 l 107 1015 l 585 1015 q 550 775 585 883 l 704 775 l 704 1099 l 844 1099 l 844 418 l 704 418 l 704 654 l 496 654 q 125 344 386 461 l 49 456 m 190 11 q 403 76 311 28 q 546 191 496 124 q 596 332 596 258 l 596 376 l 747 376 l 747 332 q 798 191 747 258 q 941 76 849 124 q 1154 11 1033 28 l 1097 -107 q 840 -18 951 -83 q 672 143 729 47 q 503 -18 614 47 q 247 -107 392 -83 l 190 11 z "},"겠":{"ha":1214,"x_min":51,"x_max":1182,"o":"m 589 1036 q 549 789 589 897 l 704 789 l 704 1099 l 843 1099 l 843 435 l 704 435 l 704 668 l 490 668 q 126 385 375 490 l 51 496 q 320 670 226 567 q 433 914 414 774 l 113 914 l 113 1036 l 589 1036 m 108 6 q 285 131 224 46 q 347 311 347 215 l 347 376 l 493 376 l 493 311 q 531 155 493 229 q 643 31 568 81 q 759 160 719 85 q 799 311 799 236 l 799 376 l 946 376 l 946 311 q 1006 126 946 210 q 1182 6 1067 43 l 1110 -104 q 962 -17 1022 -74 q 869 118 901 40 q 783 -22 839 40 q 647 -117 726 -83 q 419 113 485 -54 q 325 -17 385 39 q 182 -104 265 -74 l 108 6 m 951 1124 l 1094 1124 l 1094 417 l 951 417 l 951 1124 z "},"겡":{"ha":1214,"x_min":49,"x_max":1110,"o":"m 589 1029 q 553 789 589 901 l 706 789 l 706 1099 l 844 1099 l 844 417 l 706 417 l 706 668 l 497 668 q 122 369 383 479 l 49 481 q 319 658 225 551 q 433 907 414 764 l 108 907 l 108 1029 l 589 1029 m 261 128 q 313 253 261 200 q 461 335 365 307 q 686 364 557 364 q 910 335 815 364 q 1058 253 1006 307 q 1110 128 1110 200 q 1058 2 1110 56 q 910 -80 1006 -51 q 686 -108 814 -108 q 462 -80 558 -108 q 313 2 365 -51 q 261 128 261 56 m 413 128 q 485 39 413 71 q 686 7 557 7 q 886 39 814 7 q 958 128 958 71 q 887 219 958 188 q 686 250 815 250 q 484 219 556 250 q 413 128 413 188 m 953 1124 l 1096 1124 l 1096 375 l 953 375 l 953 1124 z "},"겨":{"ha":1214,"x_min":40,"x_max":1074,"o":"m 675 994 q 660 799 675 886 l 925 799 l 925 1124 l 1074 1124 l 1074 -112 l 925 -112 l 925 343 l 613 343 l 613 464 l 925 464 l 925 678 l 632 678 q 118 110 522 308 l 40 226 q 385 501 267 340 q 522 874 503 661 l 97 874 l 97 994 l 675 994 z "},"격":{"ha":1214,"x_min":64,"x_max":1075,"o":"m 700 1043 q 689 917 700 981 l 925 917 l 925 1124 l 1075 1124 l 1075 388 l 925 388 l 925 532 l 632 532 l 632 654 l 925 654 l 925 796 l 651 796 q 455 551 590 653 q 121 394 319 449 l 64 514 q 397 676 275 569 q 539 922 519 782 l 131 922 l 131 1043 l 700 1043 m 240 336 l 1075 336 l 1075 -108 l 925 -108 l 925 215 l 240 215 l 240 336 z "},"겪":{"ha":1214,"x_min":64,"x_max":1075,"o":"m 699 1049 q 688 926 699 989 l 925 926 l 925 1124 l 1075 1124 l 1075 413 l 925 413 l 925 542 l 631 542 l 631 664 l 925 664 l 925 806 l 651 806 q 456 562 590 663 q 124 408 322 461 l 64 525 q 396 686 274 581 q 538 929 518 792 l 131 929 l 131 1049 l 699 1049 m 203 357 l 617 357 l 617 -112 l 465 -112 l 465 238 l 203 238 l 203 357 m 671 357 l 1075 357 l 1075 -112 l 925 -112 l 925 238 l 671 238 l 671 357 z "},"견":{"ha":1214,"x_min":65,"x_max":1106,"o":"m 1075 1124 l 1075 210 l 924 210 l 924 481 l 626 481 l 626 601 l 924 601 l 924 758 l 644 758 q 448 510 581 615 q 129 347 315 406 l 65 465 q 394 646 269 531 q 539 908 519 761 l 129 908 l 129 1031 l 701 1031 q 685 879 701 953 l 924 879 l 924 1124 l 1075 1124 m 278 297 l 428 297 l 428 33 l 1106 33 l 1106 -89 l 278 -89 l 278 297 z "},"겯":{"ha":1214,"x_min":60,"x_max":1100,"o":"m 688 1049 q 679 938 688 992 l 924 938 l 924 1124 l 1075 1124 l 1075 429 l 924 429 l 924 550 l 628 550 l 628 672 l 924 672 l 924 817 l 644 817 q 452 566 586 669 q 118 408 318 463 l 60 525 q 388 686 267 581 q 528 929 508 792 l 122 929 l 122 1049 l 688 1049 m 268 368 l 1078 368 l 1078 247 l 419 247 l 419 24 l 1100 24 l 1100 -97 l 268 -97 l 268 368 z "},"결":{"ha":1214,"x_min":65,"x_max":1106,"o":"m 1074 1124 l 1074 500 l 924 500 l 924 607 l 629 607 l 629 719 l 924 719 l 924 844 l 643 844 q 117 471 533 565 l 65 592 q 390 729 276 636 q 518 950 503 822 l 133 950 l 133 1071 l 683 1071 q 675 960 683 1013 l 924 960 l 924 1124 l 1074 1124 m 267 449 l 1074 449 l 1074 124 l 419 124 l 419 19 l 1106 19 l 1106 -100 l 269 -100 l 269 236 l 925 236 l 925 331 l 267 331 l 267 449 z "},"겷":{"ha":1214,"x_min":65,"x_max":1135,"o":"m 1074 1125 l 1074 503 l 924 503 l 924 613 l 626 613 l 626 725 l 924 725 l 924 849 l 642 849 q 114 483 528 575 l 65 604 q 388 738 275 647 q 518 953 501 828 l 133 953 l 133 1075 l 683 1075 q 675 964 683 1017 l 924 964 l 924 1125 l 1074 1125 m 189 429 l 583 429 l 583 122 l 335 122 l 335 18 q 499 24 438 19 q 626 40 561 28 l 639 -74 q 485 -93 561 -89 q 261 -97 408 -97 l 190 -97 l 190 228 l 438 228 l 438 317 l 189 317 l 189 429 m 632 368 l 808 368 l 808 474 l 954 474 l 954 368 l 1135 368 l 1135 260 l 632 260 l 632 368 m 657 54 q 719 174 657 128 q 879 221 782 221 q 1039 174 976 221 q 1101 54 1101 128 q 1039 -67 1101 -22 q 879 -112 976 -112 q 719 -67 782 -112 q 657 54 657 -22 m 788 54 q 813 5 788 22 q 879 -12 839 -12 q 945 5 919 -12 q 971 54 971 22 q 945 101 971 85 q 879 118 919 118 q 813 101 839 118 q 788 54 788 85 z "},"겸":{"ha":1214,"x_min":58,"x_max":1075,"o":"m 925 686 l 925 821 l 646 821 q 453 567 588 672 q 117 406 318 461 l 58 524 q 385 685 267 581 q 524 929 504 790 l 122 929 l 122 1049 l 686 1049 q 678 943 686 993 l 925 943 l 925 1124 l 1075 1124 l 1075 424 l 925 424 l 925 564 l 629 564 l 629 686 l 925 686 m 268 374 l 1075 374 l 1075 -97 l 268 -97 l 268 374 m 926 22 l 926 254 l 417 254 l 417 22 l 926 22 z "},"겹":{"ha":1214,"x_min":61,"x_max":1074,"o":"m 925 692 l 925 825 l 650 825 q 459 578 593 679 q 119 425 325 478 l 61 544 q 392 696 276 597 q 525 931 508 794 l 126 931 l 126 1051 l 689 1051 q 681 946 689 996 l 925 946 l 925 1124 l 1074 1124 l 1074 457 l 925 457 l 925 571 l 633 571 l 633 692 l 925 692 m 265 399 l 414 399 l 414 267 l 926 267 l 926 399 l 1074 399 l 1074 -99 l 265 -99 l 265 399 m 926 22 l 926 151 l 414 151 l 414 22 l 926 22 z "},"겻":{"ha":1214,"x_min":65,"x_max":1136,"o":"m 924 646 l 924 789 l 644 789 q 128 360 535 489 l 65 478 q 391 650 276 540 q 524 908 506 760 l 128 908 l 128 1029 l 685 1029 q 675 907 685 961 l 924 907 l 924 1124 l 1074 1124 l 1074 292 l 924 292 l 924 525 l 631 525 l 631 646 l 924 646 m 193 11 q 403 80 313 31 q 542 199 493 129 q 590 349 590 269 l 590 392 l 740 392 l 740 349 q 789 201 740 271 q 927 81 838 131 q 1136 13 1017 32 l 1075 -106 q 827 -13 933 -79 q 665 149 721 53 q 501 -15 608 51 q 250 -108 393 -82 l 193 11 z "},"겼":{"ha":1214,"x_min":58,"x_max":1178,"o":"m 922 679 l 922 815 l 643 815 q 449 565 583 669 q 117 406 315 461 l 58 524 q 387 686 267 581 q 526 929 507 792 l 125 929 l 125 1049 l 686 1049 q 678 938 686 992 l 922 938 l 922 1124 l 1074 1124 l 1074 428 l 922 428 l 922 557 l 631 557 l 631 679 l 922 679 m 104 10 q 279 136 218 51 q 340 317 340 221 l 340 388 l 488 388 l 488 317 q 525 160 488 235 q 638 35 563 85 q 755 165 715 88 q 794 317 794 242 l 794 388 l 942 388 l 942 317 q 1002 131 942 214 q 1178 10 1063 47 l 1104 -100 q 958 -12 1018 -69 q 865 121 897 44 q 777 -17 833 43 q 640 -111 721 -78 q 501 -22 557 -81 q 414 117 444 38 q 322 -13 381 43 q 179 -100 263 -69 l 104 10 z "},"경":{"ha":1214,"x_min":61,"x_max":1082,"o":"m 925 658 l 925 794 l 646 794 q 454 544 588 649 q 119 383 321 440 l 61 503 q 391 667 274 560 q 525 915 508 774 l 128 915 l 128 1036 l 689 1036 q 679 914 689 968 l 925 914 l 925 1124 l 1075 1124 l 1075 400 l 925 400 l 925 536 l 631 536 l 631 658 l 925 658 m 254 139 q 306 271 254 215 q 451 356 357 326 q 669 385 544 385 q 970 319 858 385 q 1082 139 1082 254 q 1031 9 1082 64 q 888 -76 981 -46 q 669 -106 794 -106 q 451 -76 544 -106 q 306 9 357 -46 q 254 139 254 64 m 403 139 q 474 44 403 78 q 669 11 544 11 q 863 44 793 11 q 933 139 933 78 q 863 235 933 201 q 669 268 793 268 q 474 235 544 268 q 403 139 403 201 z "},"곁":{"ha":1214,"x_min":61,"x_max":1100,"o":"m 924 707 l 924 835 l 647 835 q 458 589 592 689 q 118 438 324 489 l 61 556 q 392 706 276 607 q 524 939 507 804 l 124 939 l 124 1060 l 686 1060 q 678 950 686 1003 l 924 950 l 924 1124 l 1075 1124 l 1075 469 l 924 469 l 924 592 l 629 592 l 629 707 l 924 707 m 272 418 l 1079 418 l 1079 308 l 422 308 l 422 218 l 1058 218 l 1058 110 l 422 110 l 422 15 l 1100 15 l 1100 -96 l 272 -96 l 272 418 z "},"계":{"ha":1214,"x_min":39,"x_max":1107,"o":"m 711 482 l 711 669 l 539 669 q 124 149 449 343 l 39 254 q 319 514 225 367 q 431 853 414 661 l 101 853 l 101 974 l 578 974 q 565 789 578 879 l 711 789 l 711 1096 l 853 1096 l 853 -53 l 711 -53 l 711 360 l 518 360 l 518 482 l 711 482 m 963 1125 l 1107 1125 l 1107 -112 l 963 -112 l 963 1125 z "},"곈":{"ha":1214,"x_min":44,"x_max":1136,"o":"m 708 589 l 708 742 l 538 742 q 118 339 440 479 l 44 449 q 316 632 222 522 q 428 888 410 742 l 111 888 l 111 1008 l 582 1008 q 569 860 582 931 l 708 860 l 708 1100 l 850 1100 l 850 238 l 708 238 l 708 469 l 514 469 l 514 589 l 708 589 m 278 318 l 429 318 l 429 33 l 1136 33 l 1136 -89 l 278 -89 l 278 318 m 953 1124 l 1096 1124 l 1096 206 l 953 206 l 953 1124 z "},"곌":{"ha":1214,"x_min":54,"x_max":1139,"o":"m 708 719 l 708 833 l 551 833 q 400 609 506 703 q 125 454 294 515 l 54 563 q 317 713 226 621 q 426 931 408 804 l 114 931 l 114 1051 l 585 1051 q 578 947 585 1003 l 708 947 l 708 1099 l 850 1099 l 850 501 l 708 501 l 708 604 l 535 604 l 535 719 l 708 719 m 265 444 l 1096 444 l 1096 124 l 418 124 l 418 18 l 1139 18 l 1139 -100 l 269 -100 l 269 233 l 946 233 l 946 328 l 265 328 l 265 444 m 951 1124 l 1096 1124 l 1096 496 l 951 496 l 951 1124 z "},"곕":{"ha":1214,"x_min":50,"x_max":1096,"o":"m 710 688 l 710 810 l 547 810 q 400 578 504 676 q 124 414 296 481 l 50 525 q 319 687 228 589 q 426 919 410 785 l 117 919 l 117 1039 l 581 1039 q 574 925 581 985 l 710 925 l 710 1099 l 850 1099 l 850 449 l 710 449 l 710 574 l 540 574 l 540 688 l 710 688 m 271 392 l 421 392 l 421 268 l 949 268 l 949 392 l 1096 392 l 1096 -93 l 271 -93 l 271 392 m 949 26 l 949 150 l 421 150 l 421 26 l 949 26 m 953 1124 l 1096 1124 l 1096 440 l 953 440 l 953 1124 z "},"곗":{"ha":1214,"x_min":47,"x_max":1154,"o":"m 704 653 l 704 782 l 549 782 q 124 343 460 493 l 47 454 q 315 639 222 529 q 426 896 408 749 l 107 896 l 107 1017 l 582 1017 q 575 900 582 963 l 704 900 l 704 1099 l 844 1099 l 844 400 l 704 400 l 704 535 l 536 535 l 536 653 l 704 653 m 192 11 q 403 74 311 28 q 546 186 496 121 q 596 324 596 251 l 596 364 l 747 364 l 747 324 q 797 186 747 251 q 940 74 847 121 q 1154 11 1033 28 l 1099 -107 q 841 -21 953 -85 q 671 138 729 43 q 502 -21 614 43 q 244 -107 390 -85 l 192 11 m 951 1124 l 1096 1124 l 1096 294 l 951 294 l 951 1124 z "},"고":{"ha":1214,"x_min":47,"x_max":1165,"o":"m 1047 1010 l 1047 892 q 1039 605 1047 732 q 999 307 1031 478 l 849 324 q 888 608 881 483 q 896 889 896 733 l 164 889 l 164 1010 l 1047 1010 m 47 168 l 458 168 l 458 600 l 610 600 l 610 168 l 1165 168 l 1165 47 l 47 47 l 47 168 z "},"곡":{"ha":1214,"x_min":49,"x_max":1163,"o":"m 481 549 l 481 788 l 629 788 l 629 549 l 1163 549 l 1163 429 l 49 429 l 49 549 l 481 549 m 167 308 l 1019 308 l 1019 -112 l 869 -112 l 869 189 l 167 189 l 167 308 m 178 1060 l 1026 1060 l 1026 971 q 1022 795 1026 874 q 996 622 1017 717 l 846 636 q 872 792 865 721 q 878 942 878 863 l 178 942 l 178 1060 z "},"곤":{"ha":1214,"x_min":49,"x_max":1163,"o":"m 1026 1053 l 1026 968 q 1021 783 1026 865 q 993 599 1015 700 l 844 614 q 871 781 864 706 q 878 933 878 856 l 178 933 l 178 1053 l 1026 1053 m 49 524 l 481 524 l 481 765 l 629 765 l 629 524 l 1163 524 l 1163 403 l 49 403 l 49 524 m 183 292 l 333 292 l 333 35 l 1054 35 l 1054 -87 l 183 -87 l 183 292 z "},"곧":{"ha":1214,"x_min":49,"x_max":1163,"o":"m 1026 1068 l 1026 967 q 1021 794 1026 867 q 993 638 1015 722 l 844 653 q 872 800 865 735 q 878 950 878 865 l 178 950 l 178 1068 l 1026 1068 m 49 581 l 481 581 l 481 794 l 629 794 l 629 581 l 1163 581 l 1163 461 l 49 461 l 49 581 m 182 346 l 1024 346 l 1024 226 l 332 226 l 332 24 l 1040 24 l 1040 -96 l 182 -96 l 182 346 z "},"골":{"ha":1214,"x_min":49,"x_max":1163,"o":"m 1026 1076 l 1026 1000 q 1023 853 1026 919 q 1004 707 1019 786 l 856 719 q 878 957 875 824 l 178 957 l 178 1076 l 1026 1076 m 49 647 l 481 647 l 481 842 l 629 842 l 629 647 l 1163 647 l 1163 529 l 49 529 l 49 647 m 175 439 l 1029 439 l 1029 121 l 326 121 l 326 17 l 1061 17 l 1061 -100 l 178 -100 l 178 226 l 881 226 l 881 322 l 175 322 l 175 439 z "},"곪":{"ha":1214,"x_min":49,"x_max":1163,"o":"m 1026 1069 l 1026 990 q 1022 833 1026 904 q 1000 678 1018 761 l 851 692 q 878 951 878 821 l 178 951 l 178 1069 l 1026 1069 m 49 619 l 481 619 l 481 826 l 629 826 l 629 619 l 1163 619 l 1163 500 l 49 500 l 49 619 m 161 410 l 563 410 l 563 111 l 310 111 l 310 10 q 468 15 411 11 q 585 29 525 18 l 596 -81 q 453 -98 525 -94 q 233 -101 382 -101 l 164 -101 l 164 214 l 417 214 l 417 300 l 161 300 l 161 410 m 635 410 l 1039 410 l 1039 -101 l 635 -101 l 635 410 m 913 10 l 913 300 l 761 300 l 761 10 l 913 10 z "},"곬":{"ha":1214,"x_min":49,"x_max":1163,"o":"m 921 431 l 921 311 q 972 128 921 213 q 1126 0 1024 43 l 1047 -106 q 849 100 910 -44 q 653 -106 788 -46 l 578 -8 l 585 -81 q 444 -98 514 -94 q 233 -101 375 -101 l 164 -101 l 164 214 l 417 214 l 417 301 l 161 301 l 161 410 l 563 410 l 563 111 l 310 111 l 310 10 q 462 15 406 11 q 575 29 518 18 l 578 3 q 728 133 678 49 q 778 311 778 217 l 778 431 l 921 431 m 49 625 l 481 625 l 481 832 l 629 832 l 629 625 l 1163 625 l 1163 504 l 49 504 l 49 625 m 178 1076 l 1026 1076 l 1026 985 q 1022 828 1026 896 q 1001 683 1018 761 l 851 699 q 873 829 868 769 q 878 958 878 889 l 178 958 l 178 1076 z "},"곯":{"ha":1214,"x_min":49,"x_max":1163,"o":"m 776 358 l 776 458 l 924 458 l 924 358 l 1115 358 l 1115 249 l 589 249 l 589 358 l 776 358 m 49 639 l 481 639 l 481 843 l 629 843 l 629 639 l 1163 639 l 1163 521 l 49 521 l 49 639 m 158 421 l 546 421 l 546 119 l 301 119 l 301 18 q 471 22 410 18 q 593 39 532 26 l 607 -71 q 460 -90 533 -86 q 231 -93 388 -93 l 161 -93 l 161 224 l 404 224 l 404 313 l 158 313 l 158 421 m 178 1082 l 1026 1082 l 1026 1004 q 1022 849 1026 919 q 1000 696 1018 779 l 851 713 q 872 839 867 782 q 878 963 876 896 l 178 963 l 178 1082 m 636 51 q 696 169 636 125 q 851 213 756 213 q 1006 169 946 213 q 1067 51 1067 125 q 1006 -67 1067 -22 q 851 -112 946 -112 q 696 -68 756 -112 q 636 51 636 -24 m 763 51 q 787 3 763 19 q 851 -14 811 -14 q 914 3 890 -14 q 938 51 938 19 q 914 97 938 82 q 851 113 890 113 q 787 97 811 113 q 763 51 763 82 z "},"곰":{"ha":1214,"x_min":49,"x_max":1163,"o":"m 1025 347 l 1025 -96 l 179 -96 l 179 347 l 1025 347 m 49 585 l 481 585 l 481 804 l 629 804 l 629 585 l 1163 585 l 1163 464 l 49 464 l 49 585 m 178 1071 l 1026 1071 l 1026 971 q 1021 799 1026 872 q 993 643 1015 726 l 844 660 q 872 804 865 738 q 878 953 878 871 l 178 953 l 178 1071 m 878 22 l 878 229 l 326 229 l 326 22 l 878 22 z "},"곱":{"ha":1214,"x_min":50,"x_max":1163,"o":"m 1026 1076 l 1026 994 q 1021 829 1026 904 q 994 664 1015 754 l 844 676 q 871 824 864 758 q 878 958 878 890 l 178 958 l 178 1076 l 1026 1076 m 50 603 l 481 603 l 481 811 l 629 811 l 629 603 l 1163 603 l 1163 483 l 50 483 l 50 603 m 186 399 l 335 399 l 335 268 l 875 268 l 875 399 l 1022 399 l 1022 -96 l 186 -96 l 186 399 m 875 22 l 875 154 l 335 154 l 335 22 l 875 22 z "},"곳":{"ha":1214,"x_min":49,"x_max":1163,"o":"m 1026 1067 l 1026 975 q 1021 801 1026 876 q 994 633 1015 725 l 847 647 q 872 800 867 731 q 878 949 878 869 l 178 949 l 178 1067 l 1026 1067 m 49 557 l 481 557 l 481 793 l 629 793 l 629 557 l 1163 557 l 1163 438 l 49 438 l 49 557 m 119 10 q 335 69 243 25 q 476 176 426 113 q 525 310 525 239 l 525 354 l 675 354 l 675 310 q 724 176 675 239 q 865 69 772 113 q 1082 10 957 25 l 1026 -107 q 769 -25 879 -85 q 601 125 658 35 q 433 -25 544 35 q 174 -107 322 -85 l 119 10 z "},"공":{"ha":1214,"x_min":49,"x_max":1163,"o":"m 600 350 q 830 322 732 350 q 981 242 928 294 q 1035 119 1035 190 q 917 -50 1035 11 q 600 -111 800 -111 q 283 -50 400 -111 q 167 119 167 11 q 219 242 167 190 q 370 322 272 294 q 600 350 468 350 m 49 563 l 481 563 l 481 788 l 629 788 l 629 563 l 1163 563 l 1163 443 l 49 443 l 49 563 m 178 1065 l 1026 1065 l 1026 963 q 1021 790 1026 863 q 992 633 1015 718 l 844 650 q 872 794 865 729 q 878 946 878 860 l 178 946 l 178 1065 m 315 119 q 390 34 315 64 q 600 4 465 4 q 810 35 735 4 q 886 119 886 65 q 810 206 886 175 q 600 236 735 236 q 390 206 465 236 q 315 119 315 175 z "},"곶":{"ha":1214,"x_min":49,"x_max":1163,"o":"m 1036 367 l 1036 247 l 688 247 q 811 93 706 158 q 1085 7 917 28 l 1033 -108 q 772 -32 883 -89 q 606 111 661 25 q 440 -32 550 25 q 179 -108 329 -89 l 126 7 q 401 93 296 28 q 524 247 506 158 l 175 247 l 175 367 l 1036 367 m 49 597 l 481 597 l 481 806 l 629 806 l 629 597 l 1163 597 l 1163 476 l 49 476 l 49 597 m 178 1075 l 1026 1075 l 1026 978 q 1021 813 1026 883 q 993 663 1015 743 l 846 681 q 872 817 865 756 q 878 956 878 879 l 178 956 l 178 1075 z "},"과":{"ha":1214,"x_min":36,"x_max":1188,"o":"m 731 996 l 731 908 q 724 678 731 786 q 696 428 718 569 l 549 443 q 576 670 569 568 q 582 875 582 772 l 100 875 l 100 996 l 731 996 m 36 268 q 275 271 106 268 l 275 642 l 421 642 l 421 275 q 793 303 635 282 l 800 194 q 51 144 517 147 l 36 268 m 858 1125 l 1008 1125 l 1008 619 l 1188 619 l 1188 494 l 1008 494 l 1008 -112 l 858 -112 l 858 1125 z "},"곽":{"ha":1214,"x_min":33,"x_max":1183,"o":"m 731 1043 l 731 967 q 726 799 731 878 q 701 626 721 721 l 554 642 q 582 921 579 772 l 107 921 l 107 1043 l 731 1043 m 33 531 q 274 533 188 531 l 274 774 l 422 774 l 422 538 q 797 569 636 547 l 807 463 q 445 419 635 431 q 49 408 256 408 l 33 531 m 197 300 l 1024 300 l 1024 -108 l 872 -108 l 872 181 l 197 181 l 197 300 m 872 1124 l 1024 1124 l 1024 792 l 1183 792 l 1183 669 l 1024 669 l 1024 356 l 872 356 l 872 1124 z "},"관":{"ha":1214,"x_min":33,"x_max":1183,"o":"m 731 1031 l 731 957 q 726 782 731 865 q 701 596 721 699 l 556 611 q 583 910 581 754 l 107 910 l 107 1031 l 731 1031 m 33 496 q 274 499 188 496 l 274 749 l 422 749 l 422 503 q 799 535 639 513 l 808 426 q 450 385 638 396 q 49 374 263 375 l 33 496 m 218 279 l 368 279 l 368 33 l 1063 33 l 1063 -89 l 218 -89 l 218 279 m 872 1124 l 1024 1124 l 1024 736 l 1183 736 l 1183 613 l 1024 613 l 1024 197 l 872 197 l 872 1124 z "},"괄":{"ha":1214,"x_min":35,"x_max":1183,"o":"m 731 1065 l 731 997 q 726 844 731 917 q 703 686 721 772 l 557 701 q 582 946 579 817 l 107 946 l 107 1065 l 731 1065 m 35 606 q 272 607 188 606 l 272 813 l 421 813 l 421 611 q 799 638 631 618 l 810 533 q 451 495 638 504 q 49 486 264 486 l 35 606 m 192 415 l 1024 415 l 1024 110 l 344 110 l 344 13 l 1065 13 l 1065 -101 l 194 -101 l 194 217 l 872 217 l 872 304 l 192 304 l 192 415 m 872 1124 l 1024 1124 l 1024 849 l 1183 849 l 1183 726 l 1024 726 l 1024 464 l 872 464 l 872 1124 z "},"괆":{"ha":1214,"x_min":35,"x_max":1183,"o":"m 557 390 l 557 100 l 300 100 l 300 8 q 460 12 401 8 q 576 28 518 15 l 586 -81 q 444 -98 515 -94 q 222 -101 372 -101 l 156 -101 l 156 201 l 411 201 l 411 282 l 151 282 l 151 390 l 557 390 m 35 603 q 272 604 188 603 l 272 811 l 421 811 l 421 608 q 799 638 644 618 l 810 532 q 453 494 638 503 q 49 486 269 486 l 35 603 m 107 1065 l 731 1065 l 731 997 q 726 843 731 915 q 703 685 721 771 l 557 700 q 582 946 579 815 l 107 946 l 107 1065 m 622 390 l 1024 390 l 1024 -101 l 622 -101 l 622 390 m 893 11 l 893 278 l 751 278 l 751 11 l 893 11 m 872 1124 l 1024 1124 l 1024 842 l 1183 842 l 1183 721 l 1024 721 l 1024 443 l 872 443 l 872 1124 z "},"괌":{"ha":1214,"x_min":33,"x_max":1183,"o":"m 731 1056 l 731 983 q 726 824 731 899 q 701 658 721 750 l 554 671 q 582 935 579 794 l 107 935 l 107 1056 l 731 1056 m 33 563 q 274 564 188 563 l 274 778 l 422 778 l 422 569 q 799 600 628 576 l 808 493 q 457 453 638 463 q 50 442 276 443 l 33 563 m 208 335 l 1024 335 l 1024 -93 l 208 -93 l 208 335 m 875 26 l 875 215 l 356 215 l 356 26 l 875 26 m 872 1124 l 1024 1124 l 1024 815 l 1183 815 l 1183 692 l 1024 692 l 1024 392 l 872 392 l 872 1124 z "},"괍":{"ha":1214,"x_min":32,"x_max":1183,"o":"m 731 1058 l 731 990 q 726 835 731 908 q 703 674 721 763 l 557 690 q 582 939 579 808 l 107 939 l 107 1058 l 731 1058 m 32 590 q 274 592 188 590 l 274 797 l 422 797 l 422 596 q 803 625 650 606 l 813 517 q 452 478 640 488 q 47 469 264 469 l 32 590 m 210 379 l 360 379 l 360 264 l 874 264 l 874 379 l 1024 379 l 1024 -97 l 210 -97 l 210 379 m 874 24 l 874 147 l 360 147 l 360 24 l 874 24 m 872 1124 l 1024 1124 l 1024 832 l 1183 832 l 1183 708 l 1024 708 l 1024 426 l 872 426 l 872 1124 z "},"괏":{"ha":1214,"x_min":33,"x_max":1183,"o":"m 731 1051 l 731 981 q 724 817 731 894 q 696 644 718 739 l 551 657 q 582 931 579 785 l 107 931 l 107 1051 l 731 1051 m 33 535 q 274 536 188 535 l 274 771 l 422 771 l 422 542 q 799 572 628 549 l 810 464 q 450 424 638 433 q 49 414 263 414 l 33 535 m 151 11 q 365 69 275 26 q 503 172 456 111 q 550 301 550 233 l 550 342 l 710 342 l 710 301 q 758 172 710 233 q 896 69 806 111 q 1110 11 986 26 l 1054 -108 q 797 -26 906 -86 q 631 122 688 33 q 465 -26 575 33 q 207 -108 356 -86 l 151 11 m 872 1125 l 1024 1125 l 1024 765 l 1183 765 l 1183 639 l 1024 639 l 1024 281 l 872 281 l 872 1125 z "},"괐":{"ha":1214,"x_min":33,"x_max":1183,"o":"m 457 343 l 457 310 q 495 157 457 231 q 610 35 533 83 q 724 159 685 85 q 764 310 764 233 l 764 343 l 911 343 l 911 313 q 972 132 911 213 q 1147 15 1032 51 l 1074 -94 q 929 -10 989 -65 q 836 117 869 44 q 749 -17 806 42 q 610 -108 692 -76 q 385 114 450 -47 q 149 -94 313 -36 l 76 15 q 251 135 190 54 q 313 313 313 217 l 313 343 l 457 343 m 33 561 q 274 563 189 561 l 274 778 l 422 778 l 422 567 q 799 594 636 574 l 808 488 q 450 449 636 458 q 50 440 264 440 l 33 561 m 107 1056 l 731 1056 l 731 983 q 726 824 731 899 q 701 658 721 750 l 554 671 q 582 935 579 794 l 107 935 l 107 1056 m 872 1125 l 1024 1125 l 1024 817 l 1183 817 l 1183 692 l 1024 692 l 1024 392 l 872 392 l 872 1125 z "},"광":{"ha":1214,"x_min":33,"x_max":1183,"o":"m 731 1051 l 731 976 q 726 815 731 890 q 701 649 721 740 l 554 660 q 582 932 579 786 l 107 932 l 107 1051 l 731 1051 m 33 549 q 274 550 189 549 l 274 779 l 422 779 l 422 554 q 799 583 647 564 l 808 476 q 50 426 511 426 l 33 549 m 193 121 q 306 288 193 228 q 614 349 419 349 q 921 288 808 349 q 1033 121 1033 228 q 921 -49 1033 13 q 614 -111 808 -111 q 306 -49 419 -111 q 193 121 193 13 m 346 121 q 415 37 346 65 q 614 8 485 8 q 812 37 743 8 q 881 121 881 65 q 811 204 881 175 q 614 233 742 233 q 416 204 486 233 q 346 121 346 175 m 872 1125 l 1024 1125 l 1024 807 l 1183 807 l 1183 682 l 1024 682 l 1024 363 l 872 363 l 872 1125 z "},"괘":{"ha":1214,"x_min":32,"x_max":1113,"o":"m 614 988 l 614 897 q 609 679 614 779 q 583 449 604 579 l 447 460 q 475 868 475 653 l 83 868 l 83 988 l 614 988 m 32 297 q 214 299 147 297 l 214 643 l 351 643 l 351 303 q 654 325 550 311 l 660 217 q 53 172 436 172 l 32 297 m 713 1100 l 853 1100 l 853 618 l 968 618 l 968 1125 l 1113 1125 l 1113 -112 l 968 -112 l 968 496 l 853 496 l 853 -51 l 713 -51 l 713 1100 z "},"괜":{"ha":1214,"x_min":32,"x_max":1136,"o":"m 617 1029 l 617 949 q 613 775 617 854 q 590 597 608 696 l 451 611 q 476 908 476 760 l 96 908 l 96 1029 l 617 1029 m 32 499 q 221 500 151 499 l 221 746 l 358 746 l 358 504 q 658 526 535 511 l 665 418 q 49 376 429 376 l 32 499 m 244 283 l 394 283 l 394 33 l 1136 33 l 1136 -89 l 244 -89 l 244 283 m 711 1099 l 853 1099 l 853 747 l 963 747 l 963 1124 l 1106 1124 l 1106 190 l 963 190 l 963 624 l 853 624 l 853 221 l 711 221 l 711 1099 z "},"괠":{"ha":1214,"x_min":32,"x_max":1142,"o":"m 617 1056 l 617 983 q 613 832 617 901 q 593 678 608 763 l 456 690 q 476 936 474 800 l 96 936 l 96 1056 l 617 1056 m 32 594 q 221 596 151 594 l 221 804 l 358 804 l 358 600 q 657 624 519 607 l 665 519 q 50 478 451 481 l 32 594 m 238 404 l 1106 404 l 1106 104 l 388 104 l 388 13 l 1142 13 l 1142 -101 l 239 -101 l 239 210 l 958 210 l 958 293 l 238 293 l 238 404 m 711 1099 l 851 1099 l 851 835 l 963 835 l 963 1124 l 1106 1124 l 1106 453 l 963 453 l 963 714 l 851 714 l 851 458 l 711 458 l 711 1099 z "},"괢":{"ha":1214,"x_min":32,"x_max":1107,"o":"m 611 401 l 611 104 l 332 104 l 332 8 q 489 13 422 8 q 628 29 556 17 l 642 -79 q 474 -97 554 -93 q 258 -101 394 -101 l 186 -101 l 186 207 l 467 207 l 467 293 l 185 293 l 185 401 l 611 401 m 32 600 q 221 601 151 600 l 221 807 l 358 807 l 358 606 q 657 628 536 613 l 667 524 q 51 482 451 485 l 32 600 m 96 1056 l 617 1056 l 617 983 q 613 832 617 901 q 594 678 610 763 l 456 690 q 476 936 474 800 l 96 936 l 96 1056 m 678 401 l 1107 401 l 1107 -101 l 678 -101 l 678 401 m 713 1099 l 853 1099 l 853 838 l 963 838 l 963 1124 l 1107 1124 l 1107 457 l 963 457 l 963 717 l 853 717 l 853 463 l 713 463 l 713 1099 m 968 11 l 968 289 l 818 289 l 818 11 l 968 11 z "},"괩":{"ha":1214,"x_min":32,"x_max":1107,"o":"m 617 1054 l 617 978 q 613 819 617 892 q 592 658 608 747 l 451 668 q 476 935 474 782 l 96 935 l 96 1054 l 617 1054 m 32 568 q 221 569 151 568 l 221 789 l 358 789 l 358 574 q 657 596 536 581 l 667 492 q 49 450 443 453 l 32 568 m 246 374 l 396 374 l 396 257 l 957 257 l 957 374 l 1107 374 l 1107 -97 l 246 -97 l 246 374 m 957 24 l 957 140 l 396 140 l 396 24 l 957 24 m 713 1099 l 853 1099 l 853 818 l 963 818 l 963 1124 l 1107 1124 l 1107 421 l 963 421 l 963 696 l 853 696 l 853 432 l 713 432 l 713 1099 z "},"괬":{"ha":1214,"x_min":33,"x_max":1179,"o":"m 615 1043 l 615 967 q 611 806 615 879 q 592 642 607 732 l 454 656 q 476 924 476 792 l 94 924 l 94 1043 l 615 1043 m 33 547 q 219 549 150 547 l 219 775 l 357 775 l 357 553 q 658 578 524 560 l 665 475 q 379 438 535 447 q 49 428 224 429 l 33 547 m 104 14 q 282 135 221 53 q 343 318 343 218 l 343 350 l 488 350 l 488 318 q 526 163 488 238 q 640 36 564 88 q 756 164 717 88 q 794 318 794 240 l 794 350 l 942 350 l 942 318 q 1002 133 942 215 q 1179 14 1063 51 l 1107 -96 q 960 -10 1021 -67 q 867 122 899 46 q 778 -15 835 44 q 642 -108 722 -75 q 415 118 483 -47 q 322 -11 382 44 q 176 -96 261 -67 l 104 14 m 711 1099 l 851 1099 l 851 810 l 961 810 l 961 1125 l 1106 1125 l 1106 394 l 961 394 l 961 688 l 851 688 l 851 404 l 711 404 l 711 1099 z "},"괭":{"ha":1214,"x_min":32,"x_max":1107,"o":"m 617 1036 l 617 956 q 613 794 617 868 q 594 629 610 719 l 456 639 q 476 917 476 771 l 96 917 l 96 1036 l 617 1036 m 32 535 q 221 536 151 535 l 221 760 l 358 760 l 358 540 q 656 567 553 551 l 665 464 q 383 427 535 436 q 50 417 231 418 l 32 535 m 233 108 q 349 272 233 214 q 669 329 464 329 q 991 272 875 329 q 1107 108 1107 214 q 991 -55 1107 3 q 669 -112 875 -112 q 349 -55 464 -112 q 233 108 233 3 m 388 108 q 460 28 388 56 q 669 1 532 1 q 879 28 807 1 q 951 108 951 56 q 879 188 951 161 q 669 215 807 215 q 460 188 532 215 q 388 108 388 161 m 713 1100 l 853 1100 l 853 801 l 963 801 l 963 1124 l 1107 1124 l 1107 347 l 963 347 l 963 682 l 853 682 l 853 388 l 713 388 l 713 1100 z "},"괴":{"ha":1214,"x_min":51,"x_max":1079,"o":"m 767 985 l 767 904 q 761 683 767 789 q 733 440 756 578 l 585 457 q 619 864 619 657 l 132 864 l 132 985 l 767 985 m 51 261 q 304 264 215 261 l 304 611 l 451 611 l 451 268 q 857 299 696 278 l 869 189 q 488 148 685 158 q 69 138 292 138 l 51 261 m 929 1125 l 1079 1125 l 1079 -115 l 929 -115 l 929 1125 z "},"괵":{"ha":1214,"x_min":50,"x_max":1074,"o":"m 754 1043 l 754 967 q 749 797 754 876 q 725 622 744 718 l 578 639 q 608 921 606 768 l 140 921 l 140 1043 l 754 1043 m 50 524 q 306 525 215 524 l 306 760 l 451 760 l 451 529 q 844 560 690 539 l 853 453 q 487 414 675 424 q 69 403 299 404 l 50 524 m 222 306 l 1074 306 l 1074 -114 l 924 -114 l 924 183 l 222 183 l 222 306 m 924 1125 l 1074 1125 l 1074 364 l 924 364 l 924 1125 z "},"괸":{"ha":1214,"x_min":49,"x_max":1104,"o":"m 760 1036 l 760 949 q 755 774 760 853 q 729 600 750 694 l 583 618 q 614 914 614 760 l 132 914 l 132 1036 l 760 1036 m 49 493 q 310 496 218 493 l 310 743 l 456 743 l 456 500 q 843 526 668 507 l 851 418 q 67 371 540 371 l 49 493 m 258 274 l 408 274 l 408 33 l 1104 33 l 1104 -89 l 258 -89 l 258 274 m 924 1124 l 1074 1124 l 1074 193 l 924 193 l 924 1124 z "},"괼":{"ha":1214,"x_min":49,"x_max":1118,"o":"m 751 1063 l 751 994 q 746 841 751 914 q 721 682 740 768 l 575 697 q 603 943 600 811 l 138 943 l 138 1063 l 751 1063 m 49 601 q 307 603 217 601 l 307 811 l 453 811 l 453 607 q 843 636 685 617 l 851 531 q 476 494 671 503 q 68 485 282 485 l 49 601 m 235 406 l 1074 406 l 1074 106 l 386 106 l 386 11 l 1118 11 l 1118 -101 l 238 -101 l 238 211 l 925 211 l 925 297 l 235 297 l 235 406 m 924 1124 l 1074 1124 l 1074 460 l 924 460 l 924 1124 z "},"굄":{"ha":1214,"x_min":50,"x_max":1074,"o":"m 1074 1124 l 1074 381 l 924 381 l 924 1124 l 1074 1124 m 50 549 q 306 551 122 549 l 306 765 l 451 765 l 451 557 q 844 589 676 567 l 851 485 q 485 443 674 453 q 68 432 296 433 l 50 549 m 140 1049 l 754 1049 l 754 975 q 750 814 754 889 q 728 649 746 739 l 579 661 q 599 797 594 735 q 606 929 604 858 l 140 929 l 140 1049 m 243 325 l 1074 325 l 1074 -97 l 243 -97 l 243 325 m 926 22 l 926 206 l 392 206 l 392 22 l 926 22 z "},"굅":{"ha":1214,"x_min":50,"x_max":1074,"o":"m 1074 1121 l 1074 426 l 924 426 l 924 1121 l 1074 1121 m 50 572 q 308 574 218 572 l 308 779 l 454 779 l 454 578 q 844 607 686 588 l 851 500 q 483 465 674 474 q 68 454 292 456 l 50 572 m 140 1060 l 756 1060 l 756 981 q 751 824 756 896 q 729 665 747 753 l 583 679 q 603 810 599 750 q 610 940 608 871 l 140 940 l 140 1060 m 243 376 l 390 376 l 390 256 l 925 256 l 925 376 l 1074 376 l 1074 -97 l 243 -97 l 243 376 m 925 24 l 925 140 l 390 140 l 390 24 l 925 24 z "},"굇":{"ha":1214,"x_min":49,"x_max":1132,"o":"m 1072 1124 l 1072 272 l 922 272 l 922 1124 l 1072 1124 m 49 539 q 304 542 126 539 l 304 758 l 449 758 l 449 546 q 843 572 664 553 l 851 465 q 68 417 540 417 l 49 539 m 140 1049 l 753 1049 l 753 954 q 749 790 753 861 q 726 638 744 719 l 579 656 q 601 792 596 729 q 606 928 606 856 l 140 928 l 140 1049 m 182 13 q 392 75 301 29 q 531 185 482 121 q 579 321 579 250 l 579 353 l 733 353 l 733 321 q 782 185 733 250 q 921 75 831 121 q 1132 13 1011 29 l 1075 -106 q 820 -19 929 -82 q 656 136 711 44 q 492 -19 600 44 q 238 -106 383 -82 l 182 13 z "},"굉":{"ha":1214,"x_min":50,"x_max":1078,"o":"m 1074 1125 l 1074 357 l 924 357 l 924 1125 l 1074 1125 m 50 539 q 306 540 215 539 l 306 758 l 451 758 l 451 544 q 843 572 674 551 l 851 468 q 490 430 674 439 q 68 419 306 421 l 50 539 m 140 1050 l 754 1050 l 754 964 q 749 794 754 869 q 726 631 744 719 l 581 647 q 602 792 597 725 q 607 931 607 858 l 140 931 l 140 1050 m 226 115 q 340 284 226 224 q 653 344 454 344 q 964 284 850 344 q 1078 115 1078 224 q 964 -52 1078 8 q 653 -112 850 -112 q 340 -52 454 -112 q 226 115 226 8 m 383 115 q 453 33 383 61 q 653 6 524 6 q 852 33 782 6 q 922 115 922 61 q 852 199 922 171 q 653 228 782 228 q 453 199 524 228 q 383 115 383 171 z "},"교":{"ha":1214,"x_min":47,"x_max":1165,"o":"m 1050 1010 l 1050 883 q 1043 605 1050 728 q 1008 321 1036 482 l 860 338 q 894 609 888 489 q 901 883 901 729 l 901 889 l 158 889 l 158 1010 l 1050 1010 m 47 168 l 299 168 l 299 567 l 447 567 l 447 168 l 604 168 l 604 567 l 751 567 l 751 168 l 1165 168 l 1165 47 l 47 47 l 47 168 z "},"굔":{"ha":1214,"x_min":49,"x_max":1163,"o":"m 1039 1056 l 1039 961 q 1035 779 1039 860 q 1013 600 1031 699 l 863 613 q 884 778 879 703 q 889 936 889 854 l 171 936 l 171 1056 l 1039 1056 m 49 511 l 304 511 l 304 751 l 451 751 l 451 511 l 617 511 l 617 751 l 764 751 l 764 511 l 1163 511 l 1163 390 l 49 390 l 49 511 m 183 286 l 333 286 l 333 33 l 1054 33 l 1054 -87 l 183 -87 l 183 286 z "},"굘":{"ha":1214,"x_min":49,"x_max":1163,"o":"m 1039 1082 l 1039 997 q 1035 847 1039 913 q 1017 706 1032 782 l 869 721 q 889 963 889 833 l 171 963 l 171 1082 l 1039 1082 m 49 644 l 307 644 l 307 847 l 454 847 l 454 644 l 613 644 l 613 847 l 758 847 l 758 644 l 1163 644 l 1163 524 l 49 524 l 49 644 m 175 439 l 1029 439 l 1029 121 l 326 121 l 326 17 l 1061 17 l 1061 -100 l 178 -100 l 178 226 l 881 226 l 881 322 l 175 322 l 175 439 z "},"굠":{"ha":1214,"x_min":49,"x_max":1163,"o":"m 1025 347 l 1025 -96 l 179 -96 l 179 347 l 1025 347 m 49 574 l 304 574 l 304 788 l 451 788 l 451 574 l 617 574 l 617 788 l 764 788 l 764 574 l 1163 574 l 1163 454 l 49 454 l 49 574 m 171 1075 l 1039 1075 l 1039 990 q 1035 820 1039 896 q 1013 654 1031 744 l 864 668 q 889 956 889 800 l 171 956 l 171 1075 m 878 22 l 878 229 l 326 229 l 326 22 l 878 22 z "},"굡":{"ha":1214,"x_min":50,"x_max":1163,"o":"m 1036 1079 l 1036 999 q 1031 830 1036 907 q 1007 660 1026 753 l 860 675 q 888 960 888 817 l 168 960 l 168 1079 l 1036 1079 m 50 596 l 306 596 l 306 810 l 453 810 l 453 596 l 607 596 l 607 810 l 756 810 l 756 596 l 1163 596 l 1163 475 l 50 475 l 50 596 m 186 397 l 335 397 l 335 267 l 875 267 l 875 397 l 1022 397 l 1022 -97 l 186 -97 l 186 397 m 875 22 l 875 153 l 335 153 l 335 22 l 875 22 z "},"굣":{"ha":1214,"x_min":47,"x_max":1165,"o":"m 1049 1069 l 1049 965 q 1044 789 1049 863 q 1021 629 1039 715 l 872 643 q 895 792 890 724 q 900 951 900 861 l 174 951 l 174 1069 l 1049 1069 m 47 551 l 308 551 l 308 790 l 456 790 l 456 551 l 611 551 l 611 790 l 758 790 l 758 551 l 1165 551 l 1165 429 l 47 429 l 47 551 m 119 10 q 335 69 243 25 q 476 176 426 113 q 525 310 525 239 l 525 354 l 675 354 l 675 310 q 724 176 675 239 q 865 69 772 113 q 1082 10 957 25 l 1026 -107 q 769 -25 879 -85 q 601 125 658 35 q 433 -25 544 35 q 174 -107 322 -85 l 119 10 z "},"굥":{"ha":1214,"x_min":49,"x_max":1163,"o":"m 1039 1068 l 1039 979 q 1035 808 1039 885 q 1013 639 1031 732 l 864 653 q 889 947 889 788 l 171 947 l 171 1068 l 1039 1068 m 49 554 l 304 554 l 304 778 l 451 778 l 451 554 l 617 554 l 617 778 l 764 778 l 764 554 l 1163 554 l 1163 435 l 49 435 l 49 554 m 167 119 q 219 242 167 190 q 370 322 272 294 q 600 350 468 350 q 830 322 732 350 q 981 242 928 294 q 1035 119 1035 190 q 917 -50 1035 11 q 600 -111 800 -111 q 283 -50 400 -111 q 167 119 167 11 m 315 119 q 390 34 315 64 q 600 4 465 4 q 810 35 735 4 q 886 119 886 65 q 810 206 886 175 q 600 236 735 236 q 390 206 465 236 q 315 119 315 175 z "},"구":{"ha":1214,"x_min":47,"x_max":1165,"o":"m 1026 1049 l 1026 940 q 1021 728 1026 819 q 994 519 1015 636 l 1165 519 l 1165 399 l 676 399 l 676 -112 l 525 -112 l 525 399 l 47 399 l 47 519 l 844 519 q 873 724 867 632 q 879 929 879 817 l 182 929 l 182 1049 l 1026 1049 z "},"국":{"ha":1214,"x_min":47,"x_max":1167,"o":"m 1029 1068 l 1029 974 q 1025 803 1029 878 q 1003 636 1021 728 l 1167 636 l 1167 514 l 679 514 l 679 319 l 1033 319 l 1033 -112 l 883 -112 l 883 200 l 163 200 l 163 319 l 531 319 l 531 514 l 47 514 l 47 636 l 853 636 q 876 794 871 722 q 882 947 882 867 l 188 947 l 188 1068 l 1029 1068 z "},"군":{"ha":1214,"x_min":47,"x_max":1167,"o":"m 1031 1063 l 1031 960 q 1026 774 1031 854 q 1003 593 1021 693 l 1167 593 l 1167 472 l 689 472 l 689 196 l 539 196 l 539 472 l 47 472 l 47 593 l 851 593 q 876 768 871 689 q 882 943 882 847 l 188 943 l 188 1063 l 1031 1063 m 182 306 l 331 306 l 331 33 l 1050 33 l 1050 -87 l 182 -87 l 182 306 z "},"굳":{"ha":1214,"x_min":47,"x_max":1167,"o":"m 1029 1068 l 1029 974 q 1025 806 1029 879 q 1004 643 1021 732 l 1167 643 l 1167 522 l 679 522 l 679 344 l 1032 344 l 1032 226 l 331 226 l 331 22 l 1046 22 l 1046 -96 l 182 -96 l 182 344 l 531 344 l 531 522 l 47 522 l 47 643 l 854 643 q 876 798 871 726 q 882 949 882 869 l 188 949 l 188 1068 l 1029 1068 z "},"굴":{"ha":1214,"x_min":47,"x_max":1167,"o":"m 1029 1075 l 1029 994 q 1025 841 1029 910 q 1006 690 1021 772 l 1167 690 l 1167 572 l 679 572 l 679 440 l 1029 440 l 1029 119 l 326 119 l 326 17 l 1060 17 l 1060 -100 l 178 -100 l 178 225 l 881 225 l 881 322 l 175 322 l 175 440 l 531 440 l 531 572 l 47 572 l 47 690 l 856 690 q 882 957 882 819 l 188 957 l 188 1075 l 1029 1075 z "},"굵":{"ha":1214,"x_min":47,"x_max":1167,"o":"m 1029 1076 l 1029 996 q 1025 840 1029 910 q 1006 686 1021 769 l 1167 686 l 1167 565 l 679 565 l 679 408 l 1036 408 l 1036 -108 l 890 -108 l 890 289 l 640 289 l 640 400 l 575 400 l 575 104 l 311 104 l 311 10 q 521 17 447 11 q 663 39 594 22 l 679 -72 q 512 -96 599 -90 q 246 -101 425 -101 l 165 -101 l 165 211 l 432 211 l 432 296 l 164 296 l 164 408 l 531 408 l 531 565 l 47 565 l 47 686 l 854 686 q 882 957 882 817 l 188 957 l 188 1076 l 1029 1076 z "},"굶":{"ha":1214,"x_min":47,"x_max":1167,"o":"m 1029 1076 l 1029 994 q 1025 837 1029 908 q 1004 681 1021 765 l 1167 681 l 1167 560 l 678 560 l 678 410 l 1039 410 l 1039 -101 l 635 -101 l 635 385 l 563 385 l 563 110 l 310 110 l 310 10 q 467 15 410 11 q 585 29 525 18 l 596 -81 q 453 -98 525 -94 q 233 -101 382 -101 l 164 -101 l 164 213 l 417 213 l 417 300 l 161 300 l 161 410 l 529 410 l 529 560 l 47 560 l 47 681 l 853 681 q 882 957 882 814 l 188 957 l 188 1076 l 1029 1076 m 913 10 l 913 300 l 761 300 l 761 10 l 913 10 z "},"굻":{"ha":1214,"x_min":47,"x_max":1167,"o":"m 1029 1078 l 1029 1001 q 1025 846 1029 917 q 1006 689 1021 775 l 1167 689 l 1167 569 l 674 569 l 674 404 l 546 404 l 546 111 l 301 111 l 301 18 q 471 22 410 18 q 593 39 532 26 l 607 -71 q 460 -90 533 -86 q 231 -93 388 -93 l 161 -93 l 161 217 l 404 217 l 404 301 l 158 301 l 158 410 l 522 410 l 522 569 l 47 569 l 47 689 l 856 689 q 876 827 871 765 q 882 960 881 889 l 188 960 l 188 1078 l 1029 1078 m 589 358 l 776 358 l 776 463 l 924 463 l 924 358 l 1115 358 l 1115 247 l 589 247 l 589 358 m 636 51 q 696 171 636 126 q 851 215 756 215 q 1007 171 947 215 q 1067 51 1067 126 q 1007 -68 1067 -24 q 851 -112 947 -112 q 696 -68 756 -112 q 636 51 636 -24 m 763 51 q 787 1 763 19 q 851 -17 811 -17 q 914 1 890 -17 q 938 51 938 19 q 914 101 938 83 q 851 119 890 119 q 788 101 813 119 q 763 51 763 83 z "},"굼":{"ha":1214,"x_min":47,"x_max":1167,"o":"m 1028 1072 l 1028 978 q 1024 809 1028 883 q 1001 644 1019 735 l 1167 644 l 1167 524 l 679 524 l 679 343 l 1028 343 l 1028 -96 l 182 -96 l 182 343 l 531 343 l 531 524 l 47 524 l 47 644 l 850 644 q 875 801 869 731 q 881 953 881 872 l 183 953 l 183 1072 l 1028 1072 m 881 22 l 881 226 l 328 226 l 328 22 l 881 22 z "},"굽":{"ha":1214,"x_min":47,"x_max":1167,"o":"m 1028 1075 l 1028 982 q 1024 815 1028 888 q 1003 653 1019 742 l 1167 653 l 1167 533 l 676 533 l 676 346 l 526 346 l 526 533 l 47 533 l 47 653 l 851 653 q 875 806 869 736 q 881 956 881 876 l 183 956 l 183 1075 l 1028 1075 m 182 408 l 332 408 l 332 271 l 876 271 l 876 408 l 1025 408 l 1025 -96 l 182 -96 l 182 408 m 876 22 l 876 154 l 332 154 l 332 22 l 876 22 z "},"굿":{"ha":1214,"x_min":47,"x_max":1167,"o":"m 1029 1074 l 1029 993 q 1025 822 1029 900 q 1003 649 1021 744 l 1167 649 l 1167 528 l 678 528 l 678 353 l 529 353 l 529 528 l 47 528 l 47 649 l 851 649 q 882 954 882 797 l 188 954 l 188 1074 l 1029 1074 m 125 7 q 337 60 246 21 q 477 153 428 99 q 526 265 526 207 l 526 304 l 679 304 l 679 265 q 728 150 679 204 q 867 58 776 96 q 1081 7 958 21 l 1029 -107 q 769 -35 879 -89 q 601 103 658 19 q 434 -34 544 21 q 176 -107 324 -89 l 125 7 z "},"궁":{"ha":1214,"x_min":47,"x_max":1167,"o":"m 1029 1076 l 1029 982 q 1024 810 1029 885 q 1001 643 1019 735 l 1167 643 l 1167 522 l 679 522 l 679 354 q 942 283 849 343 q 1036 122 1036 222 q 922 -51 1036 11 q 604 -112 807 -112 q 288 -51 403 -112 q 174 122 174 11 q 268 283 174 222 q 531 354 363 343 l 531 522 l 47 522 l 47 643 l 851 643 q 876 801 871 729 q 882 956 882 874 l 188 956 l 188 1076 l 1029 1076 m 324 122 q 397 38 324 67 q 604 8 469 8 q 813 38 740 8 q 886 122 886 67 q 813 208 886 179 q 604 238 740 238 q 396 208 468 238 q 324 122 324 179 z "},"궂":{"ha":1214,"x_min":47,"x_max":1167,"o":"m 1029 1071 l 1029 994 q 1024 828 1029 906 q 1001 654 1019 750 l 1167 654 l 1167 536 l 679 536 l 679 371 l 1036 371 l 1036 251 l 686 251 q 809 94 703 161 q 1085 7 915 28 l 1033 -107 q 773 -31 883 -89 q 606 113 663 26 q 438 -31 549 26 q 179 -107 328 -89 l 126 7 q 402 94 296 28 q 525 251 508 161 l 175 251 l 175 371 l 531 371 l 531 536 l 47 536 l 47 654 l 854 654 q 875 805 869 736 q 882 951 881 874 l 188 951 l 188 1071 l 1029 1071 z "},"궈":{"ha":1214,"x_min":35,"x_max":1085,"o":"m 1085 1124 l 1085 -112 l 935 -112 l 935 225 l 674 225 l 674 343 l 935 343 l 935 1124 l 1085 1124 m 35 553 q 554 565 378 556 q 585 907 582 728 l 138 907 l 138 1029 l 733 1029 l 733 953 q 728 771 733 857 q 704 575 724 685 q 844 589 799 583 l 854 481 q 503 446 692 457 l 503 -53 l 351 -53 l 351 439 q 54 433 211 433 l 35 553 z "},"궉":{"ha":1214,"x_min":38,"x_max":1086,"o":"m 1086 1125 l 1086 333 l 935 333 l 935 418 l 682 418 l 682 528 l 935 528 l 935 1125 l 1086 1125 m 38 690 q 560 703 382 693 q 588 946 585 826 l 154 946 l 154 1067 l 733 1067 l 733 1007 q 729 865 733 933 q 710 713 725 796 l 839 725 l 849 618 q 499 583 689 594 l 499 335 l 349 335 l 349 575 q 56 571 193 571 l 38 690 m 226 282 l 1085 282 l 1085 -111 l 933 -111 l 933 164 l 226 164 l 226 282 z "},"권":{"ha":1214,"x_min":39,"x_max":1113,"o":"m 1083 1124 l 1083 193 l 933 193 l 933 342 l 682 342 l 682 458 l 933 458 l 933 1124 l 1083 1124 m 39 649 q 558 661 353 649 q 585 936 582 803 l 153 936 l 153 1056 l 736 1056 l 736 1011 q 731 853 736 932 q 710 672 726 774 q 836 688 753 676 l 846 581 q 522 542 697 556 l 522 269 l 374 269 l 374 533 q 58 526 233 526 l 39 649 m 214 288 l 364 288 l 364 33 l 1113 33 l 1113 -89 l 214 -89 l 214 288 z "},"궐":{"ha":1214,"x_min":43,"x_max":1126,"o":"m 1085 1124 l 1085 429 l 933 429 l 933 490 l 681 490 l 681 589 l 933 589 l 933 1124 l 1085 1124 m 43 731 q 558 744 382 733 q 583 958 578 847 l 161 958 l 161 1078 l 729 1078 l 729 1036 q 706 757 729 883 q 843 772 757 761 l 854 669 q 497 631 689 642 l 497 431 l 347 431 l 347 622 q 63 618 193 618 l 43 731 m 238 388 l 1085 388 l 1085 96 l 388 96 l 388 8 l 1126 8 l 1126 -101 l 239 -101 l 239 197 l 936 197 l 936 278 l 238 278 l 238 388 z "},"궜":{"ha":1214,"x_min":36,"x_max":1178,"o":"m 1083 1124 l 1083 381 l 933 381 l 933 449 l 681 449 l 681 560 l 933 560 l 933 1124 l 1083 1124 m 36 715 q 561 729 382 718 q 585 956 582 849 l 153 956 l 153 1075 l 732 1075 l 732 1017 q 728 883 732 947 q 711 742 725 819 q 838 757 754 746 l 846 650 q 497 610 671 619 l 497 383 l 347 383 l 347 601 q 54 594 217 594 l 36 715 m 136 19 q 308 136 249 57 q 367 310 367 215 l 367 339 l 511 339 l 511 310 q 547 162 511 233 q 654 42 583 90 q 763 163 726 92 q 800 310 800 235 l 800 339 l 949 339 l 949 310 q 1007 133 949 213 q 1178 19 1065 54 l 1106 -92 q 872 118 939 -33 q 656 -101 808 -42 q 439 114 504 -42 q 349 -10 407 43 q 208 -92 290 -62 l 136 19 z "},"궝":{"ha":1214,"x_min":42,"x_max":1094,"o":"m 1085 1125 l 1085 342 l 933 342 l 933 422 l 682 422 l 682 531 l 933 531 l 933 1125 l 1085 1125 m 42 688 q 560 700 354 688 q 589 947 586 824 l 157 947 l 157 1067 l 736 1067 l 736 1001 q 732 861 736 928 q 711 713 728 794 l 842 729 l 851 624 q 497 583 692 594 l 497 351 l 347 351 l 347 575 q 60 569 210 569 l 42 688 m 238 110 q 351 272 238 214 q 667 331 465 331 q 981 273 868 331 q 1094 110 1094 215 q 981 -54 1094 4 q 667 -112 868 -112 q 351 -54 465 -112 q 238 110 238 4 m 392 110 q 667 4 392 4 q 940 110 940 4 q 871 188 940 161 q 667 214 801 214 q 462 188 532 214 q 392 110 392 161 z "},"궤":{"ha":1214,"x_min":32,"x_max":1114,"o":"m 1114 1125 l 1114 -112 l 971 -112 l 971 1125 l 1114 1125 m 32 567 q 424 576 260 567 q 456 872 453 722 l 97 872 l 97 993 l 597 993 l 597 933 q 592 768 597 849 q 568 586 588 688 q 665 597 606 589 l 676 492 q 424 460 575 472 l 424 -10 l 279 -10 l 279 451 q 47 446 167 446 l 32 567 m 525 356 l 729 356 l 729 1099 l 869 1099 l 869 -50 l 729 -50 l 729 236 l 525 236 l 525 356 z "},"궷":{"ha":1214,"x_min":32,"x_max":1138,"o":"m 1104 1125 l 1104 240 l 961 240 l 961 1125 l 1104 1125 m 32 678 q 422 688 258 678 q 449 919 446 806 l 108 919 l 108 1039 l 593 1039 l 593 985 q 589 847 593 914 q 568 697 585 781 q 668 708 607 700 l 678 603 q 428 571 579 583 l 428 281 l 286 281 l 286 561 q 49 556 169 556 l 32 678 m 185 6 q 402 58 311 19 q 541 151 493 96 q 589 272 589 207 l 589 296 l 740 296 l 740 272 q 788 151 740 207 q 924 58 835 96 q 1138 6 1014 19 l 1083 -110 q 828 -36 936 -90 q 664 100 719 18 q 497 -36 607 18 q 238 -110 386 -90 l 185 6 m 518 515 l 725 515 l 725 1099 l 865 1099 l 865 304 l 725 304 l 725 406 l 518 406 l 518 515 z "},"궸":{"ha":1214,"x_min":32,"x_max":1179,"o":"m 1103 1125 l 1103 363 l 960 363 l 960 1125 l 1103 1125 m 32 699 q 421 708 257 699 q 449 932 446 821 l 107 932 l 107 1051 l 593 1051 l 593 1000 q 589 865 593 931 q 568 719 585 800 q 668 731 607 722 l 678 626 q 428 596 551 604 l 428 371 l 286 371 l 286 588 q 47 582 169 582 l 32 699 m 103 14 q 280 126 218 49 q 342 294 342 203 l 342 321 l 486 321 l 486 294 q 525 149 486 219 q 639 33 564 79 q 754 151 715 82 q 793 294 793 221 l 793 321 l 940 321 l 940 294 q 1002 123 940 200 q 1179 14 1064 46 l 1108 -96 q 865 111 935 -42 q 778 -20 835 38 q 640 -108 722 -78 q 501 -22 557 -78 q 414 107 444 33 q 319 -16 379 36 q 172 -96 258 -68 l 103 14 m 518 544 l 724 544 l 724 1101 l 864 1101 l 864 371 l 724 371 l 724 436 l 518 436 l 518 544 z "},"귀":{"ha":1214,"x_min":42,"x_max":1088,"o":"m 1088 1125 l 1088 -112 l 938 -112 l 938 1125 l 1088 1125 m 42 547 q 550 558 315 547 q 585 913 582 733 l 144 913 l 144 1035 l 733 1035 l 733 972 q 728 783 733 876 q 701 568 722 690 q 860 582 806 576 l 871 471 q 515 438 724 450 l 515 -43 l 364 -43 l 364 431 q 61 425 224 425 l 42 547 z "},"귁":{"ha":1214,"x_min":43,"x_max":1069,"o":"m 1069 1125 l 1069 385 l 919 385 l 919 1125 l 1069 1125 m 43 644 q 551 658 349 644 q 581 943 578 792 l 154 943 l 154 1063 l 729 1063 l 729 986 q 725 830 729 901 q 704 671 721 758 q 844 688 776 678 l 853 578 q 519 539 699 550 l 519 328 l 1069 328 l 1069 -117 l 919 -117 l 919 206 l 222 206 l 222 328 l 368 328 l 368 531 q 63 524 231 524 l 43 644 z "},"귄":{"ha":1214,"x_min":46,"x_max":1101,"o":"m 46 617 q 567 629 357 617 q 594 924 592 779 l 156 924 l 156 1043 l 743 1043 l 743 986 q 739 823 743 903 q 718 640 735 743 q 846 656 767 644 l 856 550 q 547 511 713 525 l 547 249 l 397 249 l 397 501 q 65 494 249 494 l 46 617 m 215 289 l 364 289 l 364 33 l 1101 33 l 1101 -89 l 215 -89 l 215 289 m 919 1124 l 1069 1124 l 1069 200 l 919 200 l 919 1124 z "},"귈":{"ha":1214,"x_min":46,"x_max":1111,"o":"m 1068 1124 l 1068 486 l 919 486 l 919 1124 l 1068 1124 m 46 700 q 560 711 353 700 q 586 954 583 836 l 160 954 l 160 1074 l 735 1074 l 735 1017 q 731 874 735 943 q 711 721 726 806 q 844 735 799 729 l 853 629 q 513 596 711 608 l 513 432 l 1068 432 l 1068 117 l 393 117 l 393 14 l 1111 14 l 1111 -101 l 243 -101 l 243 224 l 918 224 l 918 318 l 240 318 l 240 432 l 364 432 l 364 589 q 65 582 264 585 l 46 700 z "},"귐":{"ha":1214,"x_min":43,"x_max":1069,"o":"m 1069 1124 l 1069 408 l 919 408 l 919 1124 l 1069 1124 m 43 639 q 557 653 353 639 q 581 935 581 793 l 154 935 l 154 1056 l 729 1056 l 729 974 q 726 819 729 889 q 710 665 722 750 q 844 682 776 671 l 853 574 q 522 533 706 547 l 522 346 l 1069 346 l 1069 -97 l 253 -97 l 253 346 l 372 346 l 372 525 q 63 518 233 518 l 43 639 m 922 22 l 922 228 l 401 228 l 401 22 l 922 22 z "},"귑":{"ha":1214,"x_min":42,"x_max":1069,"o":"m 1069 1124 l 1069 422 l 919 422 l 919 1124 l 1069 1124 m 42 690 q 558 701 351 690 q 579 833 574 774 q 586 961 585 893 l 154 961 l 154 1082 l 736 1082 l 736 1004 q 732 858 736 925 q 711 711 728 790 l 842 724 l 851 617 q 514 582 697 593 l 514 389 l 364 389 l 364 574 q 61 567 263 569 l 42 690 m 236 369 l 386 369 l 386 256 l 921 256 l 921 369 l 1069 369 l 1069 -97 l 236 -97 l 236 369 m 921 22 l 921 142 l 386 142 l 386 22 l 921 22 z "},"귓":{"ha":1214,"x_min":47,"x_max":1154,"o":"m 1067 1124 l 1067 254 l 915 254 l 915 1124 l 1067 1124 m 47 642 q 557 654 354 642 q 578 801 572 735 q 585 942 583 867 l 161 942 l 161 1063 l 732 1063 l 732 985 q 728 826 732 899 q 708 665 724 754 q 839 681 753 669 l 849 572 q 503 533 685 544 l 503 278 l 351 278 l 351 526 q 67 521 217 521 l 47 642 m 211 10 q 426 69 335 25 q 565 175 517 113 q 613 310 613 238 l 613 347 l 765 347 l 765 310 q 813 175 765 238 q 947 69 860 113 q 1154 10 1035 25 l 1097 -108 q 849 -24 954 -85 q 690 125 744 36 q 525 -24 635 36 q 268 -108 415 -85 l 211 10 z "},"귕":{"ha":1214,"x_min":49,"x_max":1075,"o":"m 1068 1124 l 1068 356 l 917 356 l 917 1124 l 1068 1124 m 49 633 q 558 644 351 633 q 585 939 585 792 l 163 939 l 163 1058 l 733 1058 l 733 981 q 729 820 733 894 q 708 656 725 746 q 840 671 758 660 l 850 563 q 503 524 688 535 l 503 343 q 650 353 581 353 q 962 291 849 353 q 1075 119 1075 229 q 962 -50 1075 11 q 650 -111 849 -111 q 338 -50 450 -111 q 225 119 225 11 q 258 223 225 178 q 353 299 290 268 l 353 517 q 68 511 218 511 l 49 633 m 381 119 q 451 36 381 65 q 650 7 521 7 q 850 36 779 7 q 921 119 921 65 q 851 206 921 176 q 650 236 781 236 q 451 206 521 236 q 381 119 381 176 z "},"규":{"ha":1214,"x_min":47,"x_max":1165,"o":"m 1018 1050 l 1018 967 q 1012 749 1018 850 q 982 515 1006 649 l 1165 515 l 1165 394 l 889 394 l 889 -112 l 738 -112 l 738 394 l 464 394 l 464 -112 l 313 -112 l 313 394 l 47 394 l 47 515 l 831 515 q 862 734 854 636 q 869 929 869 832 l 183 929 l 183 1050 l 1018 1050 z "},"균":{"ha":1214,"x_min":47,"x_max":1167,"o":"m 1031 1061 l 1031 961 q 1026 779 1031 858 q 1004 603 1022 700 l 1167 603 l 1167 482 l 875 482 l 875 203 l 729 203 l 729 482 l 567 482 l 567 203 l 419 203 l 419 482 l 47 482 l 47 603 l 853 603 q 876 774 871 697 q 882 943 882 850 l 183 943 l 183 1061 l 1031 1061 m 172 310 l 322 310 l 322 33 l 1064 33 l 1064 -87 l 172 -87 l 172 310 z "},"귤":{"ha":1214,"x_min":47,"x_max":1167,"o":"m 1029 1076 l 1029 996 q 1026 843 1029 911 q 1007 693 1022 775 l 1167 693 l 1167 574 l 881 574 l 881 440 l 1029 440 l 1029 119 l 326 119 l 326 17 l 1060 17 l 1060 -100 l 178 -100 l 178 225 l 881 225 l 881 322 l 175 322 l 175 440 l 332 440 l 332 574 l 47 574 l 47 693 l 856 693 q 882 958 882 822 l 188 958 l 188 1076 l 1029 1076 m 731 440 l 731 574 l 481 574 l 481 440 l 731 440 z "},"귬":{"ha":1214,"x_min":47,"x_max":1167,"o":"m 1028 1072 l 1028 978 q 1024 809 1028 883 q 1001 646 1019 735 l 1167 646 l 1167 526 l 881 526 l 881 343 l 1028 343 l 1028 -96 l 182 -96 l 182 343 l 332 343 l 332 526 l 47 526 l 47 646 l 850 646 q 875 801 869 731 q 881 953 881 872 l 183 953 l 183 1072 l 1028 1072 m 881 22 l 881 226 l 328 226 l 328 22 l 881 22 m 731 343 l 731 526 l 481 526 l 481 343 l 731 343 z "},"그":{"ha":1214,"x_min":47,"x_max":1165,"o":"m 1022 1001 l 1022 865 q 1015 569 1022 697 q 976 268 1007 440 l 826 281 q 866 571 858 443 q 874 865 874 699 l 874 882 l 164 882 l 164 1001 l 1022 1001 m 47 181 l 1165 181 l 1165 58 l 47 58 l 47 181 z "},"극":{"ha":1214,"x_min":47,"x_max":1167,"o":"m 1029 1068 l 1029 982 q 1025 801 1029 883 q 1003 614 1021 718 l 1167 614 l 1167 494 l 47 494 l 47 614 l 851 614 q 882 947 882 776 l 188 947 l 188 1068 l 1029 1068 m 165 332 l 1035 332 l 1035 -114 l 885 -114 l 885 213 l 165 213 l 165 332 z "},"근":{"ha":1214,"x_min":47,"x_max":1167,"o":"m 1031 1053 l 1031 951 q 1026 759 1031 843 q 1001 569 1021 675 l 1167 569 l 1167 447 l 47 447 l 47 569 l 850 569 q 876 751 871 669 q 882 932 882 833 l 188 932 l 188 1053 l 1031 1053 m 190 328 l 340 328 l 340 35 l 1067 35 l 1067 -87 l 190 -87 l 190 328 z "},"귿":{"ha":1214,"x_min":47,"x_max":1167,"o":"m 1029 1064 l 1029 969 q 1024 792 1029 869 q 1000 618 1019 714 l 1167 618 l 1167 497 l 47 497 l 47 618 l 850 618 q 876 785 869 710 q 882 944 882 860 l 186 944 l 186 1064 l 1029 1064 m 182 354 l 1032 354 l 1032 235 l 331 235 l 331 22 l 1046 22 l 1046 -97 l 182 -97 l 182 354 z "},"글":{"ha":1214,"x_min":47,"x_max":1167,"o":"m 1029 1074 l 1029 992 q 1025 835 1029 906 q 1004 679 1021 764 l 1167 679 l 1167 558 l 47 558 l 47 679 l 854 679 q 882 953 882 810 l 188 953 l 188 1074 l 1029 1074 m 175 458 l 1029 458 l 1029 125 l 326 125 l 326 17 l 1060 17 l 1060 -100 l 178 -100 l 178 236 l 881 236 l 881 342 l 175 342 l 175 458 z "},"긁":{"ha":1214,"x_min":47,"x_max":1167,"o":"m 1029 1069 l 1029 985 q 1024 818 1029 892 q 1001 650 1019 744 l 1167 650 l 1167 529 l 47 529 l 47 650 l 850 650 q 882 950 882 792 l 188 950 l 188 1069 l 1029 1069 m 164 415 l 575 415 l 575 108 l 311 108 l 311 11 q 524 18 451 13 q 663 40 596 24 l 679 -72 q 512 -94 599 -89 q 246 -100 425 -100 l 165 -100 l 165 215 l 432 215 l 432 304 l 164 304 l 164 415 m 640 415 l 1036 415 l 1036 -108 l 890 -108 l 890 296 l 640 296 l 640 415 z "},"긂":{"ha":1214,"x_min":47,"x_max":1167,"o":"m 563 422 l 563 115 l 310 115 l 310 10 q 467 15 410 11 q 585 29 525 18 l 596 -81 q 453 -98 525 -94 q 233 -101 382 -101 l 164 -101 l 164 219 l 417 219 l 417 311 l 161 311 l 161 422 l 563 422 m 47 653 l 851 653 q 882 950 882 794 l 188 950 l 188 1069 l 1029 1069 l 1029 985 q 1024 819 1029 893 q 1001 653 1019 746 l 1167 653 l 1167 533 l 47 533 l 47 653 m 635 422 l 1039 422 l 1039 -101 l 635 -101 l 635 422 m 913 10 l 913 310 l 761 310 l 761 10 l 913 10 z "},"긇":{"ha":1214,"x_min":47,"x_max":1167,"o":"m 776 367 l 776 463 l 924 463 l 924 367 l 1115 367 l 1115 257 l 589 257 l 589 367 l 776 367 m 47 653 l 851 653 q 882 950 882 794 l 188 950 l 188 1069 l 1029 1069 l 1029 985 q 1024 819 1029 893 q 1001 653 1019 746 l 1167 653 l 1167 535 l 47 535 l 47 653 m 158 422 l 546 422 l 546 117 l 301 117 l 301 14 q 471 18 410 14 q 593 35 532 22 l 607 -76 q 465 -93 535 -90 q 231 -96 394 -96 l 161 -96 l 161 222 l 404 222 l 404 313 l 158 313 l 158 422 m 636 53 q 696 172 636 128 q 851 217 756 217 q 1007 172 947 217 q 1067 53 1067 128 q 1006 -67 1067 -22 q 851 -112 946 -112 q 696 -67 756 -112 q 636 53 636 -22 m 763 53 q 787 3 763 21 q 851 -14 811 -14 q 914 3 890 -14 q 938 53 938 21 q 914 101 938 85 q 851 118 890 118 q 787 101 811 118 q 763 53 763 85 z "},"금":{"ha":1214,"x_min":47,"x_max":1167,"o":"m 1029 1064 l 1029 968 q 1024 790 1029 868 q 999 615 1019 713 l 1167 615 l 1167 496 l 47 496 l 47 615 l 849 615 q 876 782 869 706 q 882 943 882 858 l 188 943 l 188 1064 l 1029 1064 m 182 350 l 1028 350 l 1028 -96 l 182 -96 l 182 350 m 881 22 l 881 232 l 328 232 l 328 22 l 881 22 z "},"급":{"ha":1214,"x_min":47,"x_max":1167,"o":"m 333 418 l 333 276 l 879 276 l 879 418 l 1028 418 l 1028 -96 l 186 -96 l 186 418 l 333 418 m 47 633 l 851 633 q 876 796 871 722 q 882 951 882 869 l 188 951 l 188 1071 l 1029 1071 l 1029 976 q 1024 804 1029 879 q 1000 633 1019 729 l 1167 633 l 1167 511 l 47 511 l 47 633 m 879 24 l 879 158 l 333 158 l 333 24 l 879 24 z "},"긋":{"ha":1214,"x_min":49,"x_max":1161,"o":"m 1024 1063 l 1024 976 q 1018 785 1024 872 q 990 585 1013 697 l 1161 585 l 1161 464 l 49 464 l 49 585 l 842 585 q 875 943 875 758 l 183 943 l 183 1063 l 1024 1063 m 122 8 q 336 70 244 25 q 476 179 428 115 q 525 314 525 243 l 525 360 l 675 360 l 675 314 q 724 179 675 243 q 865 70 772 115 q 1081 8 957 25 l 1025 -107 q 768 -24 878 -85 q 601 126 658 36 q 434 -24 544 36 q 176 -107 324 -85 l 122 8 z "},"긍":{"ha":1214,"x_min":47,"x_max":1165,"o":"m 1029 1063 l 1029 968 q 1024 787 1029 867 q 999 608 1019 707 l 1165 608 l 1165 488 l 47 488 l 47 608 l 847 608 q 876 778 869 701 q 882 943 882 856 l 188 943 l 188 1063 l 1029 1063 m 174 128 q 289 301 174 239 q 604 364 404 364 q 922 302 807 364 q 1036 128 1036 240 q 922 -47 1036 15 q 604 -110 807 -110 q 289 -47 404 -110 q 174 128 174 15 m 324 128 q 397 40 324 71 q 604 10 471 10 q 813 40 739 10 q 886 128 886 71 q 813 215 886 186 q 604 244 740 244 q 397 215 469 244 q 324 128 324 185 z "},"긓":{"ha":1214,"x_min":47,"x_max":1167,"o":"m 529 392 l 529 496 l 679 496 l 679 392 l 1061 392 l 1061 279 l 149 279 l 149 392 l 529 392 m 47 679 l 854 679 q 882 953 882 810 l 188 953 l 188 1074 l 1029 1074 l 1029 992 q 1025 835 1029 906 q 1004 679 1021 764 l 1167 679 l 1167 558 l 47 558 l 47 679 m 231 61 q 326 190 231 146 q 604 233 422 233 q 881 190 785 233 q 978 61 978 146 q 881 -67 978 -22 q 604 -111 785 -111 q 327 -67 424 -111 q 231 61 231 -24 m 386 61 q 604 -7 386 -7 q 821 61 821 -7 q 604 129 821 129 q 386 61 386 129 z "},"긔":{"ha":1214,"x_min":50,"x_max":1061,"o":"m 753 982 l 753 881 q 747 656 753 757 q 715 425 740 554 l 568 443 q 599 656 592 561 q 606 863 606 751 l 133 863 l 133 982 l 753 982 m 50 307 q 473 315 276 307 q 843 346 669 322 l 851 235 q 484 193 674 203 q 67 182 294 183 l 50 307 m 910 1125 l 1061 1125 l 1061 -112 l 910 -112 l 910 1125 z "},"기":{"ha":1214,"x_min":57,"x_max":1071,"o":"m 1071 1125 l 1071 -112 l 921 -112 l 921 1125 l 1071 1125 m 57 225 q 415 499 294 339 q 554 874 535 658 l 119 874 l 119 994 l 706 994 q 574 477 706 700 q 136 106 442 254 l 57 225 z "},"긱":{"ha":1214,"x_min":58,"x_max":1068,"o":"m 699 1049 q 547 643 699 808 q 117 403 396 478 l 58 521 q 396 682 274 576 q 538 929 518 788 l 129 929 l 129 1049 l 699 1049 m 235 350 l 1068 350 l 1068 -114 l 918 -114 l 918 229 l 235 229 l 235 350 m 918 1124 l 1068 1124 l 1068 403 l 918 403 l 918 1124 z "},"긴":{"ha":1214,"x_min":67,"x_max":1094,"o":"m 1067 1124 l 1067 226 l 915 226 l 915 1124 l 1067 1124 m 67 474 q 403 650 278 538 q 547 908 528 763 l 135 908 l 135 1032 l 708 1032 q 557 613 708 786 q 125 356 406 439 l 67 474 m 254 300 l 404 300 l 404 32 l 1094 32 l 1094 -89 l 254 -89 l 254 300 z "},"긷":{"ha":1214,"x_min":58,"x_max":1100,"o":"m 686 1049 q 539 647 686 811 q 117 407 392 482 l 58 525 q 387 685 267 581 q 526 928 507 789 l 122 928 l 122 1049 l 686 1049 m 269 368 l 1078 368 l 1078 247 l 422 247 l 422 24 l 1100 24 l 1100 -97 l 269 -97 l 269 368 m 925 1124 l 1076 1124 l 1076 428 l 925 428 l 925 1124 z "},"길":{"ha":1214,"x_min":68,"x_max":1104,"o":"m 1067 1124 l 1067 500 l 917 500 l 917 1124 l 1067 1124 m 68 594 q 404 729 290 638 q 532 950 518 821 l 132 950 l 132 1071 l 699 1071 q 553 681 699 828 q 119 474 408 535 l 68 594 m 254 444 l 1067 444 l 1067 124 l 407 124 l 407 18 l 1104 18 l 1104 -100 l 257 -100 l 257 233 l 917 233 l 917 328 l 254 328 l 254 444 z "},"긺":{"ha":1214,"x_min":68,"x_max":1068,"o":"m 1068 1124 l 1068 478 l 917 478 l 917 1124 l 1068 1124 m 68 583 q 401 723 285 629 q 533 947 518 817 l 129 947 l 129 1067 l 699 1067 q 551 677 699 828 q 121 465 404 526 l 68 583 m 197 419 l 607 419 l 607 117 l 342 117 l 342 17 q 501 22 440 18 q 624 39 561 26 l 636 -76 q 484 -94 558 -90 q 269 -99 410 -99 l 200 -99 l 200 221 l 464 221 l 464 307 l 197 307 l 197 419 m 668 419 l 1068 419 l 1068 -99 l 668 -99 l 668 419 m 940 11 l 940 310 l 796 310 l 796 11 l 940 11 z "},"김":{"ha":1214,"x_min":57,"x_max":1068,"o":"m 697 1049 q 545 645 697 810 q 115 408 393 481 l 57 528 q 394 687 271 582 q 536 929 517 792 l 128 929 l 128 1049 l 697 1049 m 260 375 l 1068 375 l 1068 -97 l 260 -97 l 260 375 m 921 22 l 921 257 l 408 257 l 408 22 l 921 22 m 918 1124 l 1068 1124 l 1068 432 l 918 432 l 918 1124 z "},"깁":{"ha":1214,"x_min":64,"x_max":1068,"o":"m 1068 1124 l 1068 453 l 918 453 l 918 1124 l 1068 1124 m 64 561 q 404 706 289 610 q 535 938 519 803 l 129 938 l 129 1058 l 700 1058 q 117 443 700 576 l 64 561 m 258 403 l 408 403 l 408 269 l 919 269 l 919 403 l 1068 403 l 1068 -97 l 258 -97 l 258 403 m 919 24 l 919 151 l 408 151 l 408 24 l 919 24 z "},"깃":{"ha":1214,"x_min":64,"x_max":1132,"o":"m 1065 1124 l 1065 301 l 915 301 l 915 1124 l 1065 1124 m 64 478 q 401 651 279 540 q 542 908 522 761 l 132 908 l 132 1031 l 700 1031 q 551 613 700 783 q 121 358 403 443 l 64 478 m 182 8 q 392 74 301 26 q 531 190 482 122 q 579 336 579 258 l 579 379 l 736 379 l 736 336 q 784 192 736 260 q 922 75 832 124 q 1132 8 1011 26 l 1074 -108 q 819 -17 928 -83 q 657 146 711 49 q 492 -17 601 49 q 239 -108 383 -83 l 182 8 z "},"깄":{"ha":1214,"x_min":56,"x_max":1174,"o":"m 696 1049 q 544 646 696 811 q 114 408 392 481 l 56 528 q 392 687 269 582 q 535 929 515 792 l 125 929 l 125 1049 l 696 1049 m 99 10 q 275 137 214 51 q 336 318 336 222 l 336 389 l 482 389 l 482 318 q 519 160 482 235 q 633 35 557 85 q 749 166 710 89 q 788 318 788 243 l 788 389 l 936 389 l 936 318 q 997 133 936 217 q 1174 10 1057 49 l 1100 -99 q 860 122 929 -39 q 773 -17 829 44 q 636 -111 717 -78 q 496 -19 553 -79 q 408 118 439 40 q 316 -12 375 44 q 174 -99 257 -68 l 99 10 m 915 1125 l 1067 1125 l 1067 428 l 915 428 l 915 1125 z "},"깅":{"ha":1214,"x_min":57,"x_max":1072,"o":"m 1065 1124 l 1065 390 l 914 390 l 914 1124 l 1065 1124 m 57 496 q 391 665 265 556 q 536 917 517 775 l 128 917 l 128 1039 l 696 1039 q 542 627 696 797 q 115 379 389 457 l 57 496 m 235 135 q 347 314 235 249 q 654 379 460 379 q 960 314 849 379 q 1072 135 1072 249 q 960 -46 1072 19 q 654 -111 849 -111 q 347 -46 460 -111 q 235 135 235 19 m 385 135 q 455 41 385 74 q 654 8 525 8 q 853 41 782 8 q 924 135 924 74 q 853 228 924 196 q 654 260 782 260 q 454 228 524 260 q 385 135 385 196 z "},"깆":{"ha":1214,"x_min":63,"x_max":1129,"o":"m 697 1047 q 547 649 697 808 q 114 419 396 489 l 63 539 q 397 693 276 592 q 535 928 518 794 l 126 928 l 126 1047 l 697 1047 m 206 4 q 406 56 321 18 q 538 145 492 93 q 588 254 585 197 l 258 254 l 258 375 l 1078 375 l 1078 254 l 742 254 q 792 144 744 196 q 926 56 839 93 q 1129 4 1013 18 l 1078 -110 q 826 -36 933 -90 q 665 99 719 18 q 505 -36 611 18 q 256 -110 399 -90 l 206 4 m 914 1124 l 1065 1124 l 1065 435 l 914 435 l 914 1124 z "},"깊":{"ha":1214,"x_min":71,"x_max":1096,"o":"m 711 1042 q 559 649 711 806 q 131 426 407 492 l 71 546 q 409 692 286 593 q 549 921 532 790 l 133 921 l 133 1042 l 711 1042 m 238 26 l 404 26 l 404 274 l 250 274 l 250 392 l 1082 392 l 1082 274 l 928 274 l 928 26 l 1096 26 l 1096 -93 l 238 -93 l 238 26 m 781 26 l 781 274 l 550 274 l 550 26 l 781 26 m 915 1124 l 1067 1124 l 1067 456 l 915 456 l 915 1124 z "},"까":{"ha":1214,"x_min":29,"x_max":1194,"o":"m 1024 1125 l 1024 631 l 1194 631 l 1194 504 l 1024 504 l 1024 -112 l 874 -112 l 874 1125 l 1024 1125 m 29 240 q 208 524 154 374 q 271 872 263 675 l 78 872 l 78 994 l 414 994 q 392 674 414 817 q 313 401 371 532 q 149 156 254 271 l 29 240 m 378 158 q 552 478 501 307 q 611 872 603 650 l 454 872 l 454 994 l 751 994 q 732 650 751 804 q 657 349 713 496 q 497 75 601 203 l 378 158 z "},"깍":{"ha":1214,"x_min":39,"x_max":1185,"o":"m 1014 1124 l 1014 803 l 1185 803 l 1185 678 l 1014 678 l 1014 388 l 864 388 l 864 1124 l 1014 1124 m 39 556 q 202 713 149 629 q 269 917 256 797 l 82 917 l 82 1038 l 411 1038 q 349 705 411 840 q 133 461 288 569 l 39 556 m 199 335 l 1014 335 l 1014 -114 l 864 -114 l 864 213 l 199 213 l 199 335 m 386 497 q 549 683 496 583 q 615 917 603 783 l 458 917 l 458 1038 l 757 1038 q 697 681 757 831 q 492 408 638 531 l 386 497 z "},"깎":{"ha":1214,"x_min":39,"x_max":1185,"o":"m 1014 1124 l 1014 828 l 1185 828 l 1185 703 l 1014 703 l 1014 413 l 864 413 l 864 1124 l 1014 1124 m 39 565 q 202 723 149 639 q 269 926 256 807 l 82 926 l 82 1046 l 411 1046 q 349 714 411 849 q 136 474 288 579 l 39 565 m 161 356 l 565 356 l 565 -114 l 417 -114 l 417 235 l 161 235 l 161 356 m 386 510 q 549 694 496 596 q 615 926 603 793 l 458 926 l 458 1046 l 757 1046 q 697 693 757 842 q 492 424 638 544 l 386 510 m 618 356 l 1014 356 l 1014 -114 l 865 -114 l 865 235 l 618 235 l 618 356 z "},"깐":{"ha":1214,"x_min":40,"x_max":1185,"o":"m 411 1022 q 349 665 411 815 q 138 396 288 515 l 40 489 q 203 671 149 575 q 269 900 257 767 l 82 900 l 82 1022 l 411 1022 m 218 296 l 368 296 l 368 33 l 1058 33 l 1058 -89 l 218 -89 l 218 296 m 381 436 q 549 642 494 532 q 615 900 604 753 l 456 900 l 456 1022 l 757 1022 q 696 637 757 800 q 479 343 635 474 l 381 436 m 864 1124 l 1014 1124 l 1014 743 l 1185 743 l 1185 619 l 1014 619 l 1014 221 l 864 221 l 864 1124 z "},"깔":{"ha":1214,"x_min":40,"x_max":1185,"o":"m 1014 1124 l 1014 872 l 1185 872 l 1185 749 l 1014 749 l 1014 497 l 864 497 l 864 1124 l 1014 1124 m 40 617 q 195 758 143 685 q 263 940 247 832 l 76 940 l 76 1060 l 407 1060 q 344 751 407 875 q 138 524 282 626 l 40 617 m 207 443 l 1014 443 l 1014 122 l 357 122 l 357 21 l 1058 21 l 1058 -97 l 208 -97 l 208 232 l 865 232 l 865 326 l 207 326 l 207 443 m 388 571 q 547 733 494 647 q 613 940 599 819 l 453 940 l 453 1060 l 756 1060 q 696 729 756 865 q 492 482 636 593 l 388 571 z "},"깖":{"ha":1214,"x_min":42,"x_max":1185,"o":"m 1014 1124 l 1014 867 l 1185 867 l 1185 744 l 1014 744 l 1014 476 l 864 476 l 864 1124 l 1014 1124 m 42 615 q 197 757 144 683 q 263 938 249 831 l 76 938 l 76 1057 l 407 1057 q 344 749 407 872 q 138 522 282 625 l 42 615 m 146 414 l 546 414 l 546 113 l 293 113 l 293 13 q 444 18 383 14 q 568 35 504 22 l 579 -79 q 429 -97 503 -93 q 217 -100 356 -100 l 147 -100 l 147 218 l 400 218 l 400 303 l 146 303 l 146 414 m 388 558 q 549 726 496 638 q 614 938 601 814 l 451 938 l 451 1057 l 756 1057 q 697 721 756 858 q 492 471 638 583 l 388 558 m 614 414 l 1014 414 l 1014 -100 l 614 -100 l 614 414 m 883 10 l 883 304 l 743 304 l 743 10 l 883 10 z "},"깜":{"ha":1214,"x_min":40,"x_max":1185,"o":"m 411 1047 q 350 712 411 849 q 136 467 289 575 l 40 558 q 202 719 149 633 q 269 926 256 806 l 82 926 l 82 1047 l 411 1047 m 222 361 l 1014 361 l 1014 -97 l 222 -97 l 222 361 m 865 22 l 865 243 l 371 243 l 371 22 l 865 22 m 383 501 q 547 690 493 589 q 613 926 601 790 l 456 926 l 456 1047 l 754 1047 q 695 688 754 839 q 492 414 636 536 l 383 501 m 864 1122 l 1014 1122 l 1014 838 l 1185 838 l 1185 715 l 1014 715 l 1014 417 l 864 417 l 864 1122 z "},"깝":{"ha":1214,"x_min":40,"x_max":1185,"o":"m 411 1051 q 349 721 411 854 q 136 481 288 588 l 40 574 q 202 731 149 649 q 268 931 256 814 l 82 931 l 82 1051 l 411 1051 m 218 394 l 368 394 l 368 267 l 865 267 l 865 394 l 1014 394 l 1014 -97 l 218 -97 l 218 394 m 865 24 l 865 149 l 368 149 l 368 24 l 865 24 m 388 517 q 547 700 494 603 q 613 931 600 797 l 456 931 l 456 1051 l 754 1051 q 696 699 754 846 q 494 431 638 551 l 388 517 m 864 1122 l 1014 1122 l 1014 854 l 1185 854 l 1185 732 l 1014 732 l 1014 450 l 864 450 l 864 1122 z "},"깟":{"ha":1214,"x_min":43,"x_max":1185,"o":"m 407 1033 q 348 696 407 833 q 140 444 289 558 l 43 538 q 201 701 150 614 q 265 911 253 788 l 78 911 l 78 1033 l 407 1033 m 157 11 q 367 76 278 29 q 506 189 457 122 q 554 331 554 256 l 554 358 l 703 358 l 703 331 q 751 189 703 256 q 890 76 800 122 q 1100 11 981 29 l 1043 -107 q 793 -20 900 -83 q 629 136 686 43 q 465 -20 572 43 q 215 -107 358 -83 l 157 11 m 383 479 q 548 672 494 569 q 613 911 601 774 l 453 911 l 453 1033 l 754 1033 q 696 669 754 822 q 492 393 638 515 l 383 479 m 864 1124 l 1014 1124 l 1014 792 l 1185 792 l 1185 668 l 1014 668 l 1014 299 l 864 299 l 864 1124 z "},"깠":{"ha":1214,"x_min":46,"x_max":1185,"o":"m 417 1044 q 356 711 417 846 q 142 467 294 576 l 46 561 q 206 719 154 635 q 272 924 258 803 l 88 924 l 88 1044 l 417 1044 m 86 8 q 262 135 201 50 q 322 317 322 219 l 322 371 l 468 371 l 468 317 q 506 158 468 233 q 619 33 543 83 q 735 164 696 86 q 775 317 775 242 l 775 371 l 924 371 l 924 317 q 983 131 924 214 q 1158 8 1042 47 l 1083 -100 q 938 -13 997 -69 q 846 119 878 43 q 759 -19 815 42 q 622 -114 703 -81 q 394 115 463 -51 q 303 -14 361 42 q 163 -100 244 -69 l 86 8 m 389 503 q 552 690 499 590 q 617 924 606 789 l 460 924 l 460 1044 l 761 1044 q 701 686 761 836 q 496 414 642 536 l 389 503 m 864 1125 l 1014 1125 l 1014 838 l 1185 838 l 1185 714 l 1014 714 l 1014 426 l 864 426 l 864 1125 z "},"깡":{"ha":1214,"x_min":40,"x_max":1185,"o":"m 411 1047 q 350 712 411 849 q 136 467 289 575 l 40 558 q 202 719 149 633 q 269 926 256 806 l 82 926 l 82 1047 l 411 1047 m 201 128 q 313 304 201 240 q 614 368 424 368 q 916 304 806 368 q 1026 128 1026 240 q 916 -47 1026 17 q 614 -111 806 -111 q 313 -47 424 -111 q 201 128 201 17 m 350 128 q 419 39 350 69 q 614 8 488 8 q 809 39 740 8 q 878 128 878 69 q 810 218 878 188 q 614 249 742 249 q 418 218 486 249 q 350 128 350 188 m 385 507 q 547 693 494 594 q 613 926 600 792 l 456 926 l 456 1047 l 754 1047 q 695 690 754 840 q 492 419 636 540 l 385 507 m 864 1124 l 1014 1124 l 1014 833 l 1185 833 l 1185 710 l 1014 710 l 1014 401 l 864 401 l 864 1124 z "},"깥":{"ha":1214,"x_min":40,"x_max":1185,"o":"m 407 1054 q 344 744 407 868 q 138 517 282 619 l 40 610 q 194 751 142 676 q 263 933 247 825 l 76 933 l 76 1054 l 407 1054 m 222 404 l 1022 404 l 1022 297 l 372 297 l 372 208 l 1008 208 l 1008 104 l 372 104 l 372 10 l 1046 10 l 1046 -97 l 222 -97 l 222 404 m 388 565 q 547 727 494 642 q 613 933 599 813 l 453 933 l 453 1054 l 756 1054 q 696 722 756 858 q 492 476 636 586 l 388 565 m 864 1122 l 1014 1122 l 1014 856 l 1185 856 l 1185 731 l 1014 731 l 1014 463 l 864 463 l 864 1122 z "},"깨":{"ha":1214,"x_min":38,"x_max":1128,"o":"m 1128 1125 l 1128 -112 l 983 -112 l 983 521 l 867 521 l 867 -54 l 725 -54 l 725 1100 l 867 1100 l 867 643 l 983 643 l 983 1125 l 1128 1125 m 38 251 q 174 529 132 383 q 225 857 217 675 l 74 857 l 74 978 l 353 978 q 310 541 353 735 q 154 185 268 347 l 38 251 m 326 171 q 468 482 428 315 q 513 857 508 649 l 392 857 l 392 978 l 642 978 q 602 496 642 708 q 444 106 563 283 l 326 171 z "},"깩":{"ha":1214,"x_min":38,"x_max":1110,"o":"m 1110 1124 l 1110 399 l 968 399 l 968 706 l 856 706 l 856 406 l 715 406 l 715 1103 l 856 1103 l 856 828 l 968 828 l 968 1124 l 1110 1124 m 38 551 q 167 716 126 632 q 217 919 207 800 l 74 919 l 74 1040 l 356 1040 q 338 815 356 911 q 276 633 321 718 q 147 468 231 547 l 38 551 m 244 344 l 1110 344 l 1110 -114 l 961 -114 l 961 224 l 244 224 l 244 344 m 319 479 q 456 676 414 574 q 507 919 499 779 l 389 919 l 389 1040 l 647 1040 q 603 678 647 828 q 438 403 560 529 l 319 479 z "},"깬":{"ha":1214,"x_min":39,"x_max":1144,"o":"m 1110 1124 l 1110 214 l 968 214 l 968 639 l 856 639 l 856 250 l 714 250 l 714 1101 l 856 1101 l 856 761 l 968 761 l 968 1124 l 1110 1124 m 39 515 q 170 689 129 600 q 219 904 211 778 l 75 904 l 75 1025 l 358 1025 q 342 792 358 892 q 279 603 325 692 q 150 432 233 515 l 39 515 m 256 308 l 406 308 l 406 33 l 1144 33 l 1144 -89 l 256 -89 l 256 308 m 328 447 q 460 652 419 546 q 507 904 500 758 l 389 904 l 389 1025 l 644 1025 q 603 656 644 807 q 444 372 563 504 l 328 447 z "},"깯":{"ha":1214,"x_min":39,"x_max":1132,"o":"m 1118 353 l 1118 233 l 393 233 l 393 24 l 1132 24 l 1132 -97 l 242 -97 l 242 353 l 1118 353 m 39 564 q 166 727 126 644 q 215 929 206 810 l 71 929 l 71 1050 l 356 1050 q 338 824 356 921 q 276 644 321 728 q 150 482 232 561 l 39 564 m 331 494 q 458 689 419 589 q 506 929 497 789 l 389 929 l 389 1050 l 644 1050 q 629 803 644 910 q 572 601 614 697 q 450 417 529 506 l 331 494 m 714 1103 l 856 1103 l 856 828 l 968 828 l 968 1124 l 1110 1124 l 1110 417 l 968 417 l 968 706 l 856 706 l 856 424 l 714 424 l 714 1103 z "},"깰":{"ha":1214,"x_min":42,"x_max":1150,"o":"m 1110 1124 l 1110 489 l 968 489 l 968 736 l 854 736 l 854 494 l 714 494 l 714 1103 l 854 1103 l 854 857 l 968 857 l 968 1124 l 1110 1124 m 42 618 q 168 760 128 689 q 219 936 208 831 l 75 936 l 75 1057 l 356 1057 q 338 846 356 935 q 275 681 321 757 q 146 532 229 604 l 42 618 m 278 438 l 1110 438 l 1110 119 l 432 119 l 432 21 l 1150 21 l 1150 -97 l 281 -97 l 281 229 l 958 229 l 958 319 l 278 319 l 278 438 m 326 554 q 458 725 417 638 q 507 936 499 813 l 386 936 l 386 1057 l 646 1057 q 629 826 646 924 q 567 640 613 728 q 438 472 522 553 l 326 554 z "},"깸":{"ha":1214,"x_min":40,"x_max":1110,"o":"m 1110 1124 l 1110 417 l 968 417 l 968 706 l 856 706 l 856 424 l 715 424 l 715 1103 l 856 1103 l 856 828 l 968 828 l 968 1124 l 1110 1124 m 40 564 q 167 727 128 644 q 217 929 207 810 l 71 929 l 71 1050 l 356 1050 q 338 824 356 921 q 276 644 321 728 q 150 482 232 561 l 40 564 m 278 363 l 1110 363 l 1110 -97 l 278 -97 l 278 363 m 331 494 q 458 689 419 589 q 506 929 497 789 l 389 929 l 389 1050 l 646 1050 q 631 803 646 910 q 572 601 615 697 q 450 417 529 506 l 331 494 m 964 22 l 964 244 l 425 244 l 425 22 l 964 22 z "},"깹":{"ha":1214,"x_min":44,"x_max":1110,"o":"m 1110 1124 l 1110 451 l 967 451 l 967 719 l 858 719 l 858 460 l 717 460 l 717 1100 l 858 1100 l 858 840 l 967 840 l 967 1124 l 1110 1124 m 44 579 q 174 741 133 660 q 225 940 215 822 l 78 940 l 78 1061 l 363 1061 q 345 836 363 932 q 282 658 328 740 q 151 497 236 575 l 44 579 m 278 400 l 426 400 l 426 275 l 961 275 l 961 400 l 1110 400 l 1110 -97 l 278 -97 l 278 400 m 343 519 q 466 708 429 613 q 510 940 503 804 l 393 940 l 393 1061 l 647 1061 q 634 821 647 922 q 581 626 621 719 q 463 447 540 533 l 343 519 m 961 24 l 961 158 l 426 158 l 426 24 l 961 24 z "},"깻":{"ha":1214,"x_min":44,"x_max":1172,"o":"m 1110 1125 l 1110 322 l 967 322 l 967 696 l 856 696 l 856 425 l 715 425 l 715 1101 l 856 1101 l 856 817 l 967 817 l 967 1125 l 1110 1125 m 44 526 q 169 699 131 611 q 218 914 208 788 l 74 914 l 74 1035 l 354 1035 q 338 801 354 900 q 279 615 322 703 q 156 446 236 528 l 44 526 m 214 11 q 426 76 333 28 q 569 191 518 124 q 619 332 619 258 l 619 375 l 769 375 l 769 332 q 819 191 769 258 q 961 76 869 124 q 1172 11 1053 28 l 1114 -108 q 860 -19 969 -85 q 693 142 750 46 q 526 -19 636 46 q 272 -108 417 -85 l 214 11 m 326 449 q 460 658 419 549 q 507 914 500 767 l 386 914 l 386 1035 l 644 1035 q 603 663 644 817 q 444 374 563 508 l 326 449 z "},"깼":{"ha":1214,"x_min":42,"x_max":1197,"o":"m 1108 1124 l 1108 415 l 967 415 l 967 704 l 857 704 l 857 426 l 715 426 l 715 1101 l 857 1101 l 857 825 l 967 825 l 967 1124 l 1108 1124 m 42 558 q 169 718 129 636 q 218 917 208 800 l 72 917 l 72 1038 l 357 1038 q 340 815 357 910 q 278 636 322 719 q 150 475 233 553 l 42 558 m 124 10 q 299 135 238 50 q 361 314 361 219 l 361 367 l 507 367 l 507 314 q 544 158 507 232 q 657 33 582 83 q 773 163 733 86 q 813 314 813 240 l 813 367 l 960 367 l 960 314 q 1021 130 960 213 q 1197 10 1082 47 l 1124 -100 q 977 -12 1038 -69 q 885 121 917 44 q 660 -111 815 -49 q 433 114 499 -49 q 339 -14 399 42 q 197 -100 279 -69 l 124 10 m 333 494 q 459 683 421 585 q 506 917 497 781 l 388 917 l 388 1038 l 644 1038 q 629 797 644 900 q 572 599 614 693 q 450 417 529 504 l 333 494 z "},"깽":{"ha":1214,"x_min":43,"x_max":1122,"o":"m 1111 1124 l 1111 376 l 968 376 l 968 688 l 860 688 l 860 417 l 718 417 l 718 1101 l 860 1101 l 860 811 l 968 811 l 968 1124 l 1111 1124 m 43 538 q 171 701 131 618 q 221 906 211 785 l 75 906 l 75 1028 l 358 1028 q 342 801 358 897 q 281 619 325 704 q 154 456 236 535 l 43 538 m 268 124 q 320 249 268 196 q 469 330 372 301 q 696 358 565 358 q 922 330 825 358 q 1070 249 1018 301 q 1122 124 1122 196 q 1070 -1 1122 51 q 922 -83 1018 -54 q 696 -111 825 -111 q 469 -83 565 -111 q 320 -1 372 -54 q 268 124 268 51 m 329 476 q 458 668 418 568 q 507 906 499 768 l 389 906 l 389 1028 l 644 1028 q 628 783 644 888 q 569 583 613 678 q 444 400 525 488 l 329 476 m 418 124 q 491 35 418 65 q 696 4 564 4 q 899 35 826 4 q 971 124 971 65 q 899 213 971 182 q 696 243 826 243 q 491 213 564 243 q 418 124 418 182 z "},"꺄":{"ha":1214,"x_min":29,"x_max":1193,"o":"m 1024 1125 l 1024 807 l 1193 807 l 1193 683 l 1024 683 l 1024 439 l 1193 439 l 1193 314 l 1024 314 l 1024 -112 l 874 -112 l 874 1125 l 1024 1125 m 29 240 q 208 524 154 374 q 271 872 263 675 l 78 872 l 78 994 l 414 994 q 392 674 414 817 q 313 401 371 532 q 149 156 254 271 l 29 240 m 378 158 q 552 478 501 307 q 611 872 603 650 l 454 872 l 454 994 l 751 994 q 732 650 751 804 q 657 349 713 496 q 497 75 601 203 l 378 158 z "},"꺅":{"ha":1214,"x_min":39,"x_max":1179,"o":"m 1014 1124 l 1014 954 l 1179 954 l 1179 829 l 1014 829 l 1014 692 l 1179 692 l 1179 569 l 1014 569 l 1014 388 l 864 388 l 864 1124 l 1014 1124 m 39 556 q 202 713 149 629 q 269 917 256 797 l 82 917 l 82 1038 l 411 1038 q 349 705 411 840 q 133 461 288 569 l 39 556 m 199 335 l 1014 335 l 1014 -114 l 864 -114 l 864 213 l 199 213 l 199 335 m 386 497 q 549 683 496 583 q 615 917 603 783 l 460 917 l 460 1038 l 757 1038 q 698 681 757 831 q 492 408 639 531 l 386 497 z "},"꺆":{"ha":1214,"x_min":35,"x_max":1183,"o":"m 410 1047 q 349 714 410 849 q 143 469 289 579 l 35 564 q 190 722 139 640 q 256 919 242 803 l 76 919 l 76 1047 l 410 1047 m 144 363 l 568 363 l 568 -114 l 417 -114 l 417 240 l 144 240 l 144 363 m 396 506 q 544 690 494 594 q 607 919 593 786 l 454 919 l 454 1047 l 760 1047 q 704 692 760 842 q 518 418 649 543 l 396 506 m 621 363 l 1035 363 l 1035 -114 l 883 -114 l 883 240 l 621 240 l 621 363 m 886 1124 l 1036 1124 l 1036 956 l 1183 956 l 1183 829 l 1036 829 l 1036 682 l 1183 682 l 1183 554 l 1036 554 l 1036 407 l 886 407 l 886 1124 z "},"꺌":{"ha":1214,"x_min":40,"x_max":1178,"o":"m 1014 1124 l 1014 989 l 1178 989 l 1178 871 l 1014 871 l 1014 760 l 1178 760 l 1178 640 l 1014 640 l 1014 497 l 864 497 l 864 1124 l 1014 1124 m 40 617 q 195 758 143 685 q 263 940 247 832 l 76 940 l 76 1060 l 407 1060 q 344 751 407 875 q 138 524 282 626 l 40 617 m 207 443 l 1014 443 l 1014 122 l 357 122 l 357 21 l 1058 21 l 1058 -97 l 208 -97 l 208 232 l 865 232 l 865 326 l 207 326 l 207 443 m 388 571 q 547 733 494 647 q 613 940 599 819 l 453 940 l 453 1060 l 756 1060 q 696 728 756 864 q 492 482 636 593 l 388 571 z "},"꺍":{"ha":1214,"x_min":40,"x_max":1182,"o":"m 1035 428 l 1035 -112 l 878 -112 l 878 307 l 625 307 l 625 428 l 1035 428 m 40 628 q 192 763 139 693 q 260 935 244 832 l 79 935 l 79 1060 l 414 1060 q 351 756 414 878 q 146 531 288 633 l 40 628 m 147 428 l 575 428 l 575 113 l 300 113 l 300 10 q 497 16 422 11 q 651 36 572 21 l 664 -81 q 480 -102 569 -97 q 229 -107 390 -107 l 149 -107 l 149 218 l 425 218 l 425 311 l 147 311 l 147 428 m 411 576 q 553 737 506 656 q 613 935 600 818 l 461 935 l 461 1060 l 768 1060 q 714 735 768 868 q 532 492 660 601 l 411 576 m 886 1124 l 1036 1124 l 1036 979 l 1182 979 l 1182 858 l 1036 858 l 1036 733 l 1182 733 l 1182 611 l 1036 611 l 1036 488 l 886 488 l 886 1124 z "},"꺼":{"ha":1214,"x_min":32,"x_max":1068,"o":"m 1068 1125 l 1068 -112 l 918 -112 l 918 535 l 713 535 q 496 75 657 269 l 379 158 q 552 479 501 307 q 610 872 603 651 l 454 872 l 454 994 l 753 994 q 733 656 753 796 l 918 656 l 918 1125 l 1068 1125 m 32 240 q 210 524 156 374 q 272 872 264 675 l 81 872 l 81 994 l 415 994 q 394 674 415 817 q 315 401 372 532 q 151 156 257 271 l 32 240 z "},"꺽":{"ha":1214,"x_min":43,"x_max":1068,"o":"m 1068 335 l 1068 -112 l 918 -112 l 918 213 l 231 213 l 231 335 l 1068 335 m 43 550 q 206 713 153 626 q 271 922 258 799 l 88 922 l 88 1042 l 414 1042 q 353 705 414 842 q 140 457 292 568 l 43 550 m 389 492 q 551 683 499 582 q 615 922 604 785 l 458 922 l 458 1042 l 757 1042 q 738 811 757 910 l 918 811 l 918 1124 l 1068 1124 l 1068 388 l 918 388 l 918 692 l 703 692 q 494 404 640 529 l 389 492 z "},"꺾":{"ha":1214,"x_min":43,"x_max":1068,"o":"m 1068 1124 l 1068 406 l 918 406 l 918 694 l 701 694 q 496 417 640 539 l 390 503 q 551 691 499 592 q 615 926 604 790 l 457 926 l 457 1046 l 757 1046 q 736 815 757 913 l 918 815 l 918 1124 l 1068 1124 m 43 561 q 204 721 151 636 q 271 926 257 806 l 88 926 l 88 1046 l 414 1046 q 353 713 414 849 q 140 468 292 578 l 43 561 m 193 354 l 606 354 l 606 -112 l 456 -112 l 456 233 l 193 233 l 193 354 m 658 354 l 1068 354 l 1068 -112 l 919 -112 l 919 233 l 658 233 l 658 354 z "},"껀":{"ha":1214,"x_min":49,"x_max":1099,"o":"m 1068 1119 l 1068 218 l 917 218 l 917 644 l 707 644 q 494 354 644 481 l 394 446 q 559 649 507 539 q 622 904 611 758 l 465 904 l 465 1026 l 764 1026 q 742 765 764 872 l 917 765 l 917 1119 l 1068 1119 m 49 506 q 212 681 158 588 q 278 904 265 775 l 94 904 l 94 1026 l 421 1026 q 360 674 421 819 q 146 411 299 528 l 49 506 m 251 296 l 401 296 l 401 33 l 1099 33 l 1099 -89 l 251 -89 l 251 296 z "},"껄":{"ha":1214,"x_min":53,"x_max":1100,"o":"m 415 1067 q 354 762 415 883 q 149 538 293 640 l 53 631 q 204 769 153 699 q 271 946 256 840 l 89 946 l 89 1067 l 415 1067 m 247 436 l 1067 436 l 1067 117 l 399 117 l 399 14 l 1100 14 l 1100 -104 l 250 -104 l 250 226 l 917 226 l 917 318 l 247 318 l 247 436 m 399 575 q 555 739 504 653 q 618 946 606 825 l 457 946 l 457 1067 l 760 1067 q 740 850 760 942 l 917 850 l 917 1124 l 1067 1124 l 1067 490 l 917 490 l 917 731 l 701 731 q 503 488 643 596 l 399 575 z "}}}
